Giphurs-Thin.ufo
<glyph name="quotedbl" format="2">
  <advance width="612"/>
  <unicode hex="0022"/>
  <outline>
    <contour>
      <point x="389" y="968" type="line"/>
      <point x="386" y="1480" type="line"/>
      <point x="432" y="1480" type="line"/>
      <point x="429" y="968" type="line"/>
    </contour>
    <contour>
      <point x="183" y="968" type="line"/>
      <point x="180" y="1480" type="line"/>
      <point x="226" y="1480" type="line"/>
      <point x="223" y="968" type="line"/>
    </contour>
  </outline>
</glyph>
<glyph name="parenright" format="2">
  <advance width="801"/>
  <unicode hex="0029"/>
  <outline>
    <contour>
      <point x="621" y="660" type="curve" smooth="yes"/>
      <point x="621" y="20"/>
      <point x="244" y="-286"/>
      <point x="112" y="-341" type="curve"/>
      <point x="90" y="-306" type="line"/>
      <point x="229" y="-249"/>
      <point x="576" y="60"/>
      <point x="576" y="660" type="curve" smooth="yes"/>
      <point x="576" y="1261"/>
      <point x="230" y="1568"/>
      <point x="91" y="1625" type="curve"/>
      <point x="113" y="1660" type="line"/>
      <point x="245" y="1605"/>
      <point x="621" y="1301"/>
    </contour>
  </outline>
</glyph>
<glyph name="asterisk" format="2">
  <advance width="1074"/>
  <unicode hex="002A"/>
  <outline>
    <contour>
      <point x="140" y="1210" type="line"/>
      <point x="154" y="1254" type="line"/>
      <point x="543" y="1125" type="line"/>
      <point x="537" y="1106" type="line"/>
      <point x="531" y="1087" type="line"/>
    </contour>
    <contour>
      <point x="316" y="760" type="line"/>
      <point x="278" y="787" type="line"/>
      <point x="521" y="1117" type="line"/>
      <point x="537" y="1106" type="line"/>
      <point x="554" y="1094" type="line"/>
    </contour>
    <contour>
      <point x="796" y="787" type="line"/>
      <point x="758" y="760" type="line"/>
      <point x="520" y="1094" type="line"/>
      <point x="537" y="1106" type="line"/>
      <point x="553" y="1117" type="line"/>
    </contour>
    <contour>
      <point x="920" y="1254" type="line"/>
      <point x="934" y="1210" type="line"/>
      <point x="543" y="1087" type="line"/>
      <point x="537" y="1106" type="line"/>
      <point x="531" y="1125" type="line"/>
    </contour>
    <contour>
      <point x="514" y="1516" type="line"/>
      <point x="560" y="1516" type="line"/>
      <point x="557" y="1106" type="line"/>
      <point x="537" y="1106" type="line"/>
      <point x="517" y="1106" type="line"/>
    </contour>
  </outline>
</glyph>
<glyph name="zero" format="2">
  <advance width="1232"/>
  <unicode hex="0030"/>
  <outline>
    <contour>
      <point x="202" y="740" type="curve" smooth="yes"/>
      <point x="202" y="274"/>
      <point x="376" y="32"/>
      <point x="616" y="32" type="curve" smooth="yes"/>
      <point x="856" y="32"/>
      <point x="1030" y="274"/>
      <point x="1030" y="740" type="curve" smooth="yes"/>
      <point x="1030" y="1206"/>
      <point x="856" y="1448"/>
      <point x="616" y="1448" type="curve" smooth="yes"/>
      <point x="376" y="1448"/>
      <point x="202" y="1206"/>
    </contour>
    <contour>
      <point x="156" y="740" type="curve" smooth="yes"/>
      <point x="156" y="1240"/>
      <point x="352" y="1490"/>
      <point x="616" y="1490" type="curve" smooth="yes"/>
      <point x="880" y="1490"/>
      <point x="1076" y="1240"/>
      <point x="1076" y="740" type="curve" smooth="yes"/>
      <point x="1076" y="240"/>
      <point x="880" y="-10"/>
      <point x="616" y="-10" type="curve" smooth="yes"/>
      <point x="352" y="-10"/>
      <point x="156" y="240"/>
    </contour>
  </outline>
</glyph>
<glyph name="two" format="2">
  <advance width="1232"/>
  <unicode hex="0032"/>
  <outline>
    <contour>
      <point x="234" y="987" type="curve"/>
      <point x="187" y="1000" type="line"/>
      <point x="187" y="1300"/>
      <point x="370" y="1490"/>
      <point x="616" y="1490" type="curve" smooth="yes"/>
      <point x="862" y="1490"/>
      <point x="1045" y="1320"/>
      <point x="1045" y="1040" type="curve"/>
      <point x="999" y="1040" type="line"/>
      <point x="999" y="1280"/>
      <point x="846" y="1448"/>
      <point x="616" y="1448" type="curve" smooth="yes"/>
      <point x="382" y="1448"/>
      <point x="233" y="1258"/>
      <point x="233" y="1000" type="curve" smooth="yes"/>
      <point x="233" y="996"/>
      <point x="233" y="993"/>
    </contour>
    <contour>
      <point x="180" y="0" type="curve"/>
      <point x="180" y="116"/>
      <point x="183" y="303"/>
      <point x="616" y="553" type="curve" smooth="yes"/>
      <point x="893" y="713"/>
      <point x="999" y="824"/>
      <point x="999" y="1040" type="curve"/>
      <point x="1045" y="1040" type="line"/>
      <point x="1045" y="760"/>
      <point x="837" y="627"/>
      <point x="616" y="500" type="curve" smooth="yes"/>
      <point x="396" y="373"/>
      <point x="226" y="230"/>
      <point x="226" y="0" type="curve"/>
      <point x="177" y="0"/>
      <point x="229" y="0"/>
    </contour>
    <contour>
      <point x="200" y="42" type="line"/>
      <point x="1052" y="42" type="line"/>
      <point x="1052" y="0" type="line"/>
      <point x="226" y="0" type="line"/>
    </contour>
  </outline>
</glyph>
<glyph name="six" format="2">
  <advance width="1232"/>
  <unicode hex="0036"/>
  <outline>
    <contour>
      <point x="713" y="1490" type="curve" smooth="yes"/>
      <point x="948" y="1490"/>
      <point x="1044" y="1360"/>
      <point x="1044" y="1360" type="curve"/>
      <point x="1022" y="1322" type="line"/>
      <point x="1022" y="1322"/>
      <point x="929" y="1448"/>
      <point x="697" y="1448" type="curve" smooth="yes"/>
      <point x="441" y="1448"/>
      <point x="194" y="1206"/>
      <point x="194" y="706" type="curve" smooth="yes"/>
      <point x="194" y="316"/>
      <point x="296" y="222"/>
      <point x="296" y="222" type="curve"/>
      <point x="242" y="227" type="line"/>
      <point x="242" y="227"/>
      <point x="148" y="366"/>
      <point x="148" y="706" type="curve" smooth="yes"/>
      <point x="148" y="1226"/>
      <point x="396" y="1490"/>
    </contour>
    <contour>
      <point x="226" y="483" type="curve" smooth="yes"/>
      <point x="226" y="251"/>
      <point x="375" y="32"/>
      <point x="632" y="32" type="curve" smooth="yes"/>
      <point x="889" y="32"/>
      <point x="1038" y="251"/>
      <point x="1038" y="483" type="curve" smooth="yes"/>
      <point x="1038" y="715"/>
      <point x="879" y="934"/>
      <point x="632" y="934" type="curve" smooth="yes"/>
      <point x="385" y="934"/>
      <point x="226" y="715"/>
    </contour>
    <contour>
      <point x="180" y="483" type="curve"/>
      <point x="190" y="483" type="line"/>
      <point x="190" y="774"/>
      <point x="385" y="976"/>
      <point x="632" y="976" type="curve" smooth="yes"/>
      <point x="879" y="976"/>
      <point x="1084" y="774"/>
      <point x="1084" y="483" type="curve" smooth="yes"/>
      <point x="1084" y="192"/>
      <point x="879" y="-10"/>
      <point x="632" y="-10" type="curve" smooth="yes"/>
      <point x="385" y="-10"/>
      <point x="180" y="192"/>
    </contour>
  </outline>
</glyph>
<glyph name="eight" format="2">
  <advance width="1232"/>
  <unicode hex="0038"/>
  <outline>
    <contour>
      <point x="1067" y="391" type="curve" smooth="yes"/>
      <point x="1067" y="634"/>
      <point x="890" y="792"/>
      <point x="616" y="792" type="curve" smooth="yes"/>
      <point x="342" y="792"/>
      <point x="165" y="634"/>
      <point x="165" y="391" type="curve" smooth="yes"/>
      <point x="165" y="148"/>
      <point x="352" y="-10"/>
      <point x="616" y="-10" type="curve" smooth="yes"/>
      <point x="880" y="-10"/>
      <point x="1067" y="148"/>
    </contour>
    <contour>
      <point x="211" y="397" type="curve" smooth="yes"/>
      <point x="211" y="617"/>
      <point x="391" y="754"/>
      <point x="616" y="754" type="curve" smooth="yes"/>
      <point x="841" y="754"/>
      <point x="1021" y="617"/>
      <point x="1021" y="397" type="curve" smooth="yes"/>
      <point x="1021" y="177"/>
      <point x="841" y="32"/>
      <point x="616" y="32" type="curve" smooth="yes"/>
      <point x="391" y="32"/>
      <point x="211" y="177"/>
    </contour>
    <contour>
      <point x="1027" y="1126" type="curve" smooth="yes"/>
      <point x="1027" y="1345"/>
      <point x="858" y="1490"/>
      <point x="616" y="1490" type="curve" smooth="yes"/>
      <point x="374" y="1490"/>
      <point x="205" y="1345"/>
      <point x="205" y="1126" type="curve" smooth="yes"/>
      <point x="205" y="907"/>
      <point x="354" y="760"/>
      <point x="616" y="760" type="curve" smooth="yes"/>
      <point x="878" y="760"/>
      <point x="1027" y="907"/>
    </contour>
    <contour>
      <point x="251" y="1124" type="curve" smooth="yes"/>
      <point x="251" y="1325"/>
      <point x="416" y="1448"/>
      <point x="616" y="1448" type="curve" smooth="yes"/>
      <point x="816" y="1448"/>
      <point x="981" y="1325"/>
      <point x="981" y="1124" type="curve" smooth="yes"/>
      <point x="981" y="923"/>
      <point x="816" y="798"/>
      <point x="616" y="798" type="curve" smooth="yes"/>
      <point x="416" y="798"/>
      <point x="251" y="923"/>
    </contour>
  </outline>
</glyph>
<glyph name="less" format="2">
  <advance width="1232"/>
  <unicode hex="003C"/>
  <outline>
    <contour>
      <point x="180" y="637" type="line"/>
      <point x="180" y="683" type="line"/>
      <point x="1052" y="1062" type="line"/>
      <point x="1052" y="1019" type="line"/>
      <point x="220" y="660" type="line"/>
      <point x="1052" y="301" type="line"/>
      <point x="1052" y="258" type="line"/>
    </contour>
  </outline>
</glyph>
<glyph name="equal" format="2">
  <advance width="1232"/>
  <unicode hex="003D"/>
  <outline>
    <contour>
      <point x="1052" y="820" type="line"/>
      <point x="1052" y="780" type="line"/>
      <point x="180" y="780" type="line"/>
      <point x="180" y="820" type="line"/>
    </contour>
    <contour>
      <point x="180" y="500" type="line"/>
      <point x="180" y="540" type="line"/>
      <point x="1052" y="540" type="line"/>
      <point x="1052" y="500" type="line"/>
    </contour>
  </outline>
</glyph>
<glyph name="H" format="2">
  <advance width="1344"/>
  <unicode hex="0048"/>
  <anchor x="-179" y="1040" name="greek_kt"/>
  <anchor x="-19" y="1040" name="greek_k"/>
  <anchor x="-140" y="1040" name="greek_t"/>
  <anchor x="38" y="1040" name="greek_v"/>
  <anchor x="688" y="-88" name="bottom_ypogegrammeni"/>
  <anchor x="203" y="-18" name="bottom_cedilla"/>
  <anchor x="688" y="0" name="bottom_center"/>
  <anchor x="688" y="1382" name="top_center"/>
  <outline>
    <contour>
      <point x="180" y="1480" type="line"/>
      <point x="226" y="1480" type="line"/>
      <point x="226" y="761" type="line"/>
      <point x="1118" y="761" type="line"/>
      <point x="1118" y="1480" type="line"/>
      <point x="1164" y="1480" type="line"/>
      <point x="1164" y="0" type="line"/>
      <point x="1118" y="0" type="line"/>
      <point x="1118" y="719" type="line"/>
      <point x="226" y="719" type="line"/>
      <point x="226" y="0" type="line"/>
      <point x="180" y="0" type="line"/>
    </contour>
  </outline>
</glyph>
<glyph name="N" format="2">
  <advance width="1344"/>
  <unicode hex="004E"/>
  <anchor x="672" y="1380" name="top_center"/>
  <anchor x="672" y="0" name="bottom_center"/>
  <outline>
    <contour>
      <point x="226" y="1480" type="line"/>
      <point x="1118" y="90" type="line"/>
      <point x="1118" y="1480" type="line"/>
      <point x="1164" y="1480" type="line"/>
      <point x="1164" y="0" type="line"/>
      <point x="1118" y="0" type="line"/>
      <point x="226" y="1390" type="line"/>
      <point x="226" y="0" type="line"/>
      <point x="180" y="0" type="line"/>
      <point x="180" y="1480" type="line"/>
    </contour>
  </outline>
</glyph>
<glyph name="T" format="2">
  <advance width="1344"/>
  <unicode hex="0054"/>
  <anchor x="672" y="1380" name="top_center"/>
  <anchor x="672" y="0" name="bottom_center"/>
  <anchor x="672" y="-20" name="bottom_cedilla"/>
  <outline>
    <contour>
      <point x="695" y="0" type="line"/>
      <point x="649" y="0" type="line"/>
      <point x="649" y="1438" type="line"/>
      <point x="180" y="1438" type="line"/>
      <point x="180" y="1480" type="line"/>
      <point x="1164" y="1480" type="line"/>
      <point x="1164" y="1438" type="line"/>
      <point x="695" y="1438" type="line"/>
    </contour>
  </outline>
</glyph>
<glyph name="V" format="2">
  <advance width="1310"/>
  <unicode hex="0056"/>
  <anchor x="655" y="1380" name="top_center"/>
  <anchor x="655" y="0" name="bottom_center"/>
  <outline>
    <contour>
      <point x="655" y="72" type="line"/>
      <point x="1141" y="1480" type="line"/>
      <point x="1190" y="1480" type="line"/>
      <point x="680" y="0" type="line"/>
      <point x="630" y="0" type="line"/>
      <point x="120" y="1480" type="line"/>
      <point x="169" y="1480" type="line"/>
    </contour>
  </outline>
</glyph>
<glyph name="W" format="2">
  <advance width="1862"/>
  <unicode hex="0057"/>
  <anchor x="931" y="1380" name="top_center"/>
  <anchor x="931" y="0" name="bottom_center"/>
  <outline>
    <contour>
      <point x="1323" y="72" type="line"/>
      <point x="1693" y="1480" type="line"/>
      <point x="1742" y="1480" type="line"/>
      <point x="1349" y="0" type="line"/>
      <point x="1296" y="0" type="line"/>
      <point x="931" y="1418" type="line"/>
      <point x="566" y="0" type="line"/>
      <point x="513" y="0" type="line"/>
      <point x="120" y="1480" type="line"/>
      <point x="169" y="1480" type="line"/>
      <point x="540" y="72" type="line"/>
      <point x="905" y="1480" type="line"/>
      <point x="957" y="1480" type="line"/>
    </contour>
  </outline>
</glyph>
<glyph name="Z" format="2">
  <advance width="1258"/>
  <unicode hex="005A"/>
  <anchor x="638" y="1380" name="top_center"/>
  <anchor x="638" y="0" name="bottom_center"/>
  <outline>
    <contour>
      <point x="210" y="0" type="line"/>
      <point x="180" y="38" type="line"/>
      <point x="1030" y="1480" type="line"/>
      <point x="1060" y="1442" type="line"/>
    </contour>
    <contour>
      <point x="204" y="42" type="line"/>
      <point x="1078" y="42" type="line"/>
      <point x="1078" y="0" type="line"/>
      <point x="752" y="0"/>
      <point x="506" y="0"/>
      <point x="180" y="0" type="curve"/>
      <point x="180" y="38" type="line"/>
    </contour>
    <contour>
      <point x="198" y="1480" type="line"/>
      <point x="524" y="1480"/>
      <point x="734" y="1480"/>
      <point x="1060" y="1480" type="curve"/>
      <point x="1060" y="1442" type="line"/>
      <point x="1035" y="1438" type="line"/>
      <point x="198" y="1438" type="line"/>
    </contour>
  </outline>
</glyph>
<glyph name="c" format="2">
  <advance width="1101"/>
  <unicode hex="0063"/>
  <anchor x="578" y="-20" name="bottom_cedilla"/>
  <anchor x="578" y="1040" name="top_center"/>
  <anchor x="578" y="0" name="bottom_center"/>
  <outline>
    <contour>
      <point x="185" y="520" type="curve" smooth="yes"/>
      <point x="185" y="184"/>
      <point x="410" y="30"/>
      <point x="578" y="30" type="curve" smooth="yes"/>
      <point x="698" y="30"/>
      <point x="846" y="108"/>
      <point x="922" y="274" type="curve"/>
      <point x="961" y="252" type="line"/>
      <point x="887" y="90"/>
      <point x="745" y="-10"/>
      <point x="578" y="-10" type="curve" smooth="yes"/>
      <point x="331" y="-10"/>
      <point x="140" y="208"/>
      <point x="140" y="520" type="curve" smooth="yes"/>
      <point x="140" y="832"/>
      <point x="331" y="1050"/>
      <point x="578" y="1050" type="curve" smooth="yes"/>
      <point x="745" y="1050"/>
      <point x="887" y="950"/>
      <point x="961" y="788" type="curve"/>
      <point x="922" y="766" type="line"/>
      <point x="846" y="932"/>
      <point x="698" y="1010"/>
      <point x="578" y="1010" type="curve" smooth="yes"/>
      <point x="410" y="1010"/>
      <point x="185" y="856"/>
    </contour>
  </outline>
</glyph>
<glyph name="k" format="2">
  <advance width="1029"/>
  <unicode hex="006B"/>
  <anchor x="206" y="1380" name="top_center"/>
  <anchor x="557" y="0" name="bottom_center"/>
  <outline>
    <contour>
      <point x="451" y="601" type="line"/>
      <point x="482" y="630" type="line"/>
      <point x="929" y="0" type="line"/>
      <point x="877" y="0" type="line"/>
    </contour>
    <contour>
      <point x="225" y="340" type="line"/>
      <point x="225" y="0" type="line"/>
      <point x="180" y="0" type="line"/>
      <point x="180" y="1480" type="line"/>
      <point x="225" y="1480" type="line"/>
      <point x="225" y="398" type="line"/>
      <point x="867" y="1040" type="line"/>
      <point x="920" y="1040"/>
      <point x="872" y="1040"/>
      <point x="925" y="1040" type="curve"/>
    </contour>
  </outline>
</glyph>
<glyph name="q" format="2">
  <advance width="1152"/>
  <unicode hex="0071"/>
  <anchor x="560" y="0" name="bottom_center"/>
  <anchor x="560" y="1040" name="top_center"/>
  <outline>
    <contour>
      <point x="935" y="520" type="curve"/>
      <point x="935" y="856"/>
      <point x="735" y="1010"/>
      <point x="560" y="1010" type="curve" smooth="yes"/>
      <point x="385" y="1010"/>
      <point x="185" y="856"/>
      <point x="185" y="520" type="curve" smooth="yes"/>
      <point x="185" y="184"/>
      <point x="385" y="30"/>
      <point x="560" y="30" type="curve" smooth="yes"/>
      <point x="735" y="30"/>
      <point x="935" y="184"/>
    </contour>
    <contour>
      <point x="972" y="832" type="curve"/>
      <point x="972" y="-440" type="line"/>
      <point x="927" y="-440" type="line"/>
      <point x="927" y="260" type="line"/>
      <point x="896" y="144"/>
      <point x="760" y="-10"/>
      <point x="560" y="-10" type="curve" smooth="yes"/>
      <point x="313" y="-10"/>
      <point x="140" y="208"/>
      <point x="140" y="520" type="curve" smooth="yes"/>
      <point x="140" y="832"/>
      <point x="313" y="1050"/>
      <point x="560" y="1050" type="curve" smooth="yes"/>
      <point x="770" y="1050"/>
      <point x="896" y="896"/>
      <point x="927" y="780" type="curve"/>
      <point x="927" y="1040" type="line"/>
      <point x="972" y="1040" type="line"/>
      <point x="972" y="1040"/>
      <point x="972" y="930"/>
    </contour>
  </outline>
</glyph>
<glyph name="y" format="2">
  <advance width="1098"/>
  <unicode hex="0079"/>
  <anchor x="573" y="1040" name="top_center"/>
  <anchor x="330" y="-360" name="bottom_center"/>
  <outline>
    <contour>
      <point x="483" y="-312" type="line"/>
      <point x="450" y="-401"/>
      <point x="381" y="-450"/>
      <point x="265" y="-450" type="curve" smooth="yes"/>
      <point x="216" y="-450"/>
      <point x="160" y="-436"/>
      <point x="120" y="-418" type="curve"/>
      <point x="134" y="-375" type="line"/>
      <point x="173" y="-403"/>
      <point x="227" y="-410"/>
      <point x="265" y="-410" type="curve" smooth="yes"/>
      <point x="330" y="-410"/>
      <point x="405" y="-395"/>
      <point x="441" y="-296" type="curve"/>
      <point x="548" y="0" type="line"/>
      <point x="168" y="1040" type="line"/>
      <point x="216" y="1040" type="line"/>
      <point x="573" y="56" type="line"/>
      <point x="930" y="1040" type="line"/>
      <point x="978" y="1040" type="line"/>
      <point x="598" y="0" type="line"/>
    </contour>
  </outline>
</glyph>
<glyph name="z" format="2">
  <advance width="1012"/>
  <unicode hex="007A"/>
  <anchor x="506" y="1040" name="top_center"/>
  <anchor x="506" y="0" name="bottom_center"/>
  <outline>
    <contour>
      <point x="180" y="1040" type="line"/>
      <point x="832" y="1040" type="line"/>
      <point x="832" y="1008" type="line"/>
      <point x="803" y="1000" type="line"/>
      <point x="180" y="1000" type="line"/>
    </contour>
    <contour>
      <point x="832" y="40" type="line"/>
      <point x="832" y="0" type="line"/>
      <point x="180" y="0" type="line"/>
      <point x="180" y="32" type="line"/>
      <point x="209" y="40" type="line"/>
    </contour>
    <contour>
      <point x="232" y="40" type="line"/>
      <point x="180" y="32" type="line"/>
      <point x="780" y="1000" type="line"/>
      <point x="832" y="1008" type="line"/>
    </contour>
  </outline>
</glyph>
<glyph name="exclamdown" format="2">
  <advance width="488"/>
  <unicode hex="00A1"/>
  <outline>
    <contour>
      <point x="180" y="986" type="curve" smooth="yes"/>
      <point x="180" y="1022"/>
      <point x="208" y="1050"/>
      <point x="244" y="1050" type="curve" smooth="yes"/>
      <point x="280" y="1050"/>
      <point x="308" y="1022"/>
      <point x="308" y="986" type="curve" smooth="yes"/>
      <point x="308" y="950"/>
      <point x="280" y="922"/>
      <point x="244" y="922" type="curve" smooth="yes"/>
      <point x="208" y="922"/>
      <point x="180" y="950"/>
    </contour>
    <contour>
      <point x="271" y="-440" type="line"/>
      <point x="217" y="-440" type="line"/>
      <point x="221" y="588" type="line"/>
      <point x="267" y="588" type="line"/>
    </contour>
  </outline>
</glyph>
<glyph name="sterling" format="2">
  <advance width="1276"/>
  <unicode hex="00A3"/>
  <outline>
    <contour>
      <point x="362" y="720" type="line"/>
      <point x="730" y="720" type="line"/>
      <point x="730" y="760" type="line"/>
      <point x="362" y="760" type="line"/>
      <point x="140" y="760" type="line"/>
      <point x="140" y="714"/>
      <point x="140" y="766"/>
      <point x="140" y="720" type="curve"/>
    </contour>
    <contour>
      <point x="276" y="1040" type="curve" smooth="yes"/>
      <point x="276" y="1298"/>
      <point x="427" y="1448"/>
      <point x="661" y="1448" type="curve" smooth="yes"/>
      <point x="895" y="1448"/>
      <point x="1044" y="1268"/>
      <point x="1044" y="1010" type="curve" smooth="yes"/>
      <point x="1044" y="1006"/>
      <point x="1044" y="1003"/>
      <point x="1043" y="997" type="curve"/>
      <point x="1090" y="1010" type="line"/>
      <point x="1090" y="1310"/>
      <point x="907" y="1490"/>
      <point x="661" y="1490" type="curve" smooth="yes"/>
      <point x="415" y="1490"/>
      <point x="231" y="1340"/>
      <point x="231" y="1040" type="curve" smooth="yes"/>
      <point x="231" y="768"/>
      <point x="399" y="654"/>
      <point x="399" y="474" type="curve" smooth="yes"/>
      <point x="399" y="354"/>
      <point x="250" y="112"/>
      <point x="168" y="37" type="curve"/>
      <point x="227" y="18" type="line"/>
      <point x="261" y="72"/>
      <point x="444" y="280"/>
      <point x="444" y="490" type="curve" smooth="yes"/>
      <point x="444" y="650"/>
      <point x="276" y="800"/>
    </contour>
    <contour>
      <point x="1123" y="107" type="line"/>
      <point x="1083" y="76"/>
      <point x="991" y="30"/>
      <point x="901" y="30" type="curve" smooth="yes"/>
      <point x="744" y="30"/>
      <point x="694" y="128"/>
      <point x="518" y="128" type="curve" smooth="yes"/>
      <point x="395" y="128"/>
      <point x="247" y="82"/>
      <point x="168" y="37" type="curve"/>
      <point x="179" y="-10" type="line"/>
      <point x="277" y="44"/>
      <point x="414" y="88"/>
      <point x="518" y="88" type="curve" smooth="yes"/>
      <point x="675" y="88"/>
      <point x="725" y="-10"/>
      <point x="901" y="-10" type="curve" smooth="yes"/>
      <point x="1007" y="-10"/>
      <point x="1096" y="33"/>
      <point x="1136" y="60" type="curve"/>
    </contour>
  </outline>
</glyph>
<glyph name="section" format="2">
  <advance width="1118"/>
  <unicode hex="00A7"/>
  <outline>
    <contour>
      <point x="559" y="820" type="line"/>
      <point x="365" y="820"/>
      <point x="185" y="751"/>
      <point x="185" y="531" type="curve" smooth="yes"/>
      <point x="185" y="305"/>
      <point x="371" y="273"/>
      <point x="559" y="223" type="curve" smooth="yes"/>
      <point x="771" y="166"/>
      <point x="978" y="105"/>
      <point x="978" y="-131" type="curve" smooth="yes"/>
      <point x="978" y="-367"/>
      <point x="828" y="-460"/>
      <point x="559" y="-460" type="curve" smooth="yes"/>
      <point x="338" y="-460"/>
      <point x="140" y="-322"/>
      <point x="140" y="-94" type="curve"/>
      <point x="186" y="-81" type="line"/>
      <point x="186" y="-314"/>
      <point x="384" y="-420"/>
      <point x="559" y="-420" type="curve" smooth="yes"/>
      <point x="753" y="-420"/>
      <point x="933" y="-367"/>
      <point x="933" y="-131" type="curve" smooth="yes"/>
      <point x="933" y="59"/>
      <point x="747" y="127"/>
      <point x="559" y="177" type="curve" smooth="yes"/>
      <point x="347" y="234"/>
      <point x="140" y="265"/>
      <point x="140" y="531" type="curve" smooth="yes"/>
      <point x="140" y="747"/>
      <point x="290" y="860"/>
      <point x="559" y="860" type="curve"/>
    </contour>
    <contour>
      <point x="559" y="220" type="line"/>
      <point x="753" y="220"/>
      <point x="933" y="289"/>
      <point x="933" y="509" type="curve" smooth="yes"/>
      <point x="933" y="735"/>
      <point x="760" y="756"/>
      <point x="559" y="817" type="curve" smooth="yes"/>
      <point x="291" y="899"/>
      <point x="183" y="972"/>
      <point x="183" y="1182" type="curve" smooth="yes"/>
      <point x="183" y="1372"/>
      <point x="343" y="1490"/>
      <point x="559" y="1490" type="curve" smooth="yes"/>
      <point x="780" y="1490"/>
      <point x="935" y="1352"/>
      <point x="935" y="1124" type="curve"/>
      <point x="889" y="1111" type="line"/>
      <point x="889" y="1344"/>
      <point x="734" y="1450"/>
      <point x="559" y="1450" type="curve" smooth="yes"/>
      <point x="414" y="1450"/>
      <point x="228" y="1378"/>
      <point x="228" y="1182" type="curve" smooth="yes"/>
      <point x="228" y="962"/>
      <point x="404" y="904"/>
      <point x="559" y="863" type="curve" smooth="yes"/>
      <point x="829" y="791"/>
      <point x="978" y="745"/>
      <point x="978" y="509" type="curve" smooth="yes"/>
      <point x="978" y="293"/>
      <point x="828" y="180"/>
      <point x="559" y="180" type="curve"/>
    </contour>
  </outline>
</glyph>
<glyph name="ordfeminine" format="2">
  <advance width="854"/>
  <unicode hex="00AA"/>
  <outline>
    <contour>
      <point x="140" y="831" type="line"/>
      <point x="140" y="861" type="line"/>
      <point x="714" y="861" type="line"/>
      <point x="714" y="831" type="line"/>
    </contour>
    <contour>
      <point x="596" y="1096" type="curve"/>
      <point x="556" y="1024"/>
      <point x="472" y="990"/>
      <point x="389" y="990" type="curve" smooth="yes"/>
      <point x="270" y="990"/>
      <point x="164" y="1054"/>
      <point x="164" y="1193" type="curve" smooth="yes"/>
      <point x="164" y="1333"/>
      <point x="276" y="1397"/>
      <point x="395" y="1397" type="curve" smooth="yes"/>
      <point x="468" y="1397"/>
      <point x="552" y="1364"/>
      <point x="593" y="1294" type="curve"/>
      <point x="593" y="1531"/>
      <point x="509" y="1575"/>
      <point x="394" y="1575" type="curve" smooth="yes"/>
      <point x="279" y="1575"/>
      <point x="205" y="1499"/>
      <point x="205" y="1499" type="curve"/>
      <point x="188" y="1528" type="line"/>
      <point x="188" y="1528"/>
      <point x="264" y="1605"/>
      <point x="397" y="1605" type="curve" smooth="yes"/>
      <point x="515" y="1605"/>
      <point x="626" y="1559"/>
      <point x="626" y="1291" type="curve" smooth="yes"/>
      <point x="626" y="1232" type="line"/>
      <point x="626" y="1213" type="line"/>
      <point x="626" y="1132" type="line" smooth="yes"/>
      <point x="626" y="1064"/>
      <point x="658" y="1031"/>
      <point x="690" y="1020" type="curve"/>
      <point x="683" y="990" type="line"/>
      <point x="635" y="1003"/>
      <point x="605" y="1039"/>
    </contour>
    <contour>
      <point x="592" y="1193" type="curve" smooth="yes"/>
      <point x="592" y="1287"/>
      <point x="517" y="1366"/>
      <point x="395" y="1366" type="curve" smooth="yes"/>
      <point x="273" y="1366"/>
      <point x="197" y="1304"/>
      <point x="197" y="1193" type="curve" smooth="yes"/>
      <point x="197" y="1082"/>
      <point x="273" y="1020"/>
      <point x="395" y="1020" type="curve" smooth="yes"/>
      <point x="517" y="1020"/>
      <point x="592" y="1099"/>
    </contour>
  </outline>
</glyph>
<glyph name="logicalnot" format="2">
  <advance width="1232"/>
  <unicode hex="00AC"/>
  <outline>
    <contour>
      <point x="1007" y="720" type="line"/>
      <point x="1007" y="340" type="line"/>
      <point x="1052" y="340" type="line"/>
      <point x="1052" y="740" type="line"/>
    </contour>
    <contour>
      <point x="180" y="700" type="line"/>
      <point x="1034" y="700" type="line"/>
      <point x="1052" y="740" type="line"/>
      <point x="180" y="740" type="line"/>
    </contour>
  </outline>
</glyph>
<glyph name="cedilla" format="2">
  <advance width="528"/>
  <unicode hex="00B8"/>
  <outline>
    <contour>
      <point x="120" y="-291" type="curve"/>
      <point x="157" y="-269" type="line"/>
      <point x="176" y="-309"/>
      <point x="216" y="-330"/>
      <point x="254" y="-330" type="curve" smooth="yes"/>
      <point x="306" y="-330"/>
      <point x="363" y="-290"/>
      <point x="363" y="-216" type="curve" smooth="yes"/>
      <point x="363" y="-142"/>
      <point x="306" y="-102"/>
      <point x="254" y="-102" type="curve" smooth="yes"/>
      <point x="216" y="-102"/>
      <point x="195" y="-123"/>
      <point x="176" y="-163" type="curve"/>
      <point x="140" y="-141" type="line"/>
      <point x="166" y="-95"/>
      <point x="194" y="-62"/>
      <point x="254" y="-62" type="curve" smooth="yes"/>
      <point x="344" y="-62"/>
      <point x="408" y="-136"/>
      <point x="408" y="-216" type="curve" smooth="yes"/>
      <point x="408" y="-296"/>
      <point x="344" y="-370"/>
      <point x="254" y="-370" type="curve" smooth="yes"/>
      <point x="194" y="-370"/>
      <point x="146" y="-337"/>
    </contour>
    <contour>
      <point x="218" y="0" type="line"/>
      <point x="260" y="0" type="line"/>
      <point x="177" y="-136" type="line"/>
      <point x="176" y="-163" type="line"/>
      <point x="140" y="-141" type="line"/>
    </contour>
  </outline>
</glyph>
<glyph name="Lcaron" format="2">
  <advance width="1176"/>
  <unicode hex="013D"/>
  <outline>
    <contour>
      <point x="406" y="1426" type="curve" smooth="yes"/>
      <point x="406" y="1462"/>
      <point x="434" y="1490"/>
      <point x="470" y="1490" type="curve" smooth="yes"/>
      <point x="506" y="1490"/>
      <point x="534" y="1462"/>
      <point x="534" y="1426" type="curve" smooth="yes"/>
      <point x="534" y="1390"/>
      <point x="506" y="1362"/>
      <point x="470" y="1362" type="curve" smooth="yes"/>
      <point x="434" y="1362"/>
      <point x="406" y="1390"/>
    </contour>
    <contour>
      <point x="406" y="1168" type="line"/>
      <point x="456" y="1181"/>
      <point x="523" y="1242"/>
      <point x="523" y="1332" type="curve" smooth="yes"/>
      <point x="523" y="1412"/>
      <point x="470" y="1445"/>
      <point x="470" y="1445" type="curve"/>
      <point x="470" y="1490" type="line"/>
      <point x="532" y="1490"/>
      <point x="569" y="1412"/>
      <point x="569" y="1332" type="curve" smooth="yes"/>
      <point x="569" y="1222"/>
      <point x="486" y="1146"/>
      <point x="418" y="1126" type="curve"/>
    </contour>
    <contour>
      <point x="226" y="1480" type="line"/>
      <point x="226" y="42" type="line"/>
      <point x="996" y="42" type="line"/>
      <point x="996" y="0" type="line"/>
      <point x="180" y="0" type="line"/>
      <point x="180" y="1480" type="line"/>
    </contour>
  </outline>
</glyph>
<glyph name="lcaron" format="2">
  <advance width="579"/>
  <unicode hex="013E"/>
  <outline>
    <contour>
      <point x="503" y="1120" type="line"/>
      <point x="465" y="1120" type="line"/>
      <point x="529" y="1480" type="line"/>
      <point x="579" y="1480" type="line"/>
    </contour>
    <contour>
      <point x="489" y="56" type="curve"/>
      <point x="500" y="14" type="line"/>
      <point x="475" y="-3"/>
      <point x="445" y="-10"/>
      <point x="417" y="-10" type="curve" smooth="yes"/>
      <point x="267" y="-10"/>
      <point x="180" y="60"/>
      <point x="180" y="230" type="curve" smooth="yes"/>
      <point x="180" y="440" type="line"/>
      <point x="180" y="578" type="line"/>
      <point x="180" y="1480" type="line"/>
      <point x="225" y="1480" type="line"/>
      <point x="225" y="578" type="line"/>
      <point x="225" y="440" type="line"/>
      <point x="225" y="230" type="line" smooth="yes"/>
      <point x="225" y="40"/>
      <point x="364" y="30"/>
      <point x="417" y="30" type="curve" smooth="yes"/>
      <point x="431" y="30"/>
      <point x="458" y="36"/>
    </contour>
  </outline>
</glyph>
<glyph name="Lslash" format="2">
  <advance width="1166"/>
  <unicode hex="0141"/>
  <outline>
    <contour>
      <point x="536" y="950" type="line"/>
      <point x="536" y="902" type="line"/>
      <point x="0" y="592" type="line"/>
      <point x="0" y="640" type="line"/>
    </contour>
    <contour>
      <point x="256" y="1480" type="line"/>
      <point x="256" y="42" type="line"/>
      <point x="1026" y="42" type="line"/>
      <point x="1026" y="0" type="line"/>
      <point x="210" y="0" type="line"/>
      <point x="210" y="1480" type="line"/>
    </contour>
  </outline>
</glyph>
<glyph name="Eng" format="2">
  <advance width="1344"/>
  <unicode hex="014A"/>
  <anchor x="672" y="1380" name="top_center"/>
  <outline>
    <contour>
      <point x="1164" y="-210" type="line" smooth="yes"/>
      <point x="1164" y="-380"/>
      <point x="1076" y="-450"/>
      <point x="926" y="-450" type="curve" smooth="yes"/>
      <point x="898" y="-450"/>
      <point x="868" y="-443"/>
      <point x="843" y="-426" type="curve"/>
      <point x="854" y="-384" type="line"/>
      <point x="885" y="-404"/>
      <point x="912" y="-410"/>
      <point x="926" y="-410" type="curve" smooth="yes"/>
      <point x="979" y="-410"/>
      <point x="1118" y="-400"/>
      <point x="1118" y="-210" type="curve" smooth="yes"/>
      <point x="1118" y="0" type="line"/>
      <point x="1164" y="0" type="line"/>
    </contour>
    <contour>
      <point x="226" y="1480" type="line"/>
      <point x="1118" y="90" type="line"/>
      <point x="1118" y="1480" type="line"/>
      <point x="1164" y="1480" type="line"/>
      <point x="1164" y="0" type="line"/>
      <point x="1118" y="0" type="line"/>
      <point x="226" y="1390" type="line"/>
      <point x="226" y="0" type="line"/>
      <point x="180" y="0" type="line"/>
      <point x="180" y="1480" type="line"/>
    </contour>
  </outline>
</glyph>
<glyph name="Tbar" format="2">
  <advance width="1344"/>
  <unicode hex="0166"/>
  <outline>
    <contour>
      <point x="935" y="719" type="line"/>
      <point x="409" y="719" type="line"/>
      <point x="409" y="765"/>
      <point x="409" y="715"/>
      <point x="409" y="761" type="curve"/>
      <point x="935" y="761" type="line"/>
    </contour>
    <contour>
      <point x="695" y="0" type="line"/>
      <point x="649" y="0" type="line"/>
      <point x="649" y="1438" type="line"/>
      <point x="180" y="1438" type="line"/>
      <point x="180" y="1480" type="line"/>
      <point x="1164" y="1480" type="line"/>
      <point x="1164" y="1438" type="line"/>
      <point x="695" y="1438" type="line"/>
    </contour>
  </outline>
</glyph>
<glyph name="uni0182" format="2">
  <advance width="1232"/>
  <unicode hex="0182"/>
  <outline>
    <contour>
      <point x="1032" y="1438" type="line"/>
      <point x="226" y="1438" type="line"/>
      <point x="226" y="798" type="line"/>
      <point x="641" y="798" type="line"/>
      <point x="915" y="798"/>
      <point x="1092" y="641"/>
      <point x="1092" y="398" type="curve" smooth="yes"/>
      <point x="1092" y="155"/>
      <point x="915" y="0"/>
      <point x="641" y="0" type="curve"/>
      <point x="180" y="0" type="line"/>
      <point x="180" y="1480" type="line"/>
      <point x="1032" y="1480" type="line"/>
    </contour>
    <contour>
      <point x="641" y="754" type="curve"/>
      <point x="226" y="754" type="line"/>
      <point x="226" y="42" type="line"/>
      <point x="641" y="42" type="line"/>
      <point x="866" y="42"/>
      <point x="1046" y="178"/>
      <point x="1046" y="398" type="curve" smooth="yes"/>
      <point x="1046" y="618"/>
      <point x="866" y="754"/>
    </contour>
  </outline>
</glyph>
<glyph name="uni0184" format="2">
  <advance width="1144"/>
  <unicode hex="0184"/>
  <outline>
    <contour>
      <point x="216" y="42" type="line"/>
      <point x="585" y="42" type="line"/>
      <point x="810" y="42"/>
      <point x="958" y="223"/>
      <point x="958" y="423" type="curve" smooth="yes"/>
      <point x="958" y="623"/>
      <point x="810" y="804"/>
      <point x="585" y="804" type="curve"/>
      <point x="216" y="804" type="line"/>
    </contour>
    <contour>
      <point x="190" y="1480" type="line"/>
      <point x="216" y="1480" type="line"/>
      <point x="216" y="846" type="line"/>
      <point x="585" y="846" type="line"/>
      <point x="809" y="846"/>
      <point x="1004" y="678"/>
      <point x="1004" y="423" type="curve" smooth="yes"/>
      <point x="1004" y="168"/>
      <point x="809" y="0"/>
      <point x="585" y="0" type="curve"/>
      <point x="170" y="0" type="line"/>
      <point x="170" y="1240" type="line"/>
      <point x="0" y="1325" type="line"/>
    </contour>
  </outline>
</glyph>
<glyph name="uni018A" format="2">
  <advance width="1452"/>
  <unicode hex="018A"/>
  <outline>
    <contour>
      <point x="46" y="1158" type="curve"/>
      <point x="1" y="1158" type="line"/>
      <point x="0" y="1162"/>
      <point x="0" y="1166"/>
      <point x="0" y="1170" type="curve" smooth="yes"/>
      <point x="0" y="1348"/>
      <point x="132" y="1480"/>
      <point x="310" y="1480" type="curve" smooth="yes"/>
      <point x="314" y="1480"/>
      <point x="318" y="1480"/>
      <point x="322" y="1479" type="curve"/>
      <point x="322" y="1439" type="line"/>
      <point x="318" y="1440"/>
      <point x="314" y="1440"/>
      <point x="310" y="1440" type="curve" smooth="yes"/>
      <point x="155" y="1440"/>
      <point x="45" y="1325"/>
      <point x="45" y="1170" type="curve" smooth="yes"/>
      <point x="45" y="1166"/>
      <point x="45" y="1162"/>
    </contour>
    <contour>
      <point x="356" y="1438" type="line"/>
      <point x="356" y="42" type="line"/>
      <point x="726" y="42" type="line"/>
      <point x="964" y="42"/>
      <point x="1266" y="240"/>
      <point x="1266" y="740" type="curve" smooth="yes"/>
      <point x="1266" y="1240"/>
      <point x="964" y="1438"/>
      <point x="726" y="1438" type="curve"/>
    </contour>
    <contour>
      <point x="726" y="0" type="curve"/>
      <point x="477" y="0" type="line"/>
      <point x="310" y="0" type="line"/>
      <point x="310" y="1480" type="line"/>
      <point x="726" y="1480" type="line"/>
      <point x="1060" y="1480"/>
      <point x="1312" y="1190"/>
      <point x="1312" y="740" type="curve" smooth="yes"/>
      <point x="1312" y="290"/>
      <point x="1060" y="0"/>
    </contour>
  </outline>
</glyph>
<glyph name="uni018D" format="2">
  <advance width="1156"/>
  <unicode hex="018D"/>
  <outline>
    <contour>
      <point x="1016" y="520" type="curve" smooth="yes"/>
      <point x="1016" y="208"/>
      <point x="825" y="10"/>
      <point x="578" y="10" type="curve"/>
      <point x="578" y="30" type="line"/>
      <point x="746" y="30"/>
      <point x="971" y="184"/>
      <point x="971" y="520" type="curve" smooth="yes"/>
      <point x="971" y="856"/>
      <point x="746" y="1010"/>
      <point x="578" y="1010" type="curve" smooth="yes"/>
      <point x="410" y="1010"/>
      <point x="185" y="856"/>
      <point x="185" y="520" type="curve" smooth="yes"/>
      <point x="185" y="184"/>
      <point x="410" y="30"/>
      <point x="578" y="30" type="curve"/>
      <point x="578" y="-10" type="line"/>
      <point x="331" y="-10"/>
      <point x="140" y="208"/>
      <point x="140" y="520" type="curve" smooth="yes"/>
      <point x="140" y="832"/>
      <point x="331" y="1050"/>
      <point x="578" y="1050" type="curve" smooth="yes"/>
      <point x="825" y="1050"/>
      <point x="1016" y="832"/>
    </contour>
    <contour>
      <point x="538" y="-450" type="curve" smooth="yes"/>
      <point x="378" y="-450"/>
      <point x="275" y="-395"/>
      <point x="219" y="-358" type="curve"/>
      <point x="243" y="-317" type="line"/>
      <point x="300" y="-354"/>
      <point x="413" y="-410"/>
      <point x="548" y="-410" type="curve" smooth="yes"/>
      <point x="818" y="-410"/>
      <point x="906" y="-290"/>
      <point x="906" y="-210" type="curve" smooth="yes"/>
      <point x="906" y="-130"/>
      <point x="868" y="-10"/>
      <point x="578" y="-10" type="curve"/>
      <point x="578" y="30" type="line"/>
      <point x="896" y="30"/>
      <point x="951" y="-110"/>
      <point x="951" y="-210" type="curve" smooth="yes"/>
      <point x="951" y="-310"/>
      <point x="856" y="-450"/>
    </contour>
  </outline>
</glyph>
<glyph name="uni0196" format="2">
  <advance width="608"/>
  <unicode hex="0196"/>
  <anchor x="423" y="0" name="bottom_center"/>
  <anchor x="203" y="1380" name="top_center"/>
  <outline>
    <contour>
      <point x="423" y="-10" type="curve" smooth="yes"/>
      <point x="247" y="-10"/>
      <point x="180" y="100"/>
      <point x="180" y="300" type="curve" smooth="yes"/>
      <point x="180" y="490" type="line"/>
      <point x="180" y="1480" type="line"/>
      <point x="225" y="1480" type="line"/>
      <point x="225" y="490" type="line"/>
      <point x="225" y="300" type="line" smooth="yes"/>
      <point x="225" y="60"/>
      <point x="333" y="30"/>
      <point x="423" y="30" type="curve" smooth="yes"/>
      <point x="461" y="30"/>
      <point x="515" y="37"/>
      <point x="554" y="65" type="curve"/>
      <point x="568" y="22" type="line"/>
      <point x="539" y="2"/>
      <point x="472" y="-10"/>
    </contour>
  </outline>
</glyph>
<glyph name="uni0198" format="2">
  <advance width="1318"/>
  <unicode hex="0198"/>
  <outline>
    <contour>
      <point x="504" y="807" type="line"/>
      <point x="534" y="841" type="line"/>
      <point x="1198" y="0" type="line"/>
      <point x="1144" y="0" type="line"/>
    </contour>
    <contour>
      <point x="180" y="1180" type="line"/>
      <point x="180" y="1358"/>
      <point x="313" y="1490"/>
      <point x="491" y="1490" type="curve" smooth="yes"/>
      <point x="495" y="1490"/>
      <point x="499" y="1490"/>
      <point x="503" y="1489" type="curve"/>
      <point x="503" y="1449" type="line"/>
      <point x="499" y="1450"/>
      <point x="495" y="1450"/>
      <point x="491" y="1450" type="curve" smooth="yes"/>
      <point x="336" y="1450"/>
      <point x="226" y="1335"/>
      <point x="226" y="1180" type="curve"/>
      <point x="226" y="568" type="line"/>
      <point x="1138" y="1480" type="line"/>
      <point x="1191" y="1480"/>
      <point x="1145" y="1480"/>
      <point x="1198" y="1480" type="curve"/>
      <point x="226" y="508" type="line"/>
      <point x="226" y="0" type="line"/>
      <point x="180" y="0" type="line"/>
    </contour>
  </outline>
</glyph>
<glyph name="uni0199" format="2">
  <advance width="1049"/>
  <unicode hex="0199"/>
  <outline>
    <contour>
      <point x="451" y="601" type="line"/>
      <point x="482" y="630" type="line"/>
      <point x="929" y="0" type="line"/>
      <point x="877" y="0" type="line"/>
    </contour>
    <contour>
      <point x="180" y="1180" type="line"/>
      <point x="180" y="1358"/>
      <point x="312" y="1490"/>
      <point x="490" y="1490" type="curve"/>
      <point x="494" y="1490"/>
      <point x="498" y="1490"/>
      <point x="502" y="1489" type="curve"/>
      <point x="502" y="1449" type="line"/>
      <point x="498" y="1450"/>
      <point x="494" y="1450"/>
      <point x="490" y="1450" type="curve"/>
      <point x="335" y="1450"/>
      <point x="225" y="1335"/>
      <point x="225" y="1180" type="curve"/>
      <point x="225" y="398" type="line"/>
      <point x="867" y="1040" type="line"/>
      <point x="920" y="1040"/>
      <point x="872" y="1040"/>
      <point x="925" y="1040" type="curve"/>
      <point x="225" y="340" type="line"/>
      <point x="225" y="0" type="line"/>
      <point x="180" y="0" type="line"/>
    </contour>
  </outline>
</glyph>
<glyph name="uni019A" format="2">
  <advance width="594"/>
  <unicode hex="019A"/>
  <outline>
    <contour>
      <point x="519" y="720" type="line"/>
      <point x="-6" y="720" type="line"/>
      <point x="-6" y="766"/>
      <point x="-6" y="714"/>
      <point x="-6" y="760" type="curve"/>
      <point x="519" y="760" type="line"/>
    </contour>
    <contour>
      <point x="543" y="56" type="curve"/>
      <point x="554" y="14" type="line"/>
      <point x="529" y="-3"/>
      <point x="499" y="-10"/>
      <point x="471" y="-10" type="curve" smooth="yes"/>
      <point x="321" y="-10"/>
      <point x="234" y="60"/>
      <point x="234" y="230" type="curve" smooth="yes"/>
      <point x="234" y="440" type="line"/>
      <point x="234" y="578" type="line"/>
      <point x="234" y="1480" type="line"/>
      <point x="279" y="1480" type="line"/>
      <point x="279" y="578" type="line"/>
      <point x="279" y="440" type="line"/>
      <point x="279" y="230" type="line" smooth="yes"/>
      <point x="279" y="40"/>
      <point x="418" y="30"/>
      <point x="471" y="30" type="curve" smooth="yes"/>
      <point x="485" y="30"/>
      <point x="512" y="36"/>
    </contour>
  </outline>
</glyph>
<glyph name="uni01A3" format="2">
  <advance width="1427"/>
  <unicode hex="01A3"/>
  <outline>
    <contour>
      <point x="935" y="833" type="curve"/>
      <point x="935" y="791" type="line"/>
      <point x="1078" y="791"/>
      <point x="1173" y="885"/>
      <point x="1226" y="1002" type="curve"/>
      <point x="1202" y="1045" type="line"/>
      <point x="1160" y="939"/>
      <point x="1049" y="833"/>
    </contour>
    <contour>
      <point x="1202" y="-410" type="line"/>
      <point x="1247" y="-410" type="line"/>
      <point x="1247" y="1045" type="line"/>
      <point x="1202" y="1045" type="line"/>
    </contour>
    <contour>
      <point x="917" y="253" type="line"/>
      <point x="962" y="254" type="line"/>
      <point x="962" y="802" type="line"/>
      <point x="917" y="802" type="line"/>
    </contour>
    <contour>
      <point x="933" y="300" type="line"/>
      <point x="862" y="116"/>
      <point x="704" y="30"/>
      <point x="578" y="30" type="curve" smooth="yes"/>
      <point x="410" y="30"/>
      <point x="185" y="184"/>
      <point x="185" y="520" type="curve" smooth="yes"/>
      <point x="185" y="856"/>
      <point x="410" y="1010"/>
      <point x="578" y="1010" type="curve" smooth="yes"/>
      <point x="707" y="1010"/>
      <point x="869" y="919"/>
      <point x="938" y="726" type="curve"/>
      <point x="962" y="786" type="line"/>
      <point x="888" y="949"/>
      <point x="746" y="1050"/>
      <point x="578" y="1050" type="curve" smooth="yes"/>
      <point x="331" y="1050"/>
      <point x="140" y="832"/>
      <point x="140" y="520" type="curve" smooth="yes"/>
      <point x="140" y="208"/>
      <point x="331" y="-10"/>
      <point x="578" y="-10" type="curve" smooth="yes"/>
      <point x="746" y="-10"/>
      <point x="888" y="91"/>
      <point x="962" y="254" type="curve"/>
    </contour>
  </outline>
</glyph>
<glyph name="uni01A6" format="2">
  <advance width="1170"/>
  <unicode hex="01A6"/>
  <outline>
    <contour>
      <point x="545" y="475" type="line"/>
      <point x="591" y="484" type="line"/>
      <point x="1030" y="-168" type="line"/>
      <point x="976" y="-168" type="line"/>
    </contour>
    <contour>
      <point x="226" y="1270" type="line"/>
      <point x="226" y="508" type="line"/>
      <point x="595" y="508" type="line"/>
      <point x="820" y="508"/>
      <point x="968" y="689"/>
      <point x="968" y="889" type="curve" smooth="yes"/>
      <point x="968" y="1089"/>
      <point x="820" y="1270"/>
      <point x="595" y="1270" type="curve"/>
    </contour>
    <contour>
      <point x="180" y="0" type="line"/>
      <point x="180" y="1480" type="line"/>
      <point x="226" y="1480" type="line"/>
      <point x="226" y="1312" type="line"/>
      <point x="595" y="1312" type="line"/>
      <point x="819" y="1312"/>
      <point x="1014" y="1144"/>
      <point x="1014" y="889" type="curve" smooth="yes"/>
      <point x="1014" y="634"/>
      <point x="819" y="466"/>
      <point x="595" y="466" type="curve"/>
      <point x="226" y="466" type="line"/>
      <point x="226" y="0" type="line"/>
    </contour>
  </outline>
</glyph>
<glyph name="uni01AC" format="2">
  <advance width="1234"/>
  <unicode hex="01AC"/>
  <outline>
    <contour>
      <point x="46" y="1158" type="curve"/>
      <point x="1" y="1158" type="line"/>
      <point x="0" y="1162"/>
      <point x="0" y="1166"/>
      <point x="0" y="1170" type="curve" smooth="yes"/>
      <point x="0" y="1348"/>
      <point x="132" y="1480"/>
      <point x="310" y="1480" type="curve"/>
      <point x="310" y="1438" type="line"/>
      <point x="155" y="1438"/>
      <point x="45" y="1325"/>
      <point x="45" y="1170" type="curve" smooth="yes"/>
      <point x="45" y="1166"/>
      <point x="45" y="1162"/>
    </contour>
    <contour>
      <point x="585" y="0" type="line"/>
      <point x="539" y="0" type="line"/>
      <point x="539" y="1438" type="line"/>
      <point x="310" y="1438" type="line"/>
      <point x="310" y="1480" type="line"/>
      <point x="1054" y="1480" type="line"/>
      <point x="1054" y="1438" type="line"/>
      <point x="585" y="1438" type="line"/>
    </contour>
  </outline>
</glyph>
<glyph name="uni01AD" format="2">
  <advance width="772"/>
  <unicode hex="01AD"/>
  <outline>
    <contour>
      <point x="314" y="1348" type="line"/>
      <point x="314" y="1526"/>
      <point x="446" y="1658"/>
      <point x="624" y="1658" type="curve"/>
      <point x="628" y="1658"/>
      <point x="632" y="1658"/>
      <point x="636" y="1657" type="curve"/>
      <point x="636" y="1617" type="line"/>
      <point x="632" y="1618"/>
      <point x="628" y="1618"/>
      <point x="624" y="1618" type="curve"/>
      <point x="469" y="1618"/>
      <point x="359" y="1503"/>
      <point x="359" y="1348" type="curve"/>
      <point x="359" y="1040" type="line"/>
      <point x="665" y="1040" type="line"/>
      <point x="665" y="1000" type="line"/>
      <point x="359" y="1000" type="line"/>
      <point x="359" y="300" type="line" smooth="yes"/>
      <point x="359" y="60"/>
      <point x="467" y="30"/>
      <point x="557" y="30" type="curve" smooth="yes"/>
      <point x="595" y="30"/>
      <point x="649" y="37"/>
      <point x="688" y="65" type="curve"/>
      <point x="702" y="22" type="line"/>
      <point x="662" y="4"/>
      <point x="606" y="-10"/>
      <point x="557" y="-10" type="curve" smooth="yes"/>
      <point x="381" y="-10"/>
      <point x="314" y="100"/>
      <point x="314" y="300" type="curve" smooth="yes"/>
      <point x="314" y="1000" type="line"/>
      <point x="70" y="1000" type="line"/>
      <point x="70" y="1040" type="line"/>
      <point x="148" y="1040" type="line"/>
      <point x="298" y="1040"/>
      <point x="314" y="1056"/>
      <point x="314" y="1206" type="curve"/>
    </contour>
  </outline>
</glyph>
<glyph name="uni0224" format="2">
  <advance width="1258"/>
  <unicode hex="0224"/>
  <outline>
    <contour>
      <point x="756" y="-269" type="line"/>
      <point x="760" y="-270"/>
      <point x="764" y="-270"/>
      <point x="768" y="-270" type="curve" smooth="yes"/>
      <point x="923" y="-270"/>
      <point x="1033" y="-155"/>
      <point x="1033" y="0" type="curve"/>
      <point x="1078" y="0" type="line"/>
      <point x="1078" y="-178"/>
      <point x="946" y="-310"/>
      <point x="768" y="-310" type="curve" smooth="yes"/>
      <point x="764" y="-310"/>
      <point x="760" y="-310"/>
      <point x="756" y="-309" type="curve"/>
    </contour>
    <contour>
      <point x="210" y="0" type="line"/>
      <point x="180" y="38" type="line"/>
      <point x="1030" y="1480" type="line"/>
      <point x="1060" y="1442" type="line"/>
    </contour>
    <contour>
      <point x="204" y="42" type="line"/>
      <point x="1078" y="42" type="line"/>
      <point x="1078" y="0" type="line"/>
      <point x="752" y="0"/>
      <point x="506" y="0"/>
      <point x="180" y="0" type="curve"/>
      <point x="180" y="38" type="line"/>
    </contour>
    <contour>
      <point x="1035" y="1438" type="line"/>
      <point x="198" y="1438" type="line"/>
      <point x="198" y="1480" type="line"/>
      <point x="524" y="1480"/>
      <point x="734" y="1480"/>
      <point x="1060" y="1480" type="curve"/>
      <point x="1060" y="1442" type="line"/>
    </contour>
  </outline>
</glyph>
<glyph name="uni0235" format="2">
  <advance width="1327"/>
  <unicode hex="0235"/>
  <outline>
    <contour>
      <point x="950" y="201" type="line"/>
      <point x="950" y="101"/>
      <point x="1016" y="30"/>
      <point x="1116" y="30" type="curve" smooth="yes"/>
      <point x="1216" y="30"/>
      <point x="1282" y="101"/>
      <point x="1282" y="201" type="curve" smooth="yes"/>
      <point x="1282" y="301"/>
      <point x="1216" y="372"/>
      <point x="1116" y="372" type="curve" smooth="yes"/>
      <point x="810" y="372"/>
      <point x="692" y="-178"/>
      <point x="692" y="-178" type="curve"/>
      <point x="652" y="-155" type="line"/>
      <point x="652" y="-155"/>
      <point x="767" y="412"/>
      <point x="1117" y="412" type="curve" smooth="yes"/>
      <point x="1237" y="412"/>
      <point x="1327" y="321"/>
      <point x="1327" y="201" type="curve" smooth="yes"/>
      <point x="1327" y="81"/>
      <point x="1236" y="-10"/>
      <point x="1116" y="-10" type="curve" smooth="yes"/>
      <point x="996" y="-10"/>
      <point x="905" y="81"/>
      <point x="905" y="201" type="curve"/>
      <point x="905" y="297" type="line"/>
      <point x="905" y="572" type="line" smooth="yes"/>
      <point x="905" y="791"/>
      <point x="835" y="1010"/>
      <point x="565" y="1010" type="curve" smooth="yes"/>
      <point x="295" y="1010"/>
      <point x="225" y="791"/>
      <point x="225" y="572" type="curve" smooth="yes"/>
      <point x="225" y="0" type="line"/>
      <point x="180" y="0" type="line"/>
      <point x="180" y="1040" type="line"/>
      <point x="225" y="1040" type="line"/>
      <point x="225" y="820" type="line"/>
      <point x="262" y="927"/>
      <point x="345" y="1050"/>
      <point x="575" y="1050" type="curve" smooth="yes"/>
      <point x="813" y="1050"/>
      <point x="950" y="892"/>
      <point x="950" y="572" type="curve"/>
    </contour>
  </outline>
</glyph>
<glyph name="uni0237" format="2">
  <advance width="405"/>
  <unicode hex="0237"/>
  <anchor x="202" y="1040" name="top_center"/>
  <anchor x="92" y="-360" name="bottom_center"/>
  <outline>
    <contour>
      <point x="-84" y="-384" type="line"/>
      <point x="-53" y="-404"/>
      <point x="-26" y="-410"/>
      <point x="-12" y="-410" type="curve" smooth="yes"/>
      <point x="41" y="-410"/>
      <point x="180" y="-400"/>
      <point x="180" y="-210" type="curve" smooth="yes"/>
      <point x="180" y="0" type="line"/>
      <point x="180" y="138" type="line"/>
      <point x="180" y="1040" type="line"/>
      <point x="225" y="1040" type="line"/>
      <point x="225" y="138" type="line"/>
      <point x="225" y="0" type="line"/>
      <point x="225" y="-210" type="line" smooth="yes"/>
      <point x="225" y="-380"/>
      <point x="138" y="-450"/>
      <point x="-12" y="-450" type="curve" smooth="yes"/>
      <point x="-40" y="-450"/>
      <point x="-70" y="-443"/>
      <point x="-95" y="-426" type="curve"/>
    </contour>
  </outline>
</glyph>
<glyph name="uni023A" format="2">
  <advance width="1310"/>
  <unicode hex="023A"/>
  <outline>
    <contour>
      <point x="1232" y="1526" type="line"/>
      <point x="1264" y="1502" type="line"/>
      <point x="78" y="-46" type="line"/>
      <point x="46" y="-22" type="line"/>
    </contour>
    <contour>
      <point x="331" y="541" type="line"/>
      <point x="987" y="541" type="line"/>
      <point x="987" y="499" type="line"/>
      <point x="331" y="499" type="line"/>
    </contour>
    <contour>
      <point x="656" y="1408" type="line"/>
      <point x="169" y="0" type="line"/>
      <point x="120" y="0" type="line"/>
      <point x="630" y="1480" type="line"/>
      <point x="680" y="1480" type="line"/>
      <point x="1190" y="0" type="line"/>
      <point x="1141" y="0" type="line"/>
    </contour>
  </outline>
</glyph>
<glyph name="uni023D" format="2">
  <advance width="1206"/>
  <unicode hex="023D"/>
  <outline>
    <contour>
      <point x="536" y="719" type="line"/>
      <point x="0" y="719" type="line"/>
      <point x="0" y="731"/>
      <point x="0" y="749"/>
      <point x="0" y="761" type="curve"/>
      <point x="536" y="761" type="line"/>
    </contour>
    <contour>
      <point x="256" y="1480" type="line"/>
      <point x="256" y="42" type="line"/>
      <point x="1026" y="42" type="line"/>
      <point x="1026" y="0" type="line"/>
      <point x="210" y="0" type="line"/>
      <point x="210" y="1480" type="line"/>
    </contour>
  </outline>
</glyph>
<glyph name="uni0243" format="2">
  <advance width="1262"/>
  <unicode hex="0243"/>
  <outline>
    <contour>
      <point x="671" y="1480" type="line"/>
      <point x="913" y="1480"/>
      <point x="1082" y="1335"/>
      <point x="1082" y="1116" type="curve" smooth="yes"/>
      <point x="1082" y="897"/>
      <point x="933" y="760"/>
      <point x="671" y="760" type="curve"/>
      <point x="671" y="798" type="line"/>
      <point x="871" y="798"/>
      <point x="1036" y="913"/>
      <point x="1036" y="1114" type="curve" smooth="yes"/>
      <point x="1036" y="1315"/>
      <point x="871" y="1438"/>
      <point x="671" y="1438" type="curve"/>
      <point x="256" y="1438" type="line"/>
      <point x="256" y="798" type="line"/>
      <point x="671" y="798" type="line"/>
      <point x="671" y="754" type="line"/>
      <point x="256" y="754" type="line"/>
      <point x="256" y="42" type="line"/>
      <point x="671" y="42" type="line"/>
      <point x="896" y="42"/>
      <point x="1076" y="175"/>
      <point x="1076" y="395" type="curve" smooth="yes"/>
      <point x="1076" y="615"/>
      <point x="896" y="754"/>
      <point x="671" y="754" type="curve"/>
      <point x="671" y="792" type="line"/>
      <point x="945" y="792"/>
      <point x="1122" y="634"/>
      <point x="1122" y="391" type="curve" smooth="yes"/>
      <point x="1122" y="148"/>
      <point x="935" y="0"/>
      <point x="671" y="0" type="curve"/>
      <point x="210" y="0" type="line"/>
      <point x="210" y="1480" type="line"/>
    </contour>
    <contour>
      <point x="536" y="377" type="line"/>
      <point x="0" y="377" type="line"/>
      <point x="0" y="389"/>
      <point x="0" y="407"/>
      <point x="0" y="419" type="curve"/>
      <point x="536" y="419" type="line"/>
    </contour>
  </outline>
</glyph>
<glyph name="uni0244" format="2">
  <advance width="1404"/>
  <unicode hex="0244"/>
  <anchor x="702" y="1380" name="top_center"/>
  <anchor x="1194" y="1480" name="top_right"/>
  <anchor x="702" y="0" name="bottom_center"/>
  <anchor x="817" y="0" name="bottom_right"/>
  <anchor x="702" y="-10" name="bottom_cedilla"/>
  <outline>
    <contour>
      <point x="1404" y="761" type="line"/>
      <point x="1404" y="719" type="line"/>
      <point x="0" y="719" type="line"/>
      <point x="0" y="761" type="line"/>
    </contour>
    <contour>
      <point x="256" y="1480" type="line"/>
      <point x="256" y="528" type="line"/>
      <point x="256" y="178"/>
      <point x="462" y="32"/>
      <point x="702" y="32" type="curve" smooth="yes"/>
      <point x="942" y="32"/>
      <point x="1148" y="178"/>
      <point x="1148" y="528" type="curve"/>
      <point x="1148" y="1480" type="line"/>
      <point x="1194" y="1480" type="line"/>
      <point x="1194" y="528" type="line"/>
      <point x="1194" y="168"/>
      <point x="999" y="-10"/>
      <point x="702" y="-10" type="curve" smooth="yes"/>
      <point x="405" y="-10"/>
      <point x="210" y="168"/>
      <point x="210" y="528" type="curve"/>
      <point x="210" y="1480" type="line"/>
    </contour>
  </outline>
</glyph>
<glyph name="uni024C" format="2">
  <advance width="1200"/>
  <unicode hex="024C"/>
  <outline>
    <contour>
      <point x="235" y="634" type="line"/>
      <point x="235" y="676" type="line"/>
      <point x="0" y="676" type="line"/>
      <point x="0" y="666"/>
      <point x="0" y="644"/>
      <point x="0" y="634" type="curve"/>
    </contour>
    <contour>
      <point x="575" y="643" type="line"/>
      <point x="1006" y="0" type="line"/>
      <point x="1060" y="0" type="line"/>
      <point x="621" y="652" type="line"/>
    </contour>
    <contour>
      <point x="256" y="1438" type="line"/>
      <point x="625" y="1438" type="line"/>
      <point x="850" y="1438"/>
      <point x="998" y="1257"/>
      <point x="998" y="1057" type="curve" smooth="yes"/>
      <point x="998" y="857"/>
      <point x="850" y="676"/>
      <point x="625" y="676" type="curve"/>
      <point x="256" y="676" type="line"/>
    </contour>
    <contour>
      <point x="210" y="0" type="line"/>
      <point x="256" y="0" type="line"/>
      <point x="256" y="634" type="line"/>
      <point x="625" y="634" type="line"/>
      <point x="849" y="634"/>
      <point x="1044" y="802"/>
      <point x="1044" y="1057" type="curve" smooth="yes"/>
      <point x="1044" y="1312"/>
      <point x="849" y="1480"/>
      <point x="625" y="1480" type="curve"/>
      <point x="210" y="1480" type="line"/>
    </contour>
  </outline>
</glyph>
<glyph name="uni0252" format="2">
  <advance width="1152"/>
  <unicode hex="0252"/>
  <outline>
    <contour>
      <point x="217" y="520" type="curve"/>
      <point x="217" y="184"/>
      <point x="417" y="30"/>
      <point x="592" y="30" type="curve" smooth="yes"/>
      <point x="767" y="30"/>
      <point x="967" y="184"/>
      <point x="967" y="520" type="curve" smooth="yes"/>
      <point x="967" y="856"/>
      <point x="767" y="1010"/>
      <point x="592" y="1010" type="curve" smooth="yes"/>
      <point x="417" y="1010"/>
      <point x="217" y="856"/>
    </contour>
    <contour>
      <point x="180" y="832" type="line"/>
      <point x="180" y="930"/>
      <point x="168" y="1040"/>
      <point x="168" y="1040" type="curve"/>
      <point x="213" y="1040" type="line"/>
      <point x="213" y="1040"/>
      <point x="225" y="930"/>
      <point x="225" y="780" type="curve"/>
      <point x="256" y="896"/>
      <point x="382" y="1050"/>
      <point x="592" y="1050" type="curve" smooth="yes"/>
      <point x="839" y="1050"/>
      <point x="1012" y="832"/>
      <point x="1012" y="520" type="curve" smooth="yes"/>
      <point x="1012" y="208"/>
      <point x="839" y="-10"/>
      <point x="592" y="-10" type="curve" smooth="yes"/>
      <point x="392" y="-10"/>
      <point x="256" y="144"/>
      <point x="225" y="260" type="curve"/>
      <point x="225" y="0" type="line"/>
      <point x="180" y="0" type="line"/>
    </contour>
  </outline>
</glyph>
<glyph name="uni025E" format="2">
  <advance width="1075"/>
  <unicode hex="025E"/>
  <outline>
    <contour>
      <point x="578" y="1050" type="curve" smooth="yes"/>
      <point x="767" y="1050"/>
      <point x="897" y="949"/>
      <point x="897" y="791" type="curve" smooth="yes"/>
      <point x="897" y="633"/>
      <point x="780" y="565"/>
      <point x="698" y="546" type="curve"/>
      <point x="808" y="537"/>
      <point x="935" y="419"/>
      <point x="935" y="276" type="curve" smooth="yes"/>
      <point x="935" y="103"/>
      <point x="758" y="-10"/>
      <point x="578" y="-10" type="curve" smooth="yes"/>
      <point x="331" y="-10"/>
      <point x="140" y="208"/>
      <point x="140" y="520" type="curve" smooth="yes"/>
      <point x="140" y="832"/>
      <point x="331" y="1050"/>
    </contour>
    <contour>
      <point x="578" y="1010" type="curve" smooth="yes"/>
      <point x="410" y="1010"/>
      <point x="185" y="856"/>
      <point x="185" y="520" type="curve" smooth="yes"/>
      <point x="185" y="184"/>
      <point x="410" y="30"/>
      <point x="578" y="30" type="curve" smooth="yes"/>
      <point x="768" y="30"/>
      <point x="890" y="159"/>
      <point x="890" y="279" type="curve" smooth="yes"/>
      <point x="890" y="399"/>
      <point x="778" y="528"/>
      <point x="578" y="528" type="curve"/>
      <point x="535" y="528"/>
      <point x="521" y="528"/>
      <point x="521" y="528" type="curve"/>
      <point x="521" y="568" type="line"/>
      <point x="521" y="568"/>
      <point x="536" y="568"/>
      <point x="578" y="568" type="curve"/>
      <point x="778" y="568"/>
      <point x="852" y="689"/>
      <point x="852" y="789" type="curve" smooth="yes"/>
      <point x="852" y="899"/>
      <point x="768" y="1010"/>
    </contour>
  </outline>
</glyph>
<glyph name="uni0263" format="2">
  <advance width="1128"/>
  <unicode hex="0263"/>
  <outline>
    <contour>
      <point x="780" y="-65" type="line"/>
      <point x="798" y="-95"/>
      <point x="814" y="-147"/>
      <point x="814" y="-207" type="curve" smooth="yes"/>
      <point x="814" y="-337"/>
      <point x="722" y="-450"/>
      <point x="564" y="-450" type="curve" smooth="yes"/>
      <point x="406" y="-450"/>
      <point x="314" y="-337"/>
      <point x="314" y="-207" type="curve" smooth="yes"/>
      <point x="314" y="-147"/>
      <point x="336" y="-95"/>
      <point x="354" y="-65" type="curve"/>
      <point x="536" y="252" type="line"/>
      <point x="120" y="1040" type="line"/>
      <point x="166" y="1040" type="line"/>
      <point x="564" y="291" type="line"/>
      <point x="962" y="1040" type="line"/>
      <point x="1008" y="1040" type="line"/>
      <point x="592" y="252" type="line"/>
    </contour>
    <contour>
      <point x="723" y="-43" type="curve"/>
      <point x="564" y="222" type="line"/>
      <point x="411" y="-43" type="line"/>
      <point x="384" y="-90"/>
      <point x="359" y="-143"/>
      <point x="359" y="-207" type="curve" smooth="yes"/>
      <point x="359" y="-305"/>
      <point x="434" y="-410"/>
      <point x="564" y="-410" type="curve" smooth="yes"/>
      <point x="694" y="-410"/>
      <point x="769" y="-305"/>
      <point x="769" y="-207" type="curve" smooth="yes"/>
      <point x="769" y="-143"/>
      <point x="750" y="-90"/>
    </contour>
  </outline>
</glyph>
<glyph name="uni0266" format="2">
  <advance width="1130"/>
  <unicode hex="0266"/>
  <outline>
    <contour>
      <point x="180" y="1180" type="line"/>
      <point x="180" y="1358"/>
      <point x="312" y="1490"/>
      <point x="490" y="1490" type="curve"/>
      <point x="494" y="1490"/>
      <point x="498" y="1490"/>
      <point x="502" y="1489" type="curve"/>
      <point x="502" y="1449" type="line"/>
      <point x="498" y="1450"/>
      <point x="494" y="1450"/>
      <point x="490" y="1450" type="curve"/>
      <point x="335" y="1450"/>
      <point x="225" y="1335"/>
      <point x="225" y="1180" type="curve"/>
      <point x="225" y="820" type="line"/>
      <point x="262" y="927"/>
      <point x="345" y="1050"/>
      <point x="575" y="1050" type="curve" smooth="yes"/>
      <point x="813" y="1050"/>
      <point x="950" y="892"/>
      <point x="950" y="572" type="curve"/>
      <point x="950" y="0" type="line"/>
      <point x="905" y="0" type="line"/>
      <point x="905" y="572" type="line" smooth="yes"/>
      <point x="905" y="791"/>
      <point x="835" y="1010"/>
      <point x="565" y="1010" type="curve" smooth="yes"/>
      <point x="295" y="1010"/>
      <point x="225" y="791"/>
      <point x="225" y="572" type="curve" smooth="yes"/>
      <point x="225" y="0" type="line"/>
      <point x="180" y="0" type="line"/>
    </contour>
  </outline>
</glyph>
<glyph name="uni026B" format="2">
  <advance width="822"/>
  <unicode hex="026B"/>
  <outline>
    <contour>
      <point x="154" y="621" type="curve"/>
      <point x="114" y="632" type="line"/>
      <point x="128" y="768"/>
      <point x="188" y="870"/>
      <point x="283" y="870" type="curve" smooth="yes"/>
      <point x="423" y="870"/>
      <point x="431" y="654"/>
      <point x="539" y="654" type="curve" smooth="yes"/>
      <point x="591" y="654"/>
      <point x="658" y="710"/>
      <point x="668" y="860" type="curve"/>
      <point x="708" y="849" type="line"/>
      <point x="694" y="713"/>
      <point x="634" y="614"/>
      <point x="539" y="614" type="curve" smooth="yes"/>
      <point x="399" y="614"/>
      <point x="391" y="830"/>
      <point x="283" y="830" type="curve" smooth="yes"/>
      <point x="231" y="830"/>
      <point x="164" y="771"/>
    </contour>
    <contour>
      <point x="180" y="1480" type="line"/>
      <point x="642" y="1480" type="line"/>
      <point x="642" y="1438" type="line"/>
      <point x="435" y="1438" type="line"/>
      <point x="435" y="42" type="line"/>
      <point x="642" y="42" type="line"/>
      <point x="642" y="0" type="line"/>
      <point x="180" y="0" type="line"/>
      <point x="180" y="42" type="line"/>
      <point x="387" y="42" type="line"/>
      <point x="387" y="1438" type="line"/>
      <point x="180" y="1438" type="line"/>
    </contour>
  </outline>
</glyph>
<glyph name="uni0270" format="2">
  <advance width="1694"/>
  <unicode hex="0270"/>
  <outline>
    <contour>
      <point x="870" y="1040" type="line"/>
      <point x="870" y="468" type="line" smooth="yes"/>
      <point x="870" y="249"/>
      <point x="930" y="30"/>
      <point x="1170" y="30" type="curve" smooth="yes"/>
      <point x="1410" y="30"/>
      <point x="1470" y="249"/>
      <point x="1470" y="468" type="curve" smooth="yes"/>
      <point x="1470" y="1040" type="line"/>
      <point x="1514" y="1040" type="line"/>
      <point x="1514" y="-440" type="line"/>
      <point x="1470" y="-440" type="line"/>
      <point x="1470" y="220" type="line"/>
      <point x="1443" y="113"/>
      <point x="1370" y="-10"/>
      <point x="1160" y="-10" type="curve" smooth="yes"/>
      <point x="994" y="-10"/>
      <point x="880" y="89"/>
      <point x="840" y="289" type="curve"/>
      <point x="806" y="90"/>
      <point x="713" y="-10"/>
      <point x="514" y="-10" type="curve" smooth="yes"/>
      <point x="304" y="-10"/>
      <point x="180" y="148"/>
      <point x="180" y="468" type="curve" smooth="yes"/>
      <point x="180" y="1040" type="line"/>
      <point x="224" y="1040" type="line"/>
      <point x="224" y="468" type="line" smooth="yes"/>
      <point x="224" y="249"/>
      <point x="294" y="30"/>
      <point x="534" y="30" type="curve" smooth="yes"/>
      <point x="754" y="30"/>
      <point x="824" y="249"/>
      <point x="824" y="468" type="curve" smooth="yes"/>
      <point x="824" y="1040" type="line"/>
    </contour>
  </outline>
</glyph>
<glyph name="uni028D" format="2">
  <advance width="1516"/>
  <unicode hex="028D"/>
  <outline>
    <contour>
      <point x="1088" y="1040" type="line"/>
      <point x="1396" y="0" type="line"/>
      <point x="1348" y="0" type="line"/>
      <point x="1065" y="951" type="line"/>
      <point x="782" y="0" type="line"/>
      <point x="734" y="0" type="line"/>
      <point x="451" y="951" type="line"/>
      <point x="168" y="0" type="line"/>
      <point x="120" y="0" type="line"/>
      <point x="428" y="1040" type="line"/>
      <point x="474" y="1040" type="line"/>
      <point x="757" y="80" type="line"/>
      <point x="1042" y="1040" type="line"/>
    </contour>
  </outline>
</glyph>
<glyph name="uni029D" format="2">
  <advance width="792"/>
  <unicode hex="029D"/>
  <outline>
    <contour>
      <point x="792" y="-28" type="line"/>
      <point x="212" y="-28" type="line"/>
      <point x="212" y="-68" type="line"/>
      <point x="792" y="-68" type="line"/>
    </contour>
    <contour>
      <point x="336" y="1352" type="curve" smooth="yes"/>
      <point x="336" y="1388"/>
      <point x="364" y="1416"/>
      <point x="400" y="1416" type="curve" smooth="yes"/>
      <point x="436" y="1416"/>
      <point x="464" y="1388"/>
      <point x="464" y="1352" type="curve" smooth="yes"/>
      <point x="464" y="1316"/>
      <point x="436" y="1288"/>
      <point x="400" y="1288" type="curve" smooth="yes"/>
      <point x="364" y="1288"/>
      <point x="336" y="1316"/>
    </contour>
    <contour>
      <point x="423" y="0" type="line"/>
      <point x="423" y="138" type="line"/>
      <point x="423" y="1040" type="line"/>
      <point x="378" y="1040" type="line"/>
      <point x="378" y="138" type="line"/>
      <point x="378" y="0" type="line"/>
      <point x="378" y="-239" type="line"/>
      <point x="378" y="-339"/>
      <point x="312" y="-410"/>
      <point x="212" y="-410" type="curve" smooth="yes"/>
      <point x="112" y="-410"/>
      <point x="45" y="-339"/>
      <point x="45" y="-239" type="curve" smooth="yes"/>
      <point x="45" y="-139"/>
      <point x="112" y="-68"/>
      <point x="212" y="-68" type="curve"/>
      <point x="212" y="-28" type="line"/>
      <point x="92" y="-28"/>
      <point x="0" y="-119"/>
      <point x="0" y="-239" type="curve" smooth="yes"/>
      <point x="0" y="-359"/>
      <point x="92" y="-450"/>
      <point x="212" y="-450" type="curve" smooth="yes"/>
      <point x="332" y="-450"/>
      <point x="423" y="-359"/>
      <point x="423" y="-239" type="curve"/>
    </contour>
  </outline>
</glyph>
<glyph name="uni029E" format="2">
  <advance width="1049"/>
  <unicode hex="029E"/>
  <outline>
    <contour>
      <point x="598" y="879" type="line"/>
      <point x="567" y="850" type="line"/>
      <point x="120" y="1480" type="line"/>
      <point x="172" y="1480" type="line"/>
    </contour>
    <contour>
      <point x="824" y="1140" type="line"/>
      <point x="824" y="1480" type="line"/>
      <point x="869" y="1480" type="line"/>
      <point x="869" y="0" type="line"/>
      <point x="824" y="0" type="line"/>
      <point x="824" y="1082" type="line"/>
      <point x="182" y="440" type="line"/>
      <point x="129" y="440"/>
      <point x="177" y="440"/>
      <point x="124" y="440" type="curve"/>
    </contour>
  </outline>
</glyph>
<glyph name="uni02A4" format="2">
  <advance width="1972"/>
  <unicode hex="02A4"/>
  <note>It's literally 2 glyphs touching each other</note>
  <outline>
    <contour>
      <point x="1327" y="318" type="line"/>
      <point x="1297" y="356" type="line"/>
      <point x="1766" y="1040" type="line"/>
      <point x="1796" y="1002" type="line"/>
    </contour>
    <contour>
      <point x="1832" y="-50" type="curve" smooth="yes"/>
      <point x="1832" y="-293"/>
      <point x="1645" y="-450"/>
      <point x="1381" y="-450" type="curve" smooth="yes"/>
      <point x="1120" y="-450"/>
      <point x="941" y="-297"/>
      <point x="936" y="-59" type="curve"/>
      <point x="982" y="-46" type="line"/>
      <point x="982" y="-279"/>
      <point x="1156" y="-408"/>
      <point x="1381" y="-408" type="curve" smooth="yes"/>
      <point x="1606" y="-408"/>
      <point x="1786" y="-283"/>
      <point x="1786" y="-50" type="curve" smooth="yes"/>
      <point x="1786" y="183"/>
      <point x="1567" y="316"/>
      <point x="1381" y="316" type="curve"/>
      <point x="1331" y="316"/>
      <point x="1297" y="316"/>
      <point x="1297" y="316" type="curve"/>
      <point x="1297" y="356" type="line"/>
      <point x="1297" y="356"/>
      <point x="1331" y="362"/>
      <point x="1381" y="362" type="curve"/>
      <point x="1597" y="362"/>
      <point x="1832" y="193"/>
    </contour>
    <contour>
      <point x="972" y="1040" type="line"/>
      <point x="1796" y="1040" type="line"/>
      <point x="1796" y="1002" type="line"/>
      <point x="1771" y="998" type="line"/>
      <point x="972" y="998" type="line"/>
    </contour>
    <contour>
      <point x="935" y="520" type="curve"/>
      <point x="935" y="856"/>
      <point x="735" y="1010"/>
      <point x="560" y="1010" type="curve" smooth="yes"/>
      <point x="385" y="1010"/>
      <point x="185" y="856"/>
      <point x="185" y="520" type="curve" smooth="yes"/>
      <point x="185" y="184"/>
      <point x="385" y="30"/>
      <point x="560" y="30" type="curve" smooth="yes"/>
      <point x="735" y="30"/>
      <point x="935" y="184"/>
    </contour>
    <contour>
      <point x="972" y="208" type="line"/>
      <point x="972" y="110"/>
      <point x="984" y="0"/>
      <point x="984" y="0" type="curve"/>
      <point x="939" y="0" type="line"/>
      <point x="939" y="0"/>
      <point x="927" y="110"/>
      <point x="927" y="260" type="curve"/>
      <point x="896" y="144"/>
      <point x="770" y="-10"/>
      <point x="560" y="-10" type="curve" smooth="yes"/>
      <point x="313" y="-10"/>
      <point x="140" y="208"/>
      <point x="140" y="520" type="curve" smooth="yes"/>
      <point x="140" y="832"/>
      <point x="313" y="1050"/>
      <point x="560" y="1050" type="curve" smooth="yes"/>
      <point x="760" y="1050"/>
      <point x="896" y="896"/>
      <point x="927" y="780" type="curve"/>
      <point x="927" y="1480" type="line"/>
      <point x="972" y="1480" type="line"/>
    </contour>
  </outline>
</glyph>
<glyph name="uni02A8" format="2">
  <advance width="1626"/>
  <unicode hex="02A8"/>
  <outline>
    <contour>
      <point x="1276" y="422" type="curve" smooth="yes"/>
      <point x="1396" y="422"/>
      <point x="1486" y="331"/>
      <point x="1486" y="211" type="curve" smooth="yes"/>
      <point x="1486" y="91"/>
      <point x="1395" y="0"/>
      <point x="1275" y="0" type="curve" smooth="yes"/>
      <point x="1103" y="0" type="line" smooth="yes"/>
      <point x="856" y="0"/>
      <point x="665" y="208"/>
      <point x="665" y="520" type="curve" smooth="yes"/>
      <point x="665" y="832"/>
      <point x="856" y="1050"/>
      <point x="1103" y="1050" type="curve" smooth="yes"/>
      <point x="1270" y="1050"/>
      <point x="1412" y="950"/>
      <point x="1486" y="788" type="curve"/>
      <point x="1447" y="766" type="line"/>
      <point x="1371" y="932"/>
      <point x="1223" y="1010"/>
      <point x="1103" y="1010" type="curve" smooth="yes"/>
      <point x="935" y="1010"/>
      <point x="710" y="856"/>
      <point x="710" y="520" type="curve" smooth="yes"/>
      <point x="710" y="184"/>
      <point x="935" y="40"/>
      <point x="1103" y="40" type="curve" smooth="yes"/>
      <point x="1275" y="40" type="line" smooth="yes"/>
      <point x="1375" y="40"/>
      <point x="1441" y="111"/>
      <point x="1441" y="211" type="curve" smooth="yes"/>
      <point x="1441" y="311"/>
      <point x="1375" y="382"/>
      <point x="1275" y="382" type="curve" smooth="yes"/>
      <point x="965" y="382"/>
      <point x="907" y="-10"/>
      <point x="557" y="-10" type="curve" smooth="yes"/>
      <point x="381" y="-10"/>
      <point x="314" y="100"/>
      <point x="314" y="300" type="curve" smooth="yes"/>
      <point x="314" y="1000" type="line"/>
      <point x="70" y="1000" type="line"/>
      <point x="70" y="1040" type="line"/>
      <point x="148" y="1040" type="line"/>
      <point x="298" y="1040"/>
      <point x="314" y="1056"/>
      <point x="314" y="1206" type="curve"/>
      <point x="314" y="1320" type="line"/>
      <point x="359" y="1320" type="line"/>
      <point x="359" y="1040" type="line"/>
      <point x="665" y="1040" type="line"/>
      <point x="665" y="1000" type="line"/>
      <point x="359" y="1000" type="line"/>
      <point x="359" y="300" type="line" smooth="yes"/>
      <point x="359" y="60"/>
      <point x="467" y="30"/>
      <point x="557" y="30" type="curve" smooth="yes"/>
      <point x="867" y="30"/>
      <point x="926" y="422"/>
    </contour>
  </outline>
</glyph>
<glyph name="uni02AB" format="2">
  <advance width="1169"/>
  <unicode hex="02AB"/>
  <outline>
    <contour>
      <point x="440" y="40" type="line"/>
      <point x="417" y="40" type="line" smooth="yes"/>
      <point x="364" y="40"/>
      <point x="225" y="40"/>
      <point x="225" y="230" type="curve" smooth="yes"/>
      <point x="225" y="440" type="line"/>
      <point x="225" y="578" type="line"/>
      <point x="225" y="1480" type="line"/>
      <point x="180" y="1480" type="line"/>
      <point x="180" y="578" type="line"/>
      <point x="180" y="440" type="line"/>
      <point x="180" y="230" type="line" smooth="yes"/>
      <point x="180" y="60"/>
      <point x="267" y="0"/>
      <point x="417" y="0" type="curve"/>
    </contour>
    <contour>
      <point x="417" y="1040" type="line"/>
      <point x="417" y="1000" type="line"/>
      <point x="1040" y="1000" type="line"/>
      <point x="1069" y="1008" type="line"/>
      <point x="1069" y="1040" type="line"/>
    </contour>
    <contour>
      <point x="1069" y="40" type="line"/>
      <point x="446" y="40" type="line"/>
      <point x="417" y="32" type="line"/>
      <point x="417" y="0" type="line"/>
      <point x="1069" y="0" type="line"/>
    </contour>
    <contour>
      <point x="469" y="40" type="line"/>
      <point x="1069" y="1008" type="line"/>
      <point x="1017" y="1000" type="line"/>
      <point x="417" y="32" type="line"/>
    </contour>
  </outline>
</glyph>
<glyph name="uni02AC" format="2">
  <advance width="1078"/>
  <unicode hex="02AC"/>
  <note>w size x0.625</note>
  <outline>
    <contour>
      <point x="561" y="650" type="line"/>
      <point x="731" y="56" type="line"/>
      <point x="901" y="650" type="line"/>
      <point x="938" y="650" type="line"/>
      <point x="752" y="0" type="line"/>
      <point x="710" y="0" type="line"/>
      <point x="538" y="600" type="line"/>
      <point x="368" y="0" type="line"/>
      <point x="326" y="0" type="line"/>
      <point x="140" y="650" type="line"/>
      <point x="177" y="650" type="line"/>
      <point x="347" y="56" type="line"/>
      <point x="517" y="650" type="line"/>
    </contour>
    <contour>
      <point x="561" y="1480" type="line"/>
      <point x="731" y="886" type="line"/>
      <point x="901" y="1480" type="line"/>
      <point x="938" y="1480" type="line"/>
      <point x="752" y="830" type="line"/>
      <point x="710" y="830" type="line"/>
      <point x="538" y="1430" type="line"/>
      <point x="368" y="830" type="line"/>
      <point x="326" y="830" type="line"/>
      <point x="140" y="1480" type="line"/>
      <point x="177" y="1480" type="line"/>
      <point x="347" y="886" type="line"/>
      <point x="517" y="1480" type="line"/>
    </contour>
  </outline>
</glyph>
<glyph name="uni02B5" format="2">
  <advance width="551"/>
  <unicode hex="02B5"/>
  <outline>
    <contour>
      <point x="323" y="811" type="line"/>
      <point x="323" y="702"/>
      <point x="412" y="613"/>
      <point x="524" y="613" type="curve" smooth="yes"/>
      <point x="534" y="613"/>
      <point x="541" y="614"/>
      <point x="551" y="615" type="curve"/>
      <point x="551" y="645" type="line"/>
      <point x="541" y="643"/>
      <point x="534" y="643"/>
      <point x="524" y="643" type="curve" smooth="yes"/>
      <point x="467" y="643"/>
      <point x="356" y="690"/>
      <point x="356" y="811" type="curve" smooth="yes"/>
      <point x="356" y="1413" type="line"/>
      <point x="323" y="1413" type="line"/>
      <point x="323" y="1085" type="line" smooth="yes"/>
      <point x="323" y="959"/>
      <point x="281" y="834"/>
      <point x="124" y="834" type="curve" smooth="yes"/>
      <point x="97" y="834"/>
      <point x="72" y="846"/>
      <point x="52" y="858" type="curve"/>
      <point x="42" y="831" type="line"/>
      <point x="63" y="815"/>
      <point x="92" y="804"/>
      <point x="118" y="804" type="curve" smooth="yes"/>
      <point x="252" y="804"/>
      <point x="302" y="871"/>
      <point x="323" y="935" type="curve"/>
    </contour>
  </outline>
</glyph>
<glyph name="uni02BA" format="2">
  <advance width="724"/>
  <unicode hex="02BA"/>
  <outline>
    <contour>
      <point x="406" y="1224" type="line"/>
      <point x="362" y="1224" type="line"/>
      <point x="548" y="1480" type="line"/>
      <point x="604" y="1480" type="line"/>
    </contour>
    <contour>
      <point x="164" y="1224" type="line"/>
      <point x="120" y="1224" type="line"/>
      <point x="306" y="1480" type="line"/>
      <point x="362" y="1480" type="line"/>
    </contour>
  </outline>
</glyph>
<glyph name="uni02BB" format="2">
  <advance width="403"/>
  <unicode hex="02BB"/>
  <outline>
    <contour>
      <point x="283" y="1190" type="curve" smooth="yes"/>
      <point x="283" y="1154"/>
      <point x="255" y="1126"/>
      <point x="219" y="1126" type="curve" smooth="yes"/>
      <point x="183" y="1126"/>
      <point x="155" y="1154"/>
      <point x="155" y="1190" type="curve" smooth="yes"/>
      <point x="155" y="1226"/>
      <point x="183" y="1254"/>
      <point x="219" y="1254" type="curve" smooth="yes"/>
      <point x="255" y="1254"/>
      <point x="283" y="1226"/>
    </contour>
    <contour>
      <point x="283" y="1448" type="line"/>
      <point x="233" y="1435"/>
      <point x="166" y="1374"/>
      <point x="166" y="1284" type="curve" smooth="yes"/>
      <point x="166" y="1204"/>
      <point x="219" y="1171"/>
      <point x="219" y="1171" type="curve"/>
      <point x="219" y="1126" type="line"/>
      <point x="157" y="1126"/>
      <point x="120" y="1204"/>
      <point x="120" y="1284" type="curve" smooth="yes"/>
      <point x="120" y="1394"/>
      <point x="203" y="1470"/>
      <point x="271" y="1490" type="curve"/>
    </contour>
  </outline>
</glyph>
<glyph name="uni02BC" format="2">
  <advance width="403"/>
  <unicode hex="02BC"/>
  <outline>
    <contour>
      <point x="120" y="1426" type="curve" smooth="yes"/>
      <point x="120" y="1462"/>
      <point x="148" y="1490"/>
      <point x="184" y="1490" type="curve" smooth="yes"/>
      <point x="220" y="1490"/>
      <point x="248" y="1462"/>
      <point x="248" y="1426" type="curve" smooth="yes"/>
      <point x="248" y="1390"/>
      <point x="220" y="1362"/>
      <point x="184" y="1362" type="curve" smooth="yes"/>
      <point x="148" y="1362"/>
      <point x="120" y="1390"/>
    </contour>
    <contour>
      <point x="120" y="1168" type="line"/>
      <point x="170" y="1181"/>
      <point x="237" y="1242"/>
      <point x="237" y="1332" type="curve" smooth="yes"/>
      <point x="237" y="1412"/>
      <point x="184" y="1445"/>
      <point x="184" y="1445" type="curve"/>
      <point x="184" y="1490" type="line"/>
      <point x="246" y="1490"/>
      <point x="283" y="1412"/>
      <point x="283" y="1332" type="curve" smooth="yes"/>
      <point x="283" y="1222"/>
      <point x="200" y="1146"/>
      <point x="132" y="1126" type="curve"/>
    </contour>
  </outline>
</glyph>
<glyph name="uni02BE" format="2">
  <advance width="427"/>
  <unicode hex="02BE"/>
  <outline>
    <contour>
      <point x="120" y="1200" type="line"/>
      <point x="202" y="1200"/>
      <point x="262" y="1265"/>
      <point x="262" y="1347" type="curve" smooth="yes"/>
      <point x="262" y="1429"/>
      <point x="202" y="1494"/>
      <point x="120" y="1494" type="curve"/>
      <point x="120" y="1534" type="line"/>
      <point x="224" y="1534"/>
      <point x="307" y="1451"/>
      <point x="307" y="1347" type="curve" smooth="yes"/>
      <point x="307" y="1243"/>
      <point x="224" y="1160"/>
      <point x="120" y="1160" type="curve"/>
    </contour>
  </outline>
</glyph>
<glyph name="uni02D1" format="2">
  <advance width="430"/>
  <unicode hex="02D1"/>
  <outline>
    <contour>
      <point x="215" y="855" type="line"/>
      <point x="140" y="985" type="line"/>
      <point x="290" y="985" type="line"/>
    </contour>
  </outline>
</glyph>
<glyph name="breve" format="2">
  <advance width="732"/>
  <unicode hex="02D8"/>
  <outline>
    <contour>
      <point x="366" y="1224" type="curve" smooth="yes"/>
      <point x="234" y="1224"/>
      <point x="120" y="1340"/>
      <point x="120" y="1480" type="curve"/>
      <point x="165" y="1480" type="line"/>
      <point x="165" y="1354"/>
      <point x="256" y="1264"/>
      <point x="366" y="1264" type="curve" smooth="yes"/>
      <point x="476" y="1264"/>
      <point x="567" y="1354"/>
      <point x="567" y="1480" type="curve"/>
      <point x="612" y="1480" type="line"/>
      <point x="612" y="1340"/>
      <point x="498" y="1224"/>
    </contour>
  </outline>
</glyph>
<glyph name="ring" format="2">
  <advance width="614"/>
  <unicode hex="02DA"/>
  <outline>
    <contour>
      <point x="120" y="1347" type="curve" smooth="yes"/>
      <point x="120" y="1451"/>
      <point x="203" y="1534"/>
      <point x="307" y="1534" type="curve" smooth="yes"/>
      <point x="411" y="1534"/>
      <point x="494" y="1451"/>
      <point x="494" y="1347" type="curve" smooth="yes"/>
      <point x="494" y="1243"/>
      <point x="411" y="1160"/>
      <point x="307" y="1160" type="curve" smooth="yes"/>
      <point x="203" y="1160"/>
      <point x="120" y="1243"/>
    </contour>
    <contour>
      <point x="165" y="1347" type="curve" smooth="yes"/>
      <point x="165" y="1265"/>
      <point x="225" y="1200"/>
      <point x="307" y="1200" type="curve" smooth="yes"/>
      <point x="389" y="1200"/>
      <point x="449" y="1265"/>
      <point x="449" y="1347" type="curve" smooth="yes"/>
      <point x="449" y="1429"/>
      <point x="389" y="1494"/>
      <point x="307" y="1494" type="curve" smooth="yes"/>
      <point x="225" y="1494"/>
      <point x="165" y="1429"/>
    </contour>
  </outline>
</glyph>
<glyph name="uni02E3" format="2">
  <advance width="584"/>
  <unicode hex="02E3"/>
  <outline>
    <contour>
      <point x="269" y="1112" type="line"/>
      <point x="72" y="1413" type="line"/>
      <point x="109" y="1413" type="line"/>
      <point x="292" y="1137" type="line"/>
      <point x="475" y="1413" type="line"/>
      <point x="512" y="1413" type="line"/>
      <point x="317" y="1112" type="line"/>
      <point x="512" y="810" type="line"/>
      <point x="475" y="810" type="line"/>
      <point x="292" y="1087" type="line"/>
      <point x="109" y="810" type="line"/>
      <point x="72" y="810" type="line"/>
    </contour>
  </outline>
</glyph>
<glyph name="uni0324" format="2">
  <advance width="0"/>
  <unicode hex="0324"/>
  <anchor x="642" y="-0" name="_mkmk_bottom_center"/>
  <anchor x="642" y="-336" name="mkmk_bottom_center"/>
  <anchor x="642" y="0" name="_bottom_center"/>
  <outline>
    <contour>
      <point x="737" y="-386" type="curve" smooth="yes"/>
      <point x="737" y="-350"/>
      <point x="765" y="-322"/>
      <point x="801" y="-322" type="curve" smooth="yes"/>
      <point x="837" y="-322"/>
      <point x="865" y="-350"/>
      <point x="865" y="-386" type="curve" smooth="yes"/>
      <point x="865" y="-422"/>
      <point x="837" y="-450"/>
      <point x="801" y="-450" type="curve" smooth="yes"/>
      <point x="765" y="-450"/>
      <point x="737" y="-422"/>
    </contour>
    <contour>
      <point x="417" y="-386" type="curve" smooth="yes"/>
      <point x="417" y="-350"/>
      <point x="445" y="-322"/>
      <point x="481" y="-322" type="curve" smooth="yes"/>
      <point x="517" y="-322"/>
      <point x="545" y="-350"/>
      <point x="545" y="-386" type="curve" smooth="yes"/>
      <point x="545" y="-422"/>
      <point x="517" y="-450"/>
      <point x="481" y="-450" type="curve" smooth="yes"/>
      <point x="445" y="-450"/>
      <point x="417" y="-422"/>
    </contour>
  </outline>
</glyph>
<glyph name="uni0325" format="2">
  <advance width="0"/>
  <unicode hex="0325"/>
  <anchor x="642" y="-0" name="_mkmk_bottom_center"/>
  <anchor x="642" y="-440" name="mkmk_bottom_center"/>
  <anchor x="642" y="0" name="_bottom_center"/>
  <outline>
    <contour>
      <point x="455" y="-307" type="curve" smooth="yes"/>
      <point x="455" y="-203"/>
      <point x="538" y="-120"/>
      <point x="642" y="-120" type="curve" smooth="yes"/>
      <point x="746" y="-120"/>
      <point x="829" y="-203"/>
      <point x="829" y="-307" type="curve" smooth="yes"/>
      <point x="829" y="-411"/>
      <point x="746" y="-494"/>
      <point x="642" y="-494" type="curve" smooth="yes"/>
      <point x="538" y="-494"/>
      <point x="455" y="-411"/>
    </contour>
    <contour>
      <point x="500" y="-307" type="curve" smooth="yes"/>
      <point x="500" y="-389"/>
      <point x="560" y="-454"/>
      <point x="642" y="-454" type="curve" smooth="yes"/>
      <point x="724" y="-454"/>
      <point x="784" y="-389"/>
      <point x="784" y="-307" type="curve" smooth="yes"/>
      <point x="784" y="-225"/>
      <point x="724" y="-160"/>
      <point x="642" y="-160" type="curve" smooth="yes"/>
      <point x="560" y="-160"/>
      <point x="500" y="-225"/>
    </contour>
  </outline>
</glyph>
<glyph name="uni0329" format="2">
  <advance width="0"/>
  <unicode hex="0329"/>
  <anchor x="642" y="0" name="_bottom_center"/>
  <anchor x="642" y="-201" name="mkmk_bottom_center"/>
  <anchor x="642" y="-0" name="_mkmk_bottom_center"/>
  <outline>
    <contour>
      <point x="664" y="-521" type="line"/>
      <point x="620" y="-521" type="line"/>
      <point x="620" y="-265" type="line"/>
      <point x="664" y="-265" type="line"/>
    </contour>
  </outline>
</glyph>
<glyph name="uni0330" format="2">
  <advance width="0"/>
  <unicode hex="0330"/>
  <anchor x="642" y="-0" name="_mkmk_bottom_center"/>
  <anchor x="642" y="-336" name="mkmk_bottom_center"/>
  <anchor x="642" y="0" name="_bottom_center"/>
  <outline>
    <contour>
      <point x="381" y="-443" type="curve"/>
      <point x="341" y="-432" type="line"/>
      <point x="355" y="-296"/>
      <point x="415" y="-194"/>
      <point x="510" y="-194" type="curve" smooth="yes"/>
      <point x="650" y="-194"/>
      <point x="658" y="-410"/>
      <point x="766" y="-410" type="curve" smooth="yes"/>
      <point x="818" y="-410"/>
      <point x="885" y="-354"/>
      <point x="895" y="-204" type="curve"/>
      <point x="935" y="-215" type="line"/>
      <point x="921" y="-351"/>
      <point x="861" y="-450"/>
      <point x="766" y="-450" type="curve" smooth="yes"/>
      <point x="626" y="-450"/>
      <point x="618" y="-234"/>
      <point x="510" y="-234" type="curve" smooth="yes"/>
      <point x="458" y="-234"/>
      <point x="391" y="-293"/>
    </contour>
  </outline>
</glyph>
<glyph name="uni0332" format="2">
  <advance width="0"/>
  <unicode hex="0332"/>
  <anchor x="642" y="0" name="_mkmk_bottom_center"/>
  <anchor x="642" y="-201" name="mkmk_bottom_center"/>
  <anchor x="642" y="0" name="_bottom_center"/>
  <outline>
    <contour>
      <point x="240" y="-305" type="line"/>
      <point x="240" y="-265" type="line"/>
      <point x="1044" y="-265" type="line"/>
      <point x="1044" y="-305" type="line"/>
    </contour>
  </outline>
</glyph>
<glyph name="uni035F" format="2">
  <advance width="0"/>
  <unicode hex="035F"/>
  <anchor x="642" y="-0" name="_mkmk_bottom_center"/>
  <anchor x="642" y="-201" name="mkmk_bottom_center"/>
  <anchor x="642" y="0" name="_bottom_center"/>
  <outline>
    <contour>
      <point x="642" y="-274" type="line"/>
      <point x="106" y="-274" type="line"/>
      <point x="106" y="-234" type="line"/>
      <point x="642" y="-234" type="line"/>
      <point x="1178" y="-234" type="line"/>
      <point x="1178" y="-274" type="line"/>
    </contour>
  </outline>
</glyph>
<glyph name="uni037B" format="2">
  <advance width="1101"/>
  <unicode hex="037B"/>
  <outline>
    <contour>
      <point x="916" y="520" type="curve" smooth="yes"/>
      <point x="916" y="184"/>
      <point x="691" y="30"/>
      <point x="523" y="30" type="curve" smooth="yes"/>
      <point x="403" y="30"/>
      <point x="255" y="108"/>
      <point x="179" y="274" type="curve"/>
      <point x="140" y="252" type="line"/>
      <point x="214" y="90"/>
      <point x="356" y="-10"/>
      <point x="523" y="-10" type="curve" smooth="yes"/>
      <point x="770" y="-10"/>
      <point x="961" y="208"/>
      <point x="961" y="520" type="curve" smooth="yes"/>
      <point x="961" y="832"/>
      <point x="770" y="1050"/>
      <point x="523" y="1050" type="curve" smooth="yes"/>
      <point x="356" y="1050"/>
      <point x="214" y="950"/>
      <point x="140" y="788" type="curve"/>
      <point x="179" y="766" type="line"/>
      <point x="255" y="932"/>
      <point x="403" y="1010"/>
      <point x="523" y="1010" type="curve" smooth="yes"/>
      <point x="691" y="1010"/>
      <point x="916" y="856"/>
    </contour>
  </outline>
</glyph>
<glyph name="Xi" format="2">
  <advance width="1176"/>
  <unicode hex="039E"/>
  <anchor x="588" y="1380" name="top_center"/>
  <anchor x="588" y="0" name="bottom_center"/>
  <outline>
    <contour>
      <point x="180" y="1480" type="line"/>
      <point x="996" y="1480" type="line"/>
      <point x="996" y="1438" type="line"/>
      <point x="180" y="1438" type="line"/>
    </contour>
    <contour>
      <point x="263" y="761" type="line"/>
      <point x="913" y="761" type="line"/>
      <point x="913" y="719" type="line"/>
      <point x="263" y="719" type="line"/>
    </contour>
    <contour>
      <point x="180" y="42" type="line"/>
      <point x="996" y="42" type="line"/>
      <point x="996" y="0" type="line"/>
      <point x="180" y="0" type="line"/>
    </contour>
  </outline>
</glyph>
<glyph name="beta" format="2">
  <advance width="1186"/>
  <unicode hex="03B2"/>
  <anchor x="203" y="-360" name="bottom_center"/>
  <anchor x="573" y="1380" name="top_center"/>
  <outline>
    <contour>
      <point x="629" y="-10" type="curve" smooth="yes"/>
      <point x="892" y="-10"/>
      <point x="1046" y="136"/>
      <point x="1046" y="391" type="curve" smooth="yes"/>
      <point x="1046" y="646"/>
      <point x="846" y="792"/>
      <point x="582" y="792" type="curve"/>
      <point x="582" y="752" type="line"/>
      <point x="758" y="752"/>
      <point x="1001" y="657"/>
      <point x="1001" y="391" type="curve" smooth="yes"/>
      <point x="1001" y="125"/>
      <point x="805" y="30"/>
      <point x="629" y="30" type="curve" smooth="yes"/>
      <point x="431" y="30"/>
      <point x="222" y="215"/>
      <point x="222" y="215" type="curve"/>
      <point x="197" y="174" type="line"/>
      <point x="197" y="174"/>
      <point x="385" y="-10"/>
    </contour>
    <contour>
      <point x="494" y="792" type="line"/>
      <point x="494" y="752" type="line"/>
      <point x="582" y="752" type="line"/>
      <point x="582" y="792" type="line"/>
    </contour>
    <contour>
      <point x="225" y="1101" type="curve" smooth="yes"/>
      <point x="225" y="1341"/>
      <point x="393" y="1450"/>
      <point x="573" y="1450" type="curve" smooth="yes"/>
      <point x="753" y="1450"/>
      <point x="922" y="1341"/>
      <point x="922" y="1101" type="curve" smooth="yes"/>
      <point x="922" y="861"/>
      <point x="714" y="792"/>
      <point x="582" y="792" type="curve"/>
      <point x="601" y="759" type="line"/>
      <point x="783" y="759"/>
      <point x="967" y="866"/>
      <point x="967" y="1101" type="curve" smooth="yes"/>
      <point x="967" y="1356"/>
      <point x="797" y="1490"/>
      <point x="573" y="1490" type="curve" smooth="yes"/>
      <point x="349" y="1490"/>
      <point x="180" y="1356"/>
      <point x="180" y="1101" type="curve" smooth="yes"/>
      <point x="180" y="846"/>
      <point x="180" y="-440"/>
      <point x="180" y="-440" type="curve"/>
      <point x="225" y="-440" type="line"/>
      <point x="225" y="-440"/>
      <point x="225" y="943"/>
    </contour>
  </outline>
</glyph>
<glyph name="theta" format="2">
  <advance width="1156"/>
  <unicode hex="03B8"/>
  <anchor x="578" y="1380" name="top_center"/>
  <anchor x="578" y="0" name="bottom_center"/>
  <outline>
    <contour>
      <point x="162" y="760" type="line"/>
      <point x="1002" y="760" type="line"/>
      <point x="1002" y="720" type="line"/>
      <point x="162" y="720" type="line"/>
    </contour>
    <contour>
      <point x="185" y="740" type="curve" smooth="yes"/>
      <point x="185" y="260"/>
      <point x="370" y="30"/>
      <point x="578" y="30" type="curve" smooth="yes"/>
      <point x="786" y="30"/>
      <point x="971" y="260"/>
      <point x="971" y="740" type="curve" smooth="yes"/>
      <point x="971" y="1220"/>
      <point x="786" y="1450"/>
      <point x="578" y="1450" type="curve" smooth="yes"/>
      <point x="370" y="1450"/>
      <point x="185" y="1220"/>
    </contour>
    <contour>
      <point x="140" y="740" type="curve" smooth="yes"/>
      <point x="140" y="1240"/>
      <point x="331" y="1490"/>
      <point x="578" y="1490" type="curve" smooth="yes"/>
      <point x="825" y="1490"/>
      <point x="1016" y="1240"/>
      <point x="1016" y="740" type="curve" smooth="yes"/>
      <point x="1016" y="240"/>
      <point x="825" y="-10"/>
      <point x="578" y="-10" type="curve" smooth="yes"/>
      <point x="331" y="-10"/>
      <point x="140" y="240"/>
    </contour>
  </outline>
</glyph>
<glyph name="iota" format="2">
  <advance width="540"/>
  <unicode hex="03B9"/>
  <anchor x="203" y="1040" name="greek_v"/>
  <anchor x="203" y="1040" name="greek_kt"/>
  <anchor x="203" y="1040" name="greek_k"/>
  <anchor x="203" y="1040" name="greek_t"/>
  <anchor x="203" y="1040" name="top_center"/>
  <anchor x="312" y="0" name="bottom_center"/>
  <outline>
    <contour>
      <point x="489" y="56" type="curve"/>
      <point x="500" y="14" type="line"/>
      <point x="475" y="-3"/>
      <point x="445" y="-10"/>
      <point x="417" y="-10" type="curve" smooth="yes"/>
      <point x="267" y="-10"/>
      <point x="180" y="60"/>
      <point x="180" y="230" type="curve" smooth="yes"/>
      <point x="180" y="440" type="line"/>
      <point x="180" y="578" type="line"/>
      <point x="180" y="1040" type="line"/>
      <point x="225" y="1040" type="line"/>
      <point x="225" y="578" type="line"/>
      <point x="225" y="440" type="line"/>
      <point x="225" y="230" type="line" smooth="yes"/>
      <point x="225" y="40"/>
      <point x="364" y="30"/>
      <point x="417" y="30" type="curve" smooth="yes"/>
      <point x="431" y="30"/>
      <point x="458" y="36"/>
    </contour>
  </outline>
</glyph>
<glyph name="sigma1" format="2">
  <advance width="1101"/>
  <unicode hex="03C2"/>
  <anchor x="578" y="1040" name="top_center"/>
  <anchor x="578" y="0" name="bottom_center"/>
  <outline>
    <contour>
      <point x="578" y="40" type="line" smooth="yes"/>
      <point x="410" y="40"/>
      <point x="185" y="184"/>
      <point x="185" y="520" type="curve" smooth="yes"/>
      <point x="185" y="856"/>
      <point x="410" y="1010"/>
      <point x="578" y="1010" type="curve" smooth="yes"/>
      <point x="698" y="1010"/>
      <point x="846" y="932"/>
      <point x="922" y="766" type="curve"/>
      <point x="961" y="788" type="line"/>
      <point x="887" y="950"/>
      <point x="745" y="1050"/>
      <point x="578" y="1050" type="curve" smooth="yes"/>
      <point x="331" y="1050"/>
      <point x="140" y="832"/>
      <point x="140" y="520" type="curve" smooth="yes"/>
      <point x="140" y="208"/>
      <point x="312" y="0"/>
      <point x="578" y="0" type="curve" smooth="yes"/>
      <point x="764" y="0" type="line"/>
      <point x="831" y="0"/>
      <point x="873" y="-42"/>
      <point x="873" y="-102" type="curve" smooth="yes"/>
      <point x="873" y="-138"/>
      <point x="866" y="-158"/>
      <point x="845" y="-180" type="curve"/>
      <point x="886" y="-191" type="line"/>
      <point x="902" y="-174"/>
      <point x="918" y="-144"/>
      <point x="918" y="-102" type="curve" smooth="yes"/>
      <point x="918" y="-42"/>
      <point x="871" y="40"/>
      <point x="774" y="40" type="curve"/>
    </contour>
  </outline>
</glyph>
<glyph name="psi" format="2">
  <advance width="1286"/>
  <unicode hex="03C8"/>
  <anchor x="662" y="1380" name="top_center"/>
  <anchor x="662" y="-360" name="bottom_center"/>
  <outline>
    <contour>
      <point x="663" y="-10" type="curve" smooth="yes"/>
      <point x="386" y="-10"/>
      <point x="180" y="200"/>
      <point x="180" y="600" type="curve"/>
      <point x="180" y="1040" type="line"/>
      <point x="225" y="1040" type="line"/>
      <point x="225" y="600" type="line"/>
      <point x="225" y="270"/>
      <point x="413" y="32"/>
      <point x="663" y="32" type="curve" smooth="yes"/>
      <point x="870" y="32"/>
      <point x="1101" y="131"/>
      <point x="1101" y="468" type="curve" smooth="yes"/>
      <point x="1101" y="738"/>
      <point x="1006" y="920"/>
      <point x="924" y="1029" type="curve"/>
      <point x="962" y="1051" type="line"/>
      <point x="1036" y="960"/>
      <point x="1146" y="768"/>
      <point x="1146" y="468" type="curve" smooth="yes"/>
      <point x="1146" y="128"/>
      <point x="940" y="-10"/>
    </contour>
    <contour>
      <point x="639" y="-440" type="line"/>
      <point x="639" y="1480" type="line"/>
      <point x="685" y="1480" type="line"/>
      <point x="685" y="-440" type="line"/>
    </contour>
  </outline>
</glyph>
<glyph name="omega" format="2">
  <advance width="1532"/>
  <unicode hex="03C9"/>
  <anchor x="766" y="1040" name="greek_v"/>
  <anchor x="766" y="1040" name="greek_kt"/>
  <anchor x="766" y="1040" name="greek_k"/>
  <anchor x="766" y="1040" name="greek_t"/>
  <anchor x="766" y="0" name="bottom_center"/>
  <anchor x="766" y="1040" name="top_center"/>
  <anchor x="766" y="-90" name="bottom_ypogegrammeni"/>
  <outline>
    <contour>
      <point x="140" y="468" type="curve" smooth="yes"/>
      <point x="140" y="148"/>
      <point x="264" y="-10"/>
      <point x="474" y="-10" type="curve"/>
      <point x="694" y="-10"/>
      <point x="783" y="200"/>
      <point x="783" y="520" type="curve"/>
      <point x="741" y="520" type="line"/>
      <point x="741" y="301"/>
      <point x="694" y="30"/>
      <point x="474" y="30" type="curve" smooth="yes"/>
      <point x="234" y="30"/>
      <point x="184" y="249"/>
      <point x="184" y="468" type="curve" smooth="yes"/>
      <point x="184" y="778"/>
      <point x="317" y="956"/>
      <point x="389" y="1025" type="curve"/>
      <point x="355" y="1051" type="line"/>
      <point x="291" y="980"/>
      <point x="140" y="818"/>
    </contour>
    <contour>
      <point x="1392" y="468" type="curve" smooth="yes"/>
      <point x="1392" y="818"/>
      <point x="1241" y="980"/>
      <point x="1177" y="1051" type="curve"/>
      <point x="1143" y="1025" type="line"/>
      <point x="1215" y="956"/>
      <point x="1348" y="778"/>
      <point x="1348" y="468" type="curve" smooth="yes"/>
      <point x="1348" y="249"/>
      <point x="1298" y="30"/>
      <point x="1058" y="30" type="curve" smooth="yes"/>
      <point x="838" y="30"/>
      <point x="791" y="301"/>
      <point x="791" y="520" type="curve"/>
      <point x="749" y="520" type="line"/>
      <point x="749" y="200"/>
      <point x="838" y="-10"/>
      <point x="1058" y="-10" type="curve"/>
      <point x="1268" y="-10"/>
      <point x="1392" y="148"/>
    </contour>
  </outline>
</glyph>
<glyph name="uni03D0" format="2">
  <advance width="1135"/>
  <unicode hex="03D0"/>
  <anchor x="578" y="0" name="bottom_center"/>
  <anchor x="558" y="1380" name="top_center"/>
  <outline>
    <contour>
      <point x="578" y="30" type="curve" smooth="yes"/>
      <point x="754" y="30"/>
      <point x="950" y="125"/>
      <point x="950" y="391" type="curve" smooth="yes"/>
      <point x="950" y="602"/>
      <point x="798" y="726"/>
      <point x="647" y="759" type="curve"/>
      <point x="700" y="790" type="line"/>
      <point x="876" y="740"/>
      <point x="995" y="588"/>
      <point x="995" y="391" type="curve" smooth="yes"/>
      <point x="995" y="136"/>
      <point x="841" y="-10"/>
      <point x="578" y="-10" type="curve" smooth="yes"/>
      <point x="331" y="-10"/>
      <point x="140" y="240"/>
      <point x="140" y="740" type="curve" smooth="yes"/>
      <point x="140" y="1240"/>
      <point x="311" y="1490"/>
      <point x="558" y="1490" type="curve" smooth="yes"/>
      <point x="782" y="1490"/>
      <point x="916" y="1356"/>
      <point x="916" y="1101" type="curve" smooth="yes"/>
      <point x="916" y="866"/>
      <point x="748" y="712"/>
      <point x="386" y="712" type="curve"/>
      <point x="386" y="752" type="line"/>
      <point x="678" y="752"/>
      <point x="871" y="861"/>
      <point x="871" y="1101" type="curve" smooth="yes"/>
      <point x="871" y="1341"/>
      <point x="738" y="1450"/>
      <point x="558" y="1450" type="curve" smooth="yes"/>
      <point x="350" y="1450"/>
      <point x="185" y="1220"/>
      <point x="185" y="740" type="curve" smooth="yes"/>
      <point x="185" y="260"/>
      <point x="370" y="30"/>
    </contour>
    <contour>
      <point x="163" y="712" type="line"/>
      <point x="163" y="752" type="line"/>
      <point x="386" y="752" type="line"/>
      <point x="386" y="712" type="line"/>
    </contour>
  </outline>
</glyph>
<glyph name="uni03DC" format="2">
  <advance width="1176"/>
  <unicode hex="03DC"/>
  <outline>
    <contour>
      <point x="226" y="168" type="line"/>
      <point x="226" y="0" type="line"/>
      <point x="180" y="0" type="line"/>
      <point x="180" y="1480" type="line"/>
      <point x="996" y="1480" type="line"/>
      <point x="996" y="1438" type="line"/>
      <point x="226" y="1438" type="line"/>
      <point x="226" y="761" type="line"/>
      <point x="913" y="761" type="line"/>
      <point x="913" y="719" type="line"/>
      <point x="226" y="719" type="line"/>
    </contour>
  </outline>
</glyph>
<glyph name="uni03DD" format="2">
  <advance width="871"/>
  <unicode hex="03DD"/>
  <outline>
    <contour>
      <point x="787" y="1000" type="line"/>
      <point x="458" y="1000" type="line"/>
      <point x="458" y="1040" type="line"/>
      <point x="787" y="1040" type="line"/>
    </contour>
    <contour>
      <point x="458" y="1180" type="curve" smooth="yes"/>
      <point x="458" y="1040" type="line"/>
      <point x="458" y="0" type="line"/>
      <point x="458" y="-140" type="line" smooth="yes"/>
      <point x="458" y="-340"/>
      <point x="391" y="-450"/>
      <point x="215" y="-450" type="curve" smooth="yes"/>
      <point x="166" y="-450"/>
      <point x="110" y="-436"/>
      <point x="70" y="-418" type="curve"/>
      <point x="84" y="-375" type="line"/>
      <point x="123" y="-403"/>
      <point x="177" y="-410"/>
      <point x="215" y="-410" type="curve" smooth="yes"/>
      <point x="305" y="-410"/>
      <point x="413" y="-380"/>
      <point x="413" y="-140" type="curve" smooth="yes"/>
      <point x="413" y="0" type="line"/>
      <point x="413" y="1040" type="line"/>
      <point x="413" y="1180" type="line" smooth="yes"/>
      <point x="413" y="1380"/>
      <point x="480" y="1490"/>
      <point x="656" y="1490" type="curve" smooth="yes"/>
      <point x="705" y="1490"/>
      <point x="761" y="1476"/>
      <point x="801" y="1458" type="curve"/>
      <point x="787" y="1415" type="line"/>
      <point x="748" y="1443"/>
      <point x="694" y="1450"/>
      <point x="656" y="1450" type="curve" smooth="yes"/>
      <point x="566" y="1450"/>
      <point x="458" y="1420"/>
    </contour>
  </outline>
</glyph>
<glyph name="uni03E0" format="2">
  <advance width="1436"/>
  <unicode hex="03E0"/>
  <outline>
    <contour>
      <point x="1163" y="1190" type="line"/>
      <point x="975" y="1190"/>
      <point x="860" y="1082"/>
      <point x="860" y="762" type="curve"/>
      <point x="860" y="440" type="line"/>
      <point x="901" y="440" type="line"/>
      <point x="901" y="752" type="line" smooth="yes"/>
      <point x="901" y="1071"/>
      <point x="1013" y="1148"/>
      <point x="1171" y="1148" type="curve"/>
    </contour>
    <contour>
      <point x="514" y="1447" type="line"/>
      <point x="514" y="740" type="line"/>
      <point x="555" y="740" type="line"/>
      <point x="555" y="1447" type="line"/>
    </contour>
    <contour>
      <point x="891" y="0" type="curve"/>
      <point x="937" y="-26" type="line"/>
      <point x="1106" y="102"/>
      <point x="1296" y="460"/>
      <point x="1296" y="740" type="curve" smooth="yes"/>
      <point x="1296" y="1179"/>
      <point x="1027" y="1490"/>
      <point x="679" y="1490" type="curve" smooth="yes"/>
      <point x="444" y="1490"/>
      <point x="244" y="1348"/>
      <point x="140" y="1120" type="curve"/>
      <point x="180" y="1097" type="line"/>
      <point x="287" y="1332"/>
      <point x="496" y="1448"/>
      <point x="679" y="1448" type="curve" smooth="yes"/>
      <point x="939" y="1448"/>
      <point x="1250" y="1215"/>
      <point x="1250" y="740" type="curve" smooth="yes"/>
      <point x="1250" y="442"/>
      <point x="1042" y="119"/>
    </contour>
  </outline>
</glyph>
<glyph name="uni03E2" format="2">
  <advance width="1698"/>
  <unicode hex="03E2"/>
  <outline>
    <contour>
      <point x="1518" y="0" type="curve"/>
      <point x="1518" y="468" type="line"/>
      <point x="1472" y="268" type="line"/>
      <point x="1472" y="0" type="line"/>
      <point x="1472" y="-290"/>
      <point x="1314" y="-398"/>
      <point x="1074" y="-398" type="curve" smooth="yes"/>
      <point x="180" y="-398" type="line"/>
      <point x="180" y="-440" type="line"/>
      <point x="1074" y="-440" type="line" smooth="yes"/>
      <point x="1355" y="-440"/>
      <point x="1518" y="-312"/>
    </contour>
    <contour>
      <point x="872" y="1480" type="line"/>
      <point x="826" y="1480" type="line"/>
      <point x="826" y="468" type="line" smooth="yes"/>
      <point x="826" y="249"/>
      <point x="746" y="32"/>
      <point x="526" y="32" type="curve" smooth="yes"/>
      <point x="276" y="32"/>
      <point x="226" y="249"/>
      <point x="226" y="468" type="curve" smooth="yes"/>
      <point x="226" y="1480" type="line"/>
      <point x="180" y="1480" type="line"/>
      <point x="180" y="468" type="line" smooth="yes"/>
      <point x="180" y="148"/>
      <point x="288" y="-10"/>
      <point x="516" y="-10" type="curve" smooth="yes"/>
      <point x="688" y="-10"/>
      <point x="803" y="79"/>
      <point x="849" y="260" type="curve"/>
      <point x="895" y="79"/>
      <point x="1010" y="-10"/>
      <point x="1182" y="-10" type="curve" smooth="yes"/>
      <point x="1410" y="-10"/>
      <point x="1518" y="148"/>
      <point x="1518" y="468" type="curve" smooth="yes"/>
      <point x="1518" y="1480" type="line"/>
      <point x="1472" y="1480" type="line"/>
      <point x="1472" y="468" type="line" smooth="yes"/>
      <point x="1472" y="249"/>
      <point x="1422" y="32"/>
      <point x="1172" y="32" type="curve" smooth="yes"/>
      <point x="952" y="32"/>
      <point x="872" y="249"/>
      <point x="872" y="468" type="curve" smooth="yes"/>
    </contour>
  </outline>
</glyph>
<glyph name="uni03EC" format="2">
  <advance width="1284"/>
  <unicode hex="03EC"/>
  <outline>
    <contour>
      <point x="593" y="1480" type="curve"/>
      <point x="735" y="1480"/>
      <point x="775" y="1412"/>
      <point x="893" y="1412" type="curve" smooth="yes"/>
      <point x="977" y="1412"/>
      <point x="1024" y="1422"/>
      <point x="1076" y="1480" type="curve"/>
      <point x="1097" y="1440" type="line"/>
      <point x="1055" y="1400"/>
      <point x="986" y="1372"/>
      <point x="893" y="1372" type="curve" smooth="yes"/>
      <point x="761" y="1372"/>
      <point x="711" y="1440"/>
      <point x="593" y="1440" type="curve"/>
      <point x="346" y="1440"/>
      <point x="186" y="1176"/>
      <point x="186" y="696" type="curve" smooth="yes"/>
      <point x="186" y="336"/>
      <point x="294" y="208"/>
      <point x="294" y="208" type="curve"/>
      <point x="262" y="184" type="line"/>
      <point x="262" y="184"/>
      <point x="140" y="366"/>
      <point x="140" y="696" type="curve" smooth="yes"/>
      <point x="140" y="1216"/>
      <point x="316" y="1480"/>
    </contour>
    <contour>
      <point x="220" y="486" type="curve" smooth="yes"/>
      <point x="220" y="232"/>
      <point x="369" y="32"/>
      <point x="653" y="32" type="curve" smooth="yes"/>
      <point x="937" y="32"/>
      <point x="1098" y="232"/>
      <point x="1098" y="486" type="curve" smooth="yes"/>
      <point x="1098" y="740"/>
      <point x="937" y="940"/>
      <point x="653" y="940" type="curve" smooth="yes"/>
      <point x="409" y="940"/>
      <point x="220" y="740"/>
    </contour>
    <contour>
      <point x="182" y="486" type="curve"/>
      <point x="190" y="486" type="line"/>
      <point x="190" y="769"/>
      <point x="345" y="982"/>
      <point x="653" y="982" type="curve" smooth="yes"/>
      <point x="961" y="982"/>
      <point x="1144" y="777"/>
      <point x="1144" y="486" type="curve" smooth="yes"/>
      <point x="1144" y="195"/>
      <point x="961" y="-10"/>
      <point x="653" y="-10" type="curve" smooth="yes"/>
      <point x="345" y="-10"/>
      <point x="182" y="195"/>
    </contour>
  </outline>
</glyph>
<glyph name="uni03EE" format="2">
  <advance width="1270"/>
  <unicode hex="03EE"/>
  <outline>
    <contour>
      <point x="658" y="1480" type="line"/>
      <point x="658" y="1040" type="line"/>
      <point x="1150" y="1040" type="line"/>
      <point x="1150" y="716" type="line"/>
      <point x="1104" y="716" type="line"/>
      <point x="1104" y="998" type="line"/>
      <point x="658" y="998" type="line"/>
      <point x="658" y="-440" type="line"/>
      <point x="612" y="-440" type="line"/>
      <point x="612" y="998" type="line"/>
      <point x="166" y="998" type="line"/>
      <point x="166" y="716" type="line"/>
      <point x="120" y="716" type="line"/>
      <point x="120" y="1040" type="line"/>
      <point x="612" y="1040" type="line"/>
      <point x="612" y="1480" type="line"/>
    </contour>
  </outline>
</glyph>
<glyph name="uni03EF" format="2">
  <advance width="998"/>
  <unicode hex="03EF"/>
  <outline>
    <contour>
      <point x="521" y="1480" type="line"/>
      <point x="521" y="1040" type="line"/>
      <point x="878" y="1040" type="line"/>
      <point x="878" y="720" type="line"/>
      <point x="833" y="720" type="line"/>
      <point x="833" y="1000" type="line"/>
      <point x="521" y="1000" type="line"/>
      <point x="521" y="-440" type="line"/>
      <point x="477" y="-440" type="line"/>
      <point x="477" y="1000" type="line"/>
      <point x="165" y="1000" type="line"/>
      <point x="165" y="720" type="line"/>
      <point x="120" y="720" type="line"/>
      <point x="120" y="1040" type="line"/>
      <point x="477" y="1040" type="line"/>
      <point x="477" y="1480" type="line"/>
    </contour>
  </outline>
</glyph>
<glyph name="uni03FB" format="2">
  <advance width="1250"/>
  <unicode hex="03FB"/>
  <outline>
    <contour>
      <point x="621" y="488" type="line"/>
      <point x="225" y="1040" type="line"/>
      <point x="206" y="987" type="line"/>
      <point x="598" y="442" type="line"/>
      <point x="644" y="442" type="line"/>
      <point x="1040" y="987" type="line"/>
      <point x="1025" y="1040" type="line"/>
    </contour>
    <contour>
      <point x="1070" y="1040" type="line"/>
      <point x="1025" y="1040" type="line"/>
      <point x="1025" y="0" type="line"/>
      <point x="1070" y="0" type="line"/>
    </contour>
    <contour>
      <point x="180" y="1040" type="line"/>
      <point x="180" y="-440" type="line"/>
      <point x="225" y="-440" type="line"/>
      <point x="225" y="1040" type="line"/>
    </contour>
  </outline>
</glyph>
<glyph name="uni03FC" format="2">
  <advance width="1182"/>
  <unicode hex="03FC"/>
  <outline>
    <contour>
      <point x="590" y="-241" type="line"/>
      <point x="0" y="-241" type="line"/>
      <point x="0" y="-229"/>
      <point x="0" y="-211"/>
      <point x="0" y="-199" type="curve"/>
      <point x="590" y="-199" type="line"/>
    </contour>
    <contour>
      <point x="210" y="522" type="line" smooth="yes"/>
      <point x="210" y="834"/>
      <point x="375" y="1050"/>
      <point x="622" y="1050" type="curve" smooth="yes"/>
      <point x="869" y="1050"/>
      <point x="1042" y="832"/>
      <point x="1042" y="520" type="curve" smooth="yes"/>
      <point x="1042" y="208"/>
      <point x="869" y="-10"/>
      <point x="622" y="-10" type="curve" smooth="yes"/>
      <point x="422" y="-10"/>
      <point x="286" y="144"/>
      <point x="255" y="260" type="curve"/>
      <point x="255" y="-440" type="line"/>
      <point x="210" y="-440" type="line"/>
    </contour>
    <contour>
      <point x="251" y="520" type="curve"/>
      <point x="251" y="184"/>
      <point x="447" y="30"/>
      <point x="622" y="30" type="curve" smooth="yes"/>
      <point x="797" y="30"/>
      <point x="997" y="184"/>
      <point x="997" y="520" type="curve" smooth="yes"/>
      <point x="997" y="856"/>
      <point x="797" y="1010"/>
      <point x="622" y="1010" type="curve" smooth="yes"/>
      <point x="447" y="1010"/>
      <point x="251" y="856"/>
    </contour>
  </outline>
</glyph>
<glyph name="uni0409" format="2">
  <advance width="1952"/>
  <unicode hex="0409"/>
  <outline>
    <contour>
      <point x="998" y="42" type="line"/>
      <point x="1393" y="42" type="line"/>
      <point x="1618" y="42"/>
      <point x="1766" y="180"/>
      <point x="1766" y="380" type="curve" smooth="yes"/>
      <point x="1766" y="580"/>
      <point x="1618" y="718"/>
      <point x="1393" y="718" type="curve"/>
      <point x="1004" y="718" type="line"/>
      <point x="1004" y="760" type="line"/>
      <point x="1010" y="760" type="line"/>
      <point x="1393" y="760" type="line"/>
      <point x="1617" y="760"/>
      <point x="1812" y="635"/>
      <point x="1812" y="380" type="curve" smooth="yes"/>
      <point x="1812" y="125"/>
      <point x="1617" y="0"/>
      <point x="1393" y="0" type="curve"/>
      <point x="998" y="0" type="line"/>
    </contour>
    <contour>
      <point x="1024" y="1480" type="line"/>
      <point x="1024" y="0" type="line"/>
      <point x="978" y="0" type="line"/>
      <point x="978" y="1438" type="line"/>
      <point x="380" y="1438" type="line"/>
      <point x="315" y="520" type="line" smooth="yes"/>
      <point x="289" y="121"/>
      <point x="192" y="-10"/>
      <point x="40" y="-10" type="curve"/>
      <point x="40" y="35" type="line"/>
      <point x="185" y="35"/>
      <point x="245" y="221"/>
      <point x="267" y="520" type="curve" smooth="yes"/>
      <point x="337" y="1480" type="line"/>
    </contour>
  </outline>
</glyph>
<glyph name="uni0414" format="2">
  <advance width="1373"/>
  <unicode hex="0414"/>
  <anchor x="782" y="0" name="bottom_center"/>
  <anchor x="782" y="1380" name="top_center"/>
  <outline>
    <contour>
      <point x="120" y="-300" type="line"/>
      <point x="120" y="46" type="line"/>
      <point x="166" y="46" type="line"/>
      <point x="166" y="-300" type="line"/>
    </contour>
    <contour>
      <point x="1207" y="-300" type="line"/>
      <point x="1207" y="46" type="line"/>
      <point x="1253" y="46" type="line"/>
      <point x="1253" y="-300" type="line"/>
    </contour>
    <contour>
      <point x="161" y="46" type="line"/>
      <point x="1235" y="46" type="line"/>
      <point x="1235" y="0" type="line"/>
      <point x="161" y="0" type="line"/>
    </contour>
    <contour>
      <point x="1127" y="1480" type="line"/>
      <point x="1127" y="0" type="line"/>
      <point x="1081" y="0" type="line"/>
      <point x="1081" y="1438" type="line"/>
      <point x="483" y="1438" type="line"/>
      <point x="418" y="520" type="line" smooth="yes"/>
      <point x="392" y="121"/>
      <point x="295" y="0"/>
      <point x="143" y="0" type="curve"/>
      <point x="143" y="46" type="line"/>
      <point x="288" y="46"/>
      <point x="348" y="221"/>
      <point x="370" y="520" type="curve" smooth="yes"/>
      <point x="440" y="1480" type="line"/>
    </contour>
  </outline>
</glyph>
<glyph name="uni041B" format="2">
  <advance width="1284"/>
  <unicode hex="041B"/>
  <anchor x="759" y="0" name="bottom_center"/>
  <anchor x="759" y="1380" name="top_center"/>
  <outline>
    <contour>
      <point x="1104" y="1480" type="line"/>
      <point x="1104" y="0" type="line"/>
      <point x="1058" y="0" type="line"/>
      <point x="1058" y="1438" type="line"/>
      <point x="460" y="1438" type="line"/>
      <point x="395" y="520" type="line" smooth="yes"/>
      <point x="369" y="121"/>
      <point x="272" y="-10"/>
      <point x="120" y="-10" type="curve"/>
      <point x="120" y="35" type="line"/>
      <point x="265" y="35"/>
      <point x="325" y="221"/>
      <point x="347" y="520" type="curve" smooth="yes"/>
      <point x="417" y="1480" type="line"/>
    </contour>
  </outline>
</glyph>
<glyph name="uni0426" format="2">
  <advance width="1420"/>
  <unicode hex="0426"/>
  <anchor x="672" y="1380" name="top_center"/>
  <anchor x="672" y="0" name="bottom_center"/>
  <outline>
    <contour>
      <point x="1164" y="42" type="line"/>
      <point x="1300" y="42" type="line"/>
      <point x="1300" y="-300" type="line"/>
      <point x="1254" y="-300" type="line"/>
      <point x="1254" y="0" type="line"/>
      <point x="1164" y="0" type="line"/>
    </contour>
    <contour>
      <point x="180" y="0" type="line"/>
      <point x="180" y="1480" type="line"/>
      <point x="226" y="1480" type="line"/>
      <point x="226" y="42" type="line"/>
      <point x="1118" y="42" type="line"/>
      <point x="1118" y="1480" type="line"/>
      <point x="1164" y="1480" type="line"/>
      <point x="1164" y="0" type="line"/>
    </contour>
  </outline>
</glyph>
<glyph name="uni0429" format="2">
  <advance width="1902"/>
  <unicode hex="0429"/>
  <anchor x="913" y="1380" name="top_center"/>
  <anchor x="913" y="0" name="bottom_center"/>
  <outline>
    <contour>
      <point x="1646" y="42" type="line"/>
      <point x="1782" y="42" type="line"/>
      <point x="1782" y="-300" type="line"/>
      <point x="1736" y="-300" type="line"/>
      <point x="1736" y="0" type="line"/>
      <point x="1646" y="0" type="line"/>
    </contour>
    <contour>
      <point x="180" y="1480" type="line"/>
      <point x="226" y="1480" type="line"/>
      <point x="226" y="42" type="line"/>
      <point x="890" y="42" type="line"/>
      <point x="890" y="0" type="line"/>
      <point x="226" y="0" type="line"/>
      <point x="180" y="0" type="line"/>
    </contour>
    <contour>
      <point x="890" y="1480" type="line"/>
      <point x="936" y="1480" type="line"/>
      <point x="936" y="42" type="line"/>
      <point x="1600" y="42" type="line"/>
      <point x="1600" y="1480" type="line"/>
      <point x="1646" y="1480" type="line"/>
      <point x="1646" y="0" type="line"/>
      <point x="1600" y="0" type="line"/>
      <point x="936" y="0" type="line"/>
      <point x="890" y="0" type="line"/>
    </contour>
  </outline>
</glyph>
<glyph name="uni0434" format="2">
  <advance width="1182"/>
  <unicode hex="0434"/>
  <anchor x="662" y="1040" name="top_center"/>
  <anchor x="662" y="0" name="bottom_center"/>
  <outline>
    <contour>
      <point x="926" y="40" type="line"/>
      <point x="1062" y="40" type="line"/>
      <point x="1062" y="-300" type="line"/>
      <point x="1016" y="-300" type="line"/>
      <point x="1016" y="0" type="line"/>
      <point x="926" y="0" type="line"/>
    </contour>
    <contour>
      <point x="120" y="-300" type="line"/>
      <point x="120" y="40" type="line"/>
      <point x="165" y="40" type="line"/>
      <point x="165" y="-300" type="line"/>
    </contour>
    <contour>
      <point x="151" y="40" type="line"/>
      <point x="898" y="40" type="line"/>
      <point x="898" y="0" type="line"/>
      <point x="151" y="0" type="line"/>
    </contour>
    <contour>
      <point x="926" y="1040" type="line"/>
      <point x="926" y="0" type="line"/>
      <point x="881" y="0" type="line"/>
      <point x="881" y="998" type="line"/>
      <point x="443" y="998" type="line"/>
      <point x="379" y="327" type="line" smooth="yes"/>
      <point x="352" y="36"/>
      <point x="256" y="0"/>
      <point x="142" y="0" type="curve"/>
      <point x="142" y="40" type="line"/>
      <point x="265" y="40"/>
      <point x="317" y="137"/>
      <point x="334" y="327" type="curve" smooth="yes"/>
      <point x="398" y="1040" type="line"/>
    </contour>
  </outline>
</glyph>
<glyph name="uni0437" format="2">
  <advance width="994"/>
  <unicode hex="0437"/>
  <anchor x="497" y="1040" name="top_center"/>
  <anchor x="497" y="0" name="bottom_center"/>
  <outline>
    <contour>
      <point x="497" y="568" type="curve"/>
      <point x="697" y="568"/>
      <point x="771" y="689"/>
      <point x="771" y="789" type="curve" smooth="yes"/>
      <point x="771" y="899"/>
      <point x="687" y="1010"/>
      <point x="497" y="1010" type="curve" smooth="yes"/>
      <point x="292" y="1010"/>
      <point x="221" y="858"/>
      <point x="221" y="776" type="curve"/>
      <point x="176" y="788" type="line"/>
      <point x="194" y="937"/>
      <point x="308" y="1050"/>
      <point x="497" y="1050" type="curve" smooth="yes"/>
      <point x="686" y="1050"/>
      <point x="816" y="949"/>
      <point x="816" y="791" type="curve" smooth="yes"/>
      <point x="816" y="633"/>
      <point x="699" y="565"/>
      <point x="617" y="546" type="curve"/>
      <point x="727" y="537"/>
      <point x="854" y="419"/>
      <point x="854" y="276" type="curve" smooth="yes"/>
      <point x="854" y="103"/>
      <point x="677" y="-10"/>
      <point x="497" y="-10" type="curve" smooth="yes"/>
      <point x="312" y="-10"/>
      <point x="163" y="118"/>
      <point x="140" y="295" type="curve"/>
      <point x="185" y="308" type="line"/>
      <point x="201" y="154"/>
      <point x="327" y="30"/>
      <point x="497" y="30" type="curve" smooth="yes"/>
      <point x="687" y="30"/>
      <point x="809" y="159"/>
      <point x="809" y="279" type="curve" smooth="yes"/>
      <point x="809" y="399"/>
      <point x="697" y="528"/>
      <point x="497" y="528" type="curve"/>
      <point x="454" y="528"/>
      <point x="440" y="528"/>
      <point x="440" y="528" type="curve"/>
      <point x="440" y="568" type="line"/>
      <point x="440" y="568"/>
      <point x="455" y="568"/>
    </contour>
  </outline>
</glyph>
<glyph name="uni0446" format="2">
  <advance width="1209"/>
  <unicode hex="0446"/>
  <anchor x="567" y="1040" name="top_center"/>
  <anchor x="567" y="0" name="bottom_center"/>
  <outline>
    <contour>
      <point x="953" y="40" type="line"/>
      <point x="1089" y="40" type="line"/>
      <point x="1089" y="-300" type="line"/>
      <point x="1043" y="-300" type="line"/>
      <point x="1043" y="0" type="line"/>
      <point x="953" y="0" type="line"/>
    </contour>
    <contour>
      <point x="180" y="0" type="line"/>
      <point x="180" y="1040" type="line"/>
      <point x="225" y="1040" type="line"/>
      <point x="225" y="42" type="line"/>
      <point x="908" y="42" type="line"/>
      <point x="908" y="1040" type="line"/>
      <point x="953" y="1040" type="line"/>
      <point x="953" y="0" type="line"/>
      <point x="908" y="0" type="line"/>
      <point x="338" y="0" type="line"/>
    </contour>
  </outline>
</glyph>
<glyph name="uni0448" format="2">
  <advance width="1468"/>
  <unicode hex="0448"/>
  <anchor x="734" y="0" name="bottom_center"/>
  <anchor x="734" y="1040" name="top_center"/>
  <outline>
    <contour>
      <point x="225" y="1040" type="line"/>
      <point x="225" y="42" type="line"/>
      <point x="711" y="42" type="line"/>
      <point x="711" y="0" type="line"/>
      <point x="339" y="0" type="line"/>
      <point x="180" y="0" type="line"/>
      <point x="180" y="1040" type="line"/>
    </contour>
    <contour>
      <point x="1243" y="1040" type="line"/>
      <point x="1288" y="1040" type="line"/>
      <point x="1288" y="0" type="line"/>
      <point x="1129" y="0" type="line"/>
      <point x="757" y="0" type="line"/>
      <point x="711" y="0" type="line"/>
      <point x="711" y="1040" type="line"/>
      <point x="757" y="1040" type="line"/>
      <point x="757" y="42" type="line"/>
      <point x="1243" y="42" type="line"/>
    </contour>
  </outline>
</glyph>
<glyph name="uni044A" format="2">
  <advance width="1152"/>
  <unicode hex="044A"/>
  <anchor x="599" y="0" name="bottom_center"/>
  <anchor x="319" y="1040" name="top_center"/>
  <outline>
    <contour>
      <point x="341" y="1040" type="line"/>
      <point x="341" y="566" type="line"/>
      <point x="633" y="566" type="line" smooth="yes"/>
      <point x="842" y="566"/>
      <point x="972" y="453"/>
      <point x="972" y="283" type="curve" smooth="yes"/>
      <point x="972" y="113"/>
      <point x="842" y="0"/>
      <point x="633" y="0" type="curve" smooth="yes"/>
      <point x="296" y="0" type="line"/>
      <point x="296" y="1000" type="line"/>
      <point x="5" y="1000" type="line"/>
      <point x="5" y="1040" type="line"/>
    </contour>
    <contour>
      <point x="633" y="526" type="curve" smooth="yes"/>
      <point x="341" y="526" type="line"/>
      <point x="341" y="40" type="line"/>
      <point x="633" y="40" type="line" smooth="yes"/>
      <point x="797" y="40"/>
      <point x="928" y="132"/>
      <point x="928" y="283" type="curve" smooth="yes"/>
      <point x="928" y="434"/>
      <point x="797" y="526"/>
    </contour>
  </outline>
</glyph>
<glyph name="uni0452" format="2">
  <advance width="1160"/>
  <unicode hex="0452"/>
  <outline>
    <contour>
      <point x="590" y="1219" type="line"/>
      <point x="0" y="1219" type="line"/>
      <point x="0" y="1265"/>
      <point x="0" y="1213"/>
      <point x="0" y="1259" type="curve"/>
      <point x="590" y="1259" type="line"/>
    </contour>
    <contour>
      <point x="980" y="0" type="line" smooth="yes"/>
      <point x="980" y="-178"/>
      <point x="848" y="-310"/>
      <point x="670" y="-310" type="curve" smooth="yes"/>
      <point x="666" y="-310"/>
      <point x="662" y="-310"/>
      <point x="658" y="-309" type="curve"/>
      <point x="658" y="-269" type="line"/>
      <point x="662" y="-270"/>
      <point x="666" y="-270"/>
      <point x="670" y="-270" type="curve" smooth="yes"/>
      <point x="825" y="-270"/>
      <point x="935" y="-155"/>
      <point x="935" y="0" type="curve" smooth="yes"/>
      <point x="935" y="572" type="line" smooth="yes"/>
      <point x="935" y="791"/>
      <point x="865" y="1010"/>
      <point x="595" y="1010" type="curve" smooth="yes"/>
      <point x="325" y="1010"/>
      <point x="255" y="791"/>
      <point x="255" y="572" type="curve" smooth="yes"/>
      <point x="255" y="0" type="line"/>
      <point x="210" y="0" type="line"/>
      <point x="210" y="1480" type="line"/>
      <point x="255" y="1480" type="line"/>
      <point x="255" y="820" type="line"/>
      <point x="292" y="927"/>
      <point x="375" y="1050"/>
      <point x="605" y="1050" type="curve" smooth="yes"/>
      <point x="843" y="1050"/>
      <point x="980" y="892"/>
      <point x="980" y="572" type="curve"/>
    </contour>
  </outline>
</glyph>
<glyph name="uni0459" format="2">
  <advance width="1595"/>
  <unicode hex="0459"/>
  <outline>
    <contour>
      <point x="1411" y="283" type="curve" smooth="yes"/>
      <point x="1411" y="434"/>
      <point x="1280" y="526"/>
      <point x="1116" y="526" type="curve" smooth="yes"/>
      <point x="824" y="526" type="line"/>
      <point x="824" y="566" type="line"/>
      <point x="1116" y="566" type="line" smooth="yes"/>
      <point x="1325" y="566"/>
      <point x="1455" y="453"/>
      <point x="1455" y="283" type="curve" smooth="yes"/>
      <point x="1455" y="113"/>
      <point x="1325" y="0"/>
      <point x="1116" y="0" type="curve" smooth="yes"/>
      <point x="824" y="0" type="line"/>
      <point x="824" y="40" type="line"/>
      <point x="1116" y="40" type="line" smooth="yes"/>
      <point x="1280" y="40"/>
      <point x="1411" y="132"/>
    </contour>
    <contour>
      <point x="824" y="1040" type="line"/>
      <point x="824" y="0" type="line"/>
      <point x="779" y="0" type="line"/>
      <point x="779" y="998" type="line"/>
      <point x="341" y="998" type="line"/>
      <point x="277" y="327" type="line" smooth="yes"/>
      <point x="250" y="36"/>
      <point x="154" y="-10"/>
      <point x="40" y="-10" type="curve"/>
      <point x="40" y="29" type="line"/>
      <point x="163" y="29"/>
      <point x="215" y="137"/>
      <point x="232" y="327" type="curve" smooth="yes"/>
      <point x="296" y="1040" type="line"/>
    </contour>
  </outline>
</glyph>
<glyph name="uni0460" format="2">
  <advance width="1902"/>
  <unicode hex="0460"/>
  <outline>
    <contour>
      <point x="1359" y="0" type="curve"/>
      <point x="1333" y="0" type="line"/>
      <point x="1333" y="0"/>
      <point x="930" y="680"/>
      <point x="930" y="1480" type="curve"/>
      <point x="979" y="1480" type="line"/>
      <point x="979" y="740"/>
      <point x="1346" y="80"/>
      <point x="1346" y="80" type="curve"/>
      <point x="1346" y="80"/>
      <point x="1713" y="740"/>
      <point x="1713" y="1480" type="curve"/>
      <point x="1762" y="1480" type="line"/>
      <point x="1762" y="680"/>
      <point x="1359" y="0"/>
    </contour>
    <contour>
      <point x="576" y="0" type="line"/>
      <point x="543" y="0" type="line"/>
      <point x="543" y="0"/>
      <point x="140" y="680"/>
      <point x="140" y="1480" type="curve"/>
      <point x="189" y="1480" type="line"/>
      <point x="189" y="740"/>
      <point x="556" y="80"/>
      <point x="556" y="80" type="curve"/>
      <point x="955" y="1126" type="line"/>
      <point x="1004" y="1126" type="line"/>
    </contour>
  </outline>
</glyph>
<glyph name="uni0461" format="2">
  <advance width="1556"/>
  <unicode hex="0461"/>
  <outline>
    <contour>
      <point x="802" y="1040" type="line"/>
      <point x="802" y="520"/>
      <point x="1085" y="89"/>
      <point x="1085" y="89" type="curve"/>
      <point x="1085" y="89"/>
      <point x="1368" y="520"/>
      <point x="1368" y="1040" type="curve"/>
      <point x="1416" y="1040" type="line"/>
      <point x="1416" y="500"/>
      <point x="1094" y="0"/>
      <point x="1094" y="0" type="curve"/>
      <point x="1076" y="0" type="line"/>
      <point x="1076" y="0"/>
      <point x="754" y="500"/>
      <point x="754" y="1040" type="curve"/>
    </contour>
    <contour>
      <point x="188" y="1040" type="line"/>
      <point x="188" y="520"/>
      <point x="471" y="89"/>
      <point x="471" y="89" type="curve"/>
      <point x="772" y="810" type="line"/>
      <point x="818" y="810" type="line"/>
      <point x="486" y="0" type="line"/>
      <point x="462" y="0" type="line"/>
      <point x="462" y="0"/>
      <point x="140" y="500"/>
      <point x="140" y="1040" type="curve"/>
    </contour>
  </outline>
</glyph>
<glyph name="uni0462" format="2">
  <advance width="1452"/>
  <unicode hex="0462"/>
  <outline>
    <contour>
      <point x="406" y="1480" type="line"/>
      <point x="406" y="798" type="line"/>
      <point x="821" y="798" type="line"/>
      <point x="1095" y="798"/>
      <point x="1272" y="641"/>
      <point x="1272" y="398" type="curve" smooth="yes"/>
      <point x="1272" y="155"/>
      <point x="1095" y="0"/>
      <point x="821" y="0" type="curve"/>
      <point x="360" y="0" type="line"/>
      <point x="360" y="1480" type="line"/>
    </contour>
    <contour>
      <point x="821" y="754" type="curve"/>
      <point x="406" y="754" type="line"/>
      <point x="406" y="42" type="line"/>
      <point x="821" y="42" type="line"/>
      <point x="1046" y="42"/>
      <point x="1226" y="178"/>
      <point x="1226" y="398" type="curve" smooth="yes"/>
      <point x="1226" y="618"/>
      <point x="1046" y="754"/>
    </contour>
    <contour>
      <point x="766" y="1118" type="line"/>
      <point x="0" y="1118" type="line"/>
      <point x="0" y="1164"/>
      <point x="0" y="1114"/>
      <point x="0" y="1160" type="curve"/>
      <point x="766" y="1160" type="line"/>
    </contour>
  </outline>
</glyph>
<glyph name="uni0463" format="2">
  <advance width="1176"/>
  <unicode hex="0463"/>
  <outline>
    <contour>
      <point x="697" y="566" type="line" smooth="yes"/>
      <point x="906" y="566"/>
      <point x="1036" y="453"/>
      <point x="1036" y="283" type="curve" smooth="yes"/>
      <point x="1036" y="113"/>
      <point x="906" y="0"/>
      <point x="697" y="0" type="curve" smooth="yes"/>
      <point x="360" y="0" type="line"/>
      <point x="360" y="1480" type="line"/>
      <point x="405" y="1480" type="line"/>
      <point x="405" y="566" type="line"/>
    </contour>
    <contour>
      <point x="697" y="526" type="curve" smooth="yes"/>
      <point x="405" y="526" type="line"/>
      <point x="405" y="40" type="line"/>
      <point x="697" y="40" type="line" smooth="yes"/>
      <point x="861" y="40"/>
      <point x="992" y="132"/>
      <point x="992" y="283" type="curve" smooth="yes"/>
      <point x="992" y="434"/>
      <point x="861" y="526"/>
    </contour>
    <contour>
      <point x="765" y="1219" type="line"/>
      <point x="0" y="1219" type="line"/>
      <point x="0" y="1265"/>
      <point x="0" y="1213"/>
      <point x="0" y="1259" type="curve"/>
      <point x="765" y="1259" type="line"/>
    </contour>
  </outline>
</glyph>
<glyph name="uni0465" format="2">
  <advance width="1500"/>
  <unicode hex="0465"/>
  <outline>
    <contour>
      <point x="509" y="540" type="line"/>
      <point x="1149" y="540" type="line"/>
      <point x="1149" y="500" type="line"/>
      <point x="509" y="500" type="line"/>
    </contour>
    <contour>
      <point x="922" y="1010" type="curve" smooth="yes"/>
      <point x="754" y="1010"/>
      <point x="529" y="856"/>
      <point x="529" y="520" type="curve" smooth="yes"/>
      <point x="529" y="184"/>
      <point x="754" y="30"/>
      <point x="922" y="30" type="curve" smooth="yes"/>
      <point x="1042" y="30"/>
      <point x="1190" y="108"/>
      <point x="1266" y="274" type="curve"/>
      <point x="1305" y="252" type="line"/>
      <point x="1231" y="90"/>
      <point x="1089" y="-10"/>
      <point x="922" y="-10" type="curve" smooth="yes"/>
      <point x="675" y="-10"/>
      <point x="484" y="208"/>
      <point x="484" y="520" type="curve" smooth="yes"/>
      <point x="484" y="832"/>
      <point x="675" y="1050"/>
      <point x="922" y="1050" type="curve" smooth="yes"/>
      <point x="1089" y="1050"/>
      <point x="1231" y="950"/>
      <point x="1305" y="788" type="curve"/>
      <point x="1266" y="766" type="line"/>
      <point x="1190" y="932"/>
      <point x="1042" y="1010"/>
    </contour>
    <contour>
      <point x="180" y="1040" type="line"/>
      <point x="225" y="1040" type="line"/>
      <point x="225" y="0" type="line"/>
      <point x="180" y="0" type="line"/>
    </contour>
    <contour>
      <point x="225" y="540" type="line"/>
      <point x="498" y="540" type="line"/>
      <point x="498" y="500" type="line"/>
      <point x="225" y="500" type="line"/>
    </contour>
  </outline>
</glyph>
<glyph name="uni046C" format="2">
  <advance width="1800"/>
  <unicode hex="046C"/>
  <outline>
    <contour>
      <point x="226" y="761" type="line"/>
      <point x="1000" y="761" type="line"/>
      <point x="1000" y="719" type="line"/>
      <point x="226" y="719" type="line"/>
    </contour>
    <contour>
      <point x="226" y="490" type="line"/>
      <point x="226" y="0" type="line"/>
      <point x="180" y="0" type="line"/>
      <point x="180" y="1480" type="line"/>
      <point x="226" y="1480" type="line"/>
    </contour>
    <contour>
      <point x="1620" y="223" type="curve"/>
      <point x="1620" y="43"/>
      <point x="1620" y="0"/>
      <point x="1620" y="0" type="curve"/>
      <point x="1574" y="0" type="line"/>
      <point x="1574" y="0"/>
      <point x="1574" y="41"/>
      <point x="1574" y="223" type="curve"/>
      <point x="1574" y="543"/>
      <point x="1323" y="719"/>
      <point x="1013" y="719" type="curve" smooth="yes"/>
      <point x="703" y="719"/>
      <point x="452" y="543"/>
      <point x="452" y="223" type="curve"/>
      <point x="452" y="43"/>
      <point x="452" y="0"/>
      <point x="452" y="0" type="curve"/>
      <point x="406" y="0" type="line"/>
      <point x="406" y="0"/>
      <point x="406" y="41"/>
      <point x="406" y="223" type="curve"/>
      <point x="406" y="583"/>
      <point x="679" y="761"/>
      <point x="1013" y="761" type="curve" smooth="yes"/>
      <point x="1347" y="761"/>
      <point x="1620" y="583"/>
    </contour>
    <contour>
      <point x="519" y="1438" type="line"/>
      <point x="520" y="1480" type="line"/>
      <point x="1506" y="1480" type="line"/>
      <point x="1505" y="1438" type="line"/>
    </contour>
    <contour>
      <point x="990" y="0" type="line"/>
      <point x="990" y="753" type="line"/>
      <point x="1036" y="753" type="line"/>
      <point x="1036" y="0" type="line"/>
    </contour>
    <contour>
      <point x="1040" y="729" type="line"/>
      <point x="986" y="729" type="line"/>
      <point x="462" y="1480" type="line"/>
      <point x="520" y="1480" type="line"/>
      <point x="1013" y="761" type="line"/>
      <point x="1506" y="1480" type="line"/>
      <point x="1564" y="1480" type="line"/>
    </contour>
  </outline>
</glyph>
<glyph name="uni047F" format="2">
  <advance width="1556"/>
  <unicode hex="047F"/>
  <outline>
    <contour>
      <point x="802" y="1040" type="line"/>
      <point x="802" y="520"/>
      <point x="1085" y="89"/>
      <point x="1085" y="89" type="curve"/>
      <point x="1085" y="89"/>
      <point x="1368" y="520"/>
      <point x="1368" y="1040" type="curve"/>
      <point x="1416" y="1040" type="line"/>
      <point x="1416" y="500"/>
      <point x="1094" y="0"/>
      <point x="1094" y="0" type="curve"/>
      <point x="1076" y="0" type="line"/>
      <point x="1076" y="0"/>
      <point x="754" y="500"/>
      <point x="754" y="1040" type="curve"/>
    </contour>
    <contour>
      <point x="188" y="1040" type="line"/>
      <point x="188" y="520"/>
      <point x="471" y="89"/>
      <point x="471" y="89" type="curve"/>
      <point x="772" y="810" type="line"/>
      <point x="818" y="810" type="line"/>
      <point x="486" y="0" type="line"/>
      <point x="462" y="0" type="line"/>
      <point x="462" y="0"/>
      <point x="140" y="500"/>
      <point x="140" y="1040" type="curve"/>
    </contour>
    <contour>
      <point x="404" y="1444" type="line"/>
      <point x="424" y="1480" type="line"/>
      <point x="1136" y="1480" type="line"/>
      <point x="1156" y="1444" type="line"/>
    </contour>
    <contour>
      <point x="388" y="1228" type="line"/>
      <point x="388" y="1480" type="line"/>
      <point x="424" y="1480" type="line"/>
      <point x="424" y="1228" type="line"/>
    </contour>
    <contour>
      <point x="1136" y="1228" type="line"/>
      <point x="1136" y="1480" type="line"/>
      <point x="1172" y="1480" type="line"/>
      <point x="1172" y="1228" type="line"/>
    </contour>
    <contour>
      <point x="762" y="1228" type="line"/>
      <point x="762" y="1460" type="line"/>
      <point x="798" y="1460" type="line"/>
      <point x="798" y="1228" type="line"/>
    </contour>
  </outline>
</glyph>
<glyph name="uni0480" format="2">
  <advance width="1436"/>
  <unicode hex="0480"/>
  <outline>
    <contour>
      <point x="803" y="32" type="line"/>
      <point x="803" y="-556" type="line"/>
      <point x="757" y="-556" type="line"/>
      <point x="757" y="32" type="line"/>
    </contour>
    <contour>
      <point x="757" y="-10" type="line"/>
      <point x="409" y="-10"/>
      <point x="140" y="301"/>
      <point x="140" y="740" type="curve" smooth="yes"/>
      <point x="140" y="1179"/>
      <point x="409" y="1490"/>
      <point x="757" y="1490" type="curve" smooth="yes"/>
      <point x="992" y="1490"/>
      <point x="1192" y="1348"/>
      <point x="1296" y="1120" type="curve"/>
      <point x="1256" y="1097" type="line"/>
      <point x="1149" y="1332"/>
      <point x="940" y="1448"/>
      <point x="757" y="1448" type="curve" smooth="yes"/>
      <point x="497" y="1448"/>
      <point x="186" y="1215"/>
      <point x="186" y="740" type="curve" smooth="yes"/>
      <point x="186" y="265"/>
      <point x="497" y="32"/>
      <point x="757" y="32" type="curve"/>
    </contour>
  </outline>
</glyph>
<glyph name="uni048C" format="2">
  <advance width="1272"/>
  <unicode hex="048C"/>
  <outline>
    <contour>
      <point x="226" y="1480" type="line"/>
      <point x="226" y="798" type="line"/>
      <point x="641" y="798" type="line"/>
      <point x="915" y="798"/>
      <point x="1092" y="641"/>
      <point x="1092" y="398" type="curve" smooth="yes"/>
      <point x="1092" y="155"/>
      <point x="915" y="0"/>
      <point x="641" y="0" type="curve"/>
      <point x="180" y="0" type="line"/>
      <point x="180" y="1480" type="line"/>
    </contour>
    <contour>
      <point x="641" y="754" type="curve"/>
      <point x="226" y="754" type="line"/>
      <point x="226" y="42" type="line"/>
      <point x="641" y="42" type="line"/>
      <point x="866" y="42"/>
      <point x="1046" y="178"/>
      <point x="1046" y="398" type="curve" smooth="yes"/>
      <point x="1046" y="618"/>
      <point x="866" y="754"/>
    </contour>
    <contour>
      <point x="406" y="1118" type="line"/>
      <point x="0" y="1118" type="line"/>
      <point x="0" y="1164"/>
      <point x="0" y="1114"/>
      <point x="0" y="1160" type="curve"/>
      <point x="406" y="1160" type="line"/>
    </contour>
  </outline>
</glyph>
<glyph name="uni048E" format="2">
  <advance width="1154"/>
  <unicode hex="048E"/>
  <outline>
    <contour>
      <point x="1111" y="543" type="line"/>
      <point x="680" y="974" type="line"/>
      <point x="711" y="1005" type="line"/>
      <point x="1142" y="573" type="line"/>
    </contour>
    <contour>
      <point x="226" y="1438" type="line"/>
      <point x="226" y="676" type="line"/>
      <point x="595" y="676" type="line"/>
      <point x="820" y="676"/>
      <point x="968" y="857"/>
      <point x="968" y="1057" type="curve" smooth="yes"/>
      <point x="968" y="1257"/>
      <point x="820" y="1438"/>
      <point x="595" y="1438" type="curve"/>
    </contour>
    <contour>
      <point x="180" y="0" type="line"/>
      <point x="180" y="1480" type="line"/>
      <point x="595" y="1480" type="line"/>
      <point x="819" y="1480"/>
      <point x="1014" y="1312"/>
      <point x="1014" y="1057" type="curve" smooth="yes"/>
      <point x="1014" y="802"/>
      <point x="819" y="634"/>
      <point x="595" y="634" type="curve"/>
      <point x="226" y="634" type="line"/>
      <point x="226" y="0" type="line"/>
    </contour>
  </outline>
</glyph>
<glyph name="uni0496" format="2">
  <advance width="1816"/>
  <unicode hex="0496"/>
  <outline>
    <contour>
      <point x="1665" y="42" type="line"/>
      <point x="1665" y="-300" type="line"/>
      <point x="1711" y="-300" type="line"/>
      <point x="1711" y="42" type="line"/>
    </contour>
    <contour>
      <point x="885" y="761" type="line"/>
      <point x="662" y="761" type="line"/>
      <point x="662" y="719" type="line"/>
      <point x="885" y="719" type="line"/>
    </contour>
    <contour>
      <point x="682" y="718" type="line"/>
      <point x="698" y="740" type="line"/>
      <point x="683" y="762" type="line"/>
      <point x="174" y="1480" type="line"/>
      <point x="120" y="1480" type="line"/>
      <point x="642" y="740" type="line"/>
      <point x="120" y="0" type="line"/>
      <point x="174" y="0" type="line"/>
    </contour>
    <contour>
      <point x="931" y="761" type="line"/>
      <point x="931" y="719" type="line"/>
      <point x="1154" y="719" type="line"/>
      <point x="1154" y="761" type="line"/>
    </contour>
    <contour>
      <point x="931" y="490" type="line"/>
      <point x="931" y="1480" type="line"/>
      <point x="885" y="1480" type="line"/>
      <point x="885" y="0" type="line"/>
      <point x="931" y="0" type="line"/>
    </contour>
    <contour>
      <point x="1134" y="718" type="line"/>
      <point x="1642" y="0" type="line"/>
      <point x="1696" y="0" type="line"/>
      <point x="1174" y="740" type="line"/>
      <point x="1696" y="1480" type="line"/>
      <point x="1642" y="1480" type="line"/>
      <point x="1133" y="762" type="line"/>
      <point x="1118" y="740" type="line"/>
    </contour>
  </outline>
</glyph>
<glyph name="uni049A" format="2">
  <advance width="1328"/>
  <unicode hex="049A"/>
  <outline>
    <contour>
      <point x="1162" y="42" type="line"/>
      <point x="1208" y="42" type="line"/>
      <point x="1208" y="-300" type="line"/>
      <point x="1162" y="-300" type="line"/>
    </contour>
    <contour>
      <point x="504" y="807" type="line"/>
      <point x="534" y="841" type="line"/>
      <point x="1198" y="0" type="line"/>
      <point x="1144" y="0" type="line"/>
    </contour>
    <contour>
      <point x="226" y="508" type="line"/>
      <point x="226" y="0" type="line"/>
      <point x="180" y="0" type="line"/>
      <point x="180" y="1480" type="line"/>
      <point x="226" y="1480" type="line"/>
      <point x="226" y="568" type="line"/>
      <point x="1138" y="1480" type="line"/>
      <point x="1191" y="1480"/>
      <point x="1145" y="1480"/>
      <point x="1198" y="1480" type="curve"/>
    </contour>
  </outline>
</glyph>
<glyph name="uni049B" format="2">
  <advance width="1064"/>
  <unicode hex="049B"/>
  <outline>
    <contour>
      <point x="898" y="40" type="line"/>
      <point x="944" y="40" type="line"/>
      <point x="944" y="-300" type="line"/>
      <point x="898" y="-300" type="line"/>
    </contour>
    <contour>
      <point x="451" y="601" type="line"/>
      <point x="482" y="630" type="line"/>
      <point x="929" y="0" type="line"/>
      <point x="877" y="0" type="line"/>
    </contour>
    <contour>
      <point x="225" y="340" type="line"/>
      <point x="225" y="0" type="line"/>
      <point x="180" y="0" type="line"/>
      <point x="180" y="1040" type="line"/>
      <point x="225" y="1040" type="line"/>
      <point x="225" y="398" type="line"/>
      <point x="867" y="1040" type="line"/>
      <point x="920" y="1040"/>
      <point x="872" y="1040"/>
      <point x="925" y="1040" type="curve"/>
    </contour>
  </outline>
</glyph>
<glyph name="uni049C" format="2">
  <advance width="1318"/>
  <unicode hex="049C"/>
  <outline>
    <contour>
      <point x="414" y="1140" type="line"/>
      <point x="460" y="1140" type="line"/>
      <point x="460" y="340" type="line"/>
      <point x="414" y="340" type="line"/>
    </contour>
    <contour>
      <point x="504" y="807" type="line"/>
      <point x="534" y="841" type="line"/>
      <point x="1198" y="0" type="line"/>
      <point x="1144" y="0" type="line"/>
    </contour>
    <contour>
      <point x="226" y="508" type="line"/>
      <point x="226" y="0" type="line"/>
      <point x="180" y="0" type="line"/>
      <point x="180" y="1480" type="line"/>
      <point x="226" y="1480" type="line"/>
      <point x="226" y="568" type="line"/>
      <point x="1138" y="1480" type="line"/>
      <point x="1191" y="1480"/>
      <point x="1145" y="1480"/>
      <point x="1198" y="1480" type="curve"/>
    </contour>
  </outline>
</glyph>
<glyph name="uni049E" format="2">
  <advance width="1348"/>
  <unicode hex="049E"/>
  <outline>
    <contour>
      <point x="590" y="1218" type="line"/>
      <point x="0" y="1218" type="line"/>
      <point x="0" y="1264"/>
      <point x="0" y="1214"/>
      <point x="0" y="1260" type="curve"/>
      <point x="590" y="1260" type="line"/>
    </contour>
    <contour>
      <point x="534" y="807" type="line"/>
      <point x="564" y="841" type="line"/>
      <point x="1228" y="0" type="line"/>
      <point x="1174" y="0" type="line"/>
    </contour>
    <contour>
      <point x="256" y="508" type="line"/>
      <point x="256" y="0" type="line"/>
      <point x="210" y="0" type="line"/>
      <point x="210" y="1480" type="line"/>
      <point x="256" y="1480" type="line"/>
      <point x="256" y="568" type="line"/>
      <point x="1168" y="1480" type="line"/>
      <point x="1221" y="1480"/>
      <point x="1175" y="1480"/>
      <point x="1228" y="1480" type="curve"/>
    </contour>
  </outline>
</glyph>
<glyph name="uni049F" format="2">
  <advance width="1099"/>
  <unicode hex="049F"/>
  <outline>
    <contour>
      <point x="590" y="1219" type="line"/>
      <point x="0" y="1219" type="line"/>
      <point x="0" y="1265"/>
      <point x="0" y="1213"/>
      <point x="0" y="1259" type="curve"/>
      <point x="590" y="1259" type="line"/>
    </contour>
    <contour>
      <point x="481" y="601" type="line"/>
      <point x="512" y="630" type="line"/>
      <point x="959" y="0" type="line"/>
      <point x="907" y="0" type="line"/>
    </contour>
    <contour>
      <point x="255" y="340" type="line"/>
      <point x="255" y="0" type="line"/>
      <point x="210" y="0" type="line"/>
      <point x="210" y="1480" type="line"/>
      <point x="255" y="1480" type="line"/>
      <point x="255" y="398" type="line"/>
      <point x="897" y="1040" type="line"/>
      <point x="950" y="1040"/>
      <point x="902" y="1040"/>
      <point x="955" y="1040" type="curve"/>
    </contour>
  </outline>
</glyph>
<glyph name="uni04A0" format="2">
  <advance width="1434"/>
  <unicode hex="04A0"/>
  <outline>
    <contour>
      <point x="0" y="1440" type="line"/>
      <point x="0" y="1480" type="line"/>
      <point x="316" y="1480" type="line"/>
      <point x="316" y="1440" type="line"/>
    </contour>
    <contour>
      <point x="640" y="807" type="line"/>
      <point x="670" y="841" type="line"/>
      <point x="1334" y="0" type="line"/>
      <point x="1280" y="0" type="line"/>
    </contour>
    <contour>
      <point x="362" y="508" type="line"/>
      <point x="362" y="0" type="line"/>
      <point x="316" y="0" type="line"/>
      <point x="316" y="1480" type="line"/>
      <point x="362" y="1480" type="line"/>
      <point x="362" y="568" type="line"/>
      <point x="1274" y="1480" type="line"/>
      <point x="1327" y="1480"/>
      <point x="1281" y="1480"/>
      <point x="1334" y="1480" type="curve"/>
    </contour>
  </outline>
</glyph>
<glyph name="uni04A1" format="2">
  <advance width="1085"/>
  <unicode hex="04A1"/>
  <outline>
    <contour>
      <point x="0" y="1000" type="line"/>
      <point x="0" y="1040" type="line"/>
      <point x="216" y="1040" type="line"/>
      <point x="216" y="1000" type="line"/>
    </contour>
    <contour>
      <point x="487" y="601" type="line"/>
      <point x="518" y="630" type="line"/>
      <point x="965" y="0" type="line"/>
      <point x="913" y="0" type="line"/>
    </contour>
    <contour>
      <point x="261" y="340" type="line"/>
      <point x="261" y="0" type="line"/>
      <point x="216" y="0" type="line"/>
      <point x="216" y="1040" type="line"/>
      <point x="261" y="1040" type="line"/>
      <point x="261" y="398" type="line"/>
      <point x="903" y="1040" type="line"/>
      <point x="956" y="1040"/>
      <point x="908" y="1040"/>
      <point x="961" y="1040" type="curve"/>
    </contour>
  </outline>
</glyph>
<glyph name="uni04A3" format="2">
  <advance width="1209"/>
  <unicode hex="04A3"/>
  <outline>
    <contour>
      <point x="953" y="40" type="line"/>
      <point x="1089" y="40" type="line"/>
      <point x="1089" y="-300" type="line"/>
      <point x="1043" y="-300" type="line"/>
      <point x="1043" y="0" type="line"/>
      <point x="953" y="0" type="line"/>
    </contour>
    <contour>
      <point x="180" y="1040" type="line"/>
      <point x="225" y="1040" type="line"/>
      <point x="225" y="540" type="line"/>
      <point x="908" y="540" type="line"/>
      <point x="908" y="1040" type="line"/>
      <point x="953" y="1040" type="line"/>
      <point x="953" y="0" type="line"/>
      <point x="908" y="0" type="line"/>
      <point x="908" y="500" type="line"/>
      <point x="225" y="500" type="line"/>
      <point x="225" y="0" type="line"/>
      <point x="180" y="0" type="line"/>
    </contour>
  </outline>
</glyph>
<glyph name="uni04AF" format="2">
  <advance width="1049"/>
  <unicode hex="04AF"/>
  <outline>
    <contour>
      <point x="547" y="0" type="line"/>
      <point x="929" y="1040" type="line"/>
      <point x="881" y="1040" type="line"/>
      <point x="524" y="56" type="line"/>
      <point x="168" y="1040" type="line"/>
      <point x="120" y="1040" type="line"/>
      <point x="502" y="0" type="line"/>
      <point x="502" y="-440" type="line"/>
      <point x="547" y="-440" type="line"/>
    </contour>
  </outline>
</glyph>
<glyph name="uni04C5" format="2">
  <advance width="1374"/>
  <unicode hex="04C5"/>
  <outline>
    <contour>
      <point x="1074" y="42" type="line"/>
      <point x="1254" y="42" type="line"/>
      <point x="1132" y="-300" type="line"/>
      <point x="1084" y="-300" type="line"/>
      <point x="1194" y="0" type="line"/>
      <point x="1074" y="0" type="line"/>
    </contour>
    <contour>
      <point x="1104" y="1480" type="line"/>
      <point x="1104" y="0" type="line"/>
      <point x="1058" y="0" type="line"/>
      <point x="1058" y="1438" type="line"/>
      <point x="460" y="1438" type="line"/>
      <point x="395" y="520" type="line" smooth="yes"/>
      <point x="369" y="121"/>
      <point x="272" y="-10"/>
      <point x="120" y="-10" type="curve"/>
      <point x="120" y="35" type="line"/>
      <point x="265" y="35"/>
      <point x="325" y="221"/>
      <point x="347" y="520" type="curve" smooth="yes"/>
      <point x="417" y="1480" type="line"/>
    </contour>
  </outline>
</glyph>
<glyph name="uni04C6" format="2">
  <advance width="1174"/>
  <unicode hex="04C6"/>
  <outline>
    <contour>
      <point x="874" y="0" type="line"/>
      <point x="874" y="40" type="line"/>
      <point x="1054" y="40" type="line"/>
      <point x="930" y="-300" type="line"/>
      <point x="884" y="-300" type="line"/>
      <point x="994" y="0" type="line"/>
    </contour>
    <contour>
      <point x="904" y="1040" type="line"/>
      <point x="904" y="0" type="line"/>
      <point x="859" y="0" type="line"/>
      <point x="859" y="998" type="line"/>
      <point x="421" y="998" type="line"/>
      <point x="357" y="327" type="line" smooth="yes"/>
      <point x="330" y="36"/>
      <point x="234" y="-10"/>
      <point x="120" y="-10" type="curve"/>
      <point x="120" y="30" type="line"/>
      <point x="243" y="30"/>
      <point x="295" y="137"/>
      <point x="312" y="327" type="curve" smooth="yes"/>
      <point x="376" y="1040" type="line"/>
    </contour>
  </outline>
</glyph>
<glyph name="uni04CE" format="2">
  <advance width="1340"/>
  <unicode hex="04CE"/>
  <outline>
    <contour>
      <point x="1040" y="0" type="line"/>
      <point x="1160" y="0" type="line"/>
      <point x="1050" y="-300" type="line"/>
      <point x="1096" y="-300" type="line"/>
      <point x="1220" y="40" type="line"/>
      <point x="1040" y="40" type="line"/>
    </contour>
    <contour>
      <point x="621" y="165" type="line"/>
      <point x="225" y="1040" type="line"/>
      <point x="206" y="967" type="line"/>
      <point x="599" y="112" type="line"/>
      <point x="644" y="112" type="line"/>
      <point x="1040" y="967" type="line"/>
      <point x="1025" y="1040" type="line"/>
    </contour>
    <contour>
      <point x="1070" y="1040" type="line"/>
      <point x="1025" y="1040" type="line"/>
      <point x="1025" y="0" type="line"/>
      <point x="1070" y="0" type="line"/>
    </contour>
    <contour>
      <point x="180" y="1040" type="line"/>
      <point x="180" y="0" type="line"/>
      <point x="225" y="0" type="line"/>
      <point x="225" y="1040" type="line"/>
    </contour>
  </outline>
</glyph>
<glyph name="uni04E9" format="2">
  <advance width="1156"/>
  <unicode hex="04E9"/>
  <anchor x="578" y="0" name="bottom_center"/>
  <anchor x="578" y="1040" name="top_center"/>
  <outline>
    <contour>
      <point x="165" y="540" type="line"/>
      <point x="995" y="540" type="line"/>
      <point x="995" y="500" type="line"/>
      <point x="165" y="500" type="line"/>
    </contour>
    <contour>
      <point x="185" y="520" type="curve" smooth="yes"/>
      <point x="185" y="184"/>
      <point x="410" y="30"/>
      <point x="578" y="30" type="curve" smooth="yes"/>
      <point x="746" y="30"/>
      <point x="971" y="184"/>
      <point x="971" y="520" type="curve" smooth="yes"/>
      <point x="971" y="856"/>
      <point x="746" y="1010"/>
      <point x="578" y="1010" type="curve" smooth="yes"/>
      <point x="410" y="1010"/>
      <point x="185" y="856"/>
    </contour>
    <contour>
      <point x="140" y="520" type="curve" smooth="yes"/>
      <point x="140" y="832"/>
      <point x="331" y="1050"/>
      <point x="578" y="1050" type="curve" smooth="yes"/>
      <point x="825" y="1050"/>
      <point x="1016" y="832"/>
      <point x="1016" y="520" type="curve" smooth="yes"/>
      <point x="1016" y="208"/>
      <point x="825" y="-10"/>
      <point x="578" y="-10" type="curve" smooth="yes"/>
      <point x="331" y="-10"/>
      <point x="140" y="208"/>
    </contour>
  </outline>
</glyph>
<glyph name="uni04FD" format="2">
  <advance width="998"/>
  <unicode hex="04FD"/>
  <outline>
    <contour>
      <point x="555" y="-269" type="curve"/>
      <point x="555" y="-309" type="line"/>
      <point x="559" y="-310"/>
      <point x="563" y="-310"/>
      <point x="567" y="-310" type="curve" smooth="yes"/>
      <point x="745" y="-310"/>
      <point x="878" y="-178"/>
      <point x="878" y="0" type="curve"/>
      <point x="832" y="0" type="line"/>
      <point x="832" y="-155"/>
      <point x="722" y="-270"/>
      <point x="567" y="-270" type="curve" smooth="yes"/>
      <point x="563" y="-270"/>
      <point x="559" y="-270"/>
    </contour>
    <contour>
      <point x="460" y="520" type="line"/>
      <point x="120" y="1040" type="line"/>
      <point x="172" y="1040" type="line"/>
      <point x="499" y="550" type="line"/>
      <point x="826" y="1040" type="line"/>
      <point x="878" y="1040" type="line"/>
      <point x="538" y="520" type="line"/>
      <point x="878" y="0" type="line"/>
      <point x="826" y="0" type="line"/>
      <point x="499" y="490" type="line"/>
      <point x="172" y="0" type="line"/>
      <point x="120" y="0" type="line"/>
    </contour>
  </outline>
</glyph>
<glyph name="uni0503" format="2">
  <advance width="1743"/>
  <unicode hex="0503"/>
  <outline>
    <contour>
      <point x="935" y="520" type="curve"/>
      <point x="935" y="856"/>
      <point x="735" y="1010"/>
      <point x="560" y="1010" type="curve" smooth="yes"/>
      <point x="385" y="1010"/>
      <point x="185" y="856"/>
      <point x="185" y="520" type="curve" smooth="yes"/>
      <point x="185" y="184"/>
      <point x="385" y="30"/>
      <point x="560" y="30" type="curve" smooth="yes"/>
      <point x="735" y="30"/>
      <point x="935" y="184"/>
    </contour>
    <contour>
      <point x="932" y="269" type="curve"/>
      <point x="901" y="153"/>
      <point x="770" y="-10"/>
      <point x="560" y="-10" type="curve" smooth="yes"/>
      <point x="313" y="-10"/>
      <point x="140" y="208"/>
      <point x="140" y="520" type="curve" smooth="yes"/>
      <point x="140" y="832"/>
      <point x="313" y="1050"/>
      <point x="560" y="1050" type="curve" smooth="yes"/>
      <point x="760" y="1050"/>
      <point x="896" y="896"/>
      <point x="927" y="780" type="curve"/>
      <point x="927" y="1480" type="line"/>
      <point x="972" y="1480" type="line"/>
      <point x="972" y="349" type="line"/>
      <point x="972" y="138"/>
      <point x="1083" y="30"/>
      <point x="1245" y="30" type="curve" smooth="yes"/>
      <point x="1407" y="30"/>
      <point x="1518" y="138"/>
      <point x="1518" y="349" type="curve" smooth="yes"/>
      <point x="1518" y="740" type="line"/>
      <point x="1563" y="740" type="line"/>
      <point x="1563" y="350" type="line"/>
      <point x="1563" y="92"/>
      <point x="1417" y="-10"/>
      <point x="1245" y="-10" type="curve" smooth="yes"/>
      <point x="1091" y="-10"/>
      <point x="958" y="67"/>
    </contour>
  </outline>
</glyph>
<glyph name="uni0504" format="2">
  <advance width="1923"/>
  <unicode hex="0504"/>
  <outline>
    <contour>
      <point x="482" y="796" type="line"/>
      <point x="482" y="756" type="line"/>
      <point x="566" y="756" type="line"/>
      <point x="566" y="796" type="line"/>
    </contour>
    <contour>
      <point x="1017" y="468" type="curve"/>
      <point x="1017" y="711"/>
      <point x="822" y="796"/>
      <point x="566" y="796" type="curve"/>
      <point x="566" y="756" type="line"/>
      <point x="752" y="756"/>
      <point x="971" y="701"/>
      <point x="971" y="468" type="curve"/>
      <point x="971" y="148"/>
      <point x="1109" y="-10"/>
      <point x="1357" y="-10" type="curve" smooth="yes"/>
      <point x="1605" y="-10"/>
      <point x="1743" y="148"/>
      <point x="1743" y="468" type="curve"/>
      <point x="1743" y="1040" type="line"/>
      <point x="1697" y="1040" type="line"/>
      <point x="1697" y="468" type="line" smooth="yes"/>
      <point x="1697" y="249"/>
      <point x="1627" y="32"/>
      <point x="1357" y="32" type="curve" smooth="yes"/>
      <point x="1087" y="32"/>
      <point x="1017" y="249"/>
    </contour>
    <contour>
      <point x="140" y="1099" type="curve"/>
      <point x="186" y="1086" type="line"/>
      <point x="186" y="1319"/>
      <point x="341" y="1448"/>
      <point x="566" y="1448" type="curve" smooth="yes"/>
      <point x="766" y="1448"/>
      <point x="919" y="1327"/>
      <point x="919" y="1122" type="curve" smooth="yes"/>
      <point x="919" y="927"/>
      <point x="766" y="796"/>
      <point x="566" y="796" type="curve"/>
      <point x="566" y="756" type="line"/>
      <point x="806" y="756"/>
      <point x="965" y="903"/>
      <point x="965" y="1126" type="curve" smooth="yes"/>
      <point x="965" y="1349"/>
      <point x="808" y="1490"/>
      <point x="566" y="1490" type="curve" smooth="yes"/>
      <point x="305" y="1490"/>
      <point x="145" y="1337"/>
    </contour>
  </outline>
</glyph>
<glyph name="uni0508" format="2">
  <advance width="2010"/>
  <unicode hex="0508"/>
  <outline>
    <contour>
      <point x="1104" y="468" type="curve"/>
      <point x="1104" y="1480" type="line"/>
      <point x="417" y="1480" type="line"/>
      <point x="347" y="520" type="line" smooth="yes"/>
      <point x="325" y="221"/>
      <point x="265" y="35"/>
      <point x="120" y="35" type="curve"/>
      <point x="120" y="-10" type="line"/>
      <point x="272" y="-10"/>
      <point x="369" y="121"/>
      <point x="395" y="520" type="curve" smooth="yes"/>
      <point x="460" y="1438" type="line"/>
      <point x="1058" y="1438" type="line"/>
      <point x="1058" y="468" type="line"/>
      <point x="1058" y="148"/>
      <point x="1196" y="-10"/>
      <point x="1444" y="-10" type="curve" smooth="yes"/>
      <point x="1692" y="-10"/>
      <point x="1830" y="148"/>
      <point x="1830" y="468" type="curve"/>
      <point x="1830" y="1040" type="line"/>
      <point x="1784" y="1040" type="line"/>
      <point x="1784" y="468" type="line" smooth="yes"/>
      <point x="1784" y="249"/>
      <point x="1714" y="32"/>
      <point x="1444" y="32" type="curve" smooth="yes"/>
      <point x="1174" y="32"/>
      <point x="1104" y="249"/>
    </contour>
  </outline>
</glyph>
<glyph name="uni0509" format="2">
  <advance width="1675"/>
  <unicode hex="0509"/>
  <outline>
    <contour>
      <point x="904" y="349" type="curve"/>
      <point x="904" y="1040" type="line"/>
      <point x="376" y="1040" type="line"/>
      <point x="312" y="327" type="line" smooth="yes"/>
      <point x="295" y="137"/>
      <point x="243" y="30"/>
      <point x="120" y="30" type="curve"/>
      <point x="120" y="-10" type="line"/>
      <point x="234" y="-10"/>
      <point x="329" y="36"/>
      <point x="357" y="327" type="curve" smooth="yes"/>
      <point x="421" y="998" type="line"/>
      <point x="859" y="998" type="line"/>
      <point x="859" y="350" type="line"/>
      <point x="859" y="92"/>
      <point x="1005" y="-10"/>
      <point x="1177" y="-10" type="curve" smooth="yes"/>
      <point x="1349" y="-10"/>
      <point x="1495" y="92"/>
      <point x="1495" y="350" type="curve"/>
      <point x="1495" y="740" type="line"/>
      <point x="1450" y="740" type="line"/>
      <point x="1450" y="349" type="line" smooth="yes"/>
      <point x="1450" y="138"/>
      <point x="1339" y="30"/>
      <point x="1177" y="30" type="curve" smooth="yes"/>
      <point x="1015" y="30"/>
      <point x="904" y="138"/>
    </contour>
  </outline>
</glyph>
<glyph name="uni050A" format="2">
  <advance width="2070"/>
  <unicode hex="050A"/>
  <outline>
    <contour>
      <point x="1164" y="468" type="line"/>
      <point x="1164" y="249"/>
      <point x="1234" y="32"/>
      <point x="1504" y="32" type="curve" smooth="yes"/>
      <point x="1774" y="32"/>
      <point x="1844" y="249"/>
      <point x="1844" y="468" type="curve" smooth="yes"/>
      <point x="1844" y="1040" type="line"/>
      <point x="1890" y="1040" type="line"/>
      <point x="1890" y="468" type="line"/>
      <point x="1890" y="148"/>
      <point x="1752" y="-10"/>
      <point x="1504" y="-10" type="curve" smooth="yes"/>
      <point x="1256" y="-10"/>
      <point x="1118" y="148"/>
      <point x="1118" y="468" type="curve"/>
      <point x="1118" y="719" type="line"/>
      <point x="226" y="719" type="line"/>
      <point x="226" y="0" type="line"/>
      <point x="180" y="0" type="line"/>
      <point x="180" y="1480" type="line"/>
      <point x="226" y="1480" type="line"/>
      <point x="226" y="761" type="line"/>
      <point x="1118" y="761" type="line"/>
      <point x="1118" y="1480" type="line"/>
      <point x="1164" y="1480" type="line"/>
    </contour>
  </outline>
</glyph>
<glyph name="uni050B" format="2">
  <advance width="1724"/>
  <unicode hex="050B"/>
  <outline>
    <contour>
      <point x="953" y="349" type="curve"/>
      <point x="953" y="1040" type="line"/>
      <point x="908" y="1040" type="line"/>
      <point x="908" y="540" type="line"/>
      <point x="225" y="540" type="line"/>
      <point x="225" y="1040" type="line"/>
      <point x="180" y="1040" type="line"/>
      <point x="180" y="0" type="line"/>
      <point x="225" y="0" type="line"/>
      <point x="225" y="500" type="line"/>
      <point x="908" y="500" type="line"/>
      <point x="908" y="349" type="line"/>
      <point x="908" y="91"/>
      <point x="1054" y="-11"/>
      <point x="1226" y="-11" type="curve" smooth="yes"/>
      <point x="1398" y="-11"/>
      <point x="1544" y="92"/>
      <point x="1544" y="350" type="curve"/>
      <point x="1544" y="740" type="line"/>
      <point x="1499" y="740" type="line"/>
      <point x="1499" y="349" type="line" smooth="yes"/>
      <point x="1499" y="138"/>
      <point x="1388" y="30"/>
      <point x="1226" y="30" type="curve" smooth="yes"/>
      <point x="1064" y="30"/>
      <point x="953" y="138"/>
    </contour>
  </outline>
</glyph>
<glyph name="uni050D" format="2">
  <advance width="1156"/>
  <unicode hex="050D"/>
  <outline>
    <contour>
      <point x="578" y="1010" type="curve" smooth="yes"/>
      <point x="724" y="1010"/>
      <point x="876" y="932"/>
      <point x="952" y="766" type="curve"/>
      <point x="991" y="788" type="line"/>
      <point x="917" y="950"/>
      <point x="775" y="1050"/>
      <point x="578" y="1050" type="curve" smooth="yes"/>
      <point x="331" y="1050"/>
      <point x="140" y="832"/>
      <point x="140" y="520" type="curve" smooth="yes"/>
      <point x="140" y="208"/>
      <point x="331" y="-10"/>
      <point x="578" y="-10" type="curve" smooth="yes"/>
      <point x="825" y="-10"/>
      <point x="1016" y="208"/>
      <point x="1016" y="520" type="curve" smooth="yes"/>
      <point x="1016" y="527"/>
      <point x="1016" y="533"/>
      <point x="1016" y="540" type="curve"/>
      <point x="971" y="540" type="line"/>
      <point x="971" y="533"/>
      <point x="971" y="527"/>
      <point x="971" y="520" type="curve" smooth="yes"/>
      <point x="971" y="184"/>
      <point x="746" y="30"/>
      <point x="578" y="30" type="curve" smooth="yes"/>
      <point x="410" y="30"/>
      <point x="185" y="184"/>
      <point x="185" y="520" type="curve" smooth="yes"/>
      <point x="185" y="856"/>
      <point x="410" y="1010"/>
    </contour>
    <contour>
      <point x="578" y="500" type="line"/>
      <point x="999" y="500" type="line"/>
      <point x="971" y="540" type="line"/>
      <point x="578" y="540" type="line"/>
    </contour>
  </outline>
</glyph>
<glyph name="uni050E" format="2">
  <advance width="1601"/>
  <unicode hex="050E"/>
  <outline>
    <contour>
      <point x="695" y="468" type="line"/>
      <point x="695" y="249"/>
      <point x="765" y="32"/>
      <point x="1035" y="32" type="curve" smooth="yes"/>
      <point x="1305" y="32"/>
      <point x="1375" y="249"/>
      <point x="1375" y="468" type="curve" smooth="yes"/>
      <point x="1375" y="1040" type="line"/>
      <point x="1421" y="1040" type="line"/>
      <point x="1421" y="468" type="line"/>
      <point x="1421" y="148"/>
      <point x="1283" y="-10"/>
      <point x="1035" y="-10" type="curve" smooth="yes"/>
      <point x="787" y="-10"/>
      <point x="649" y="148"/>
      <point x="649" y="468" type="curve"/>
      <point x="649" y="1438" type="line"/>
      <point x="180" y="1438" type="line"/>
      <point x="180" y="1480" type="line"/>
      <point x="1164" y="1480" type="line"/>
      <point x="1164" y="1438" type="line"/>
      <point x="695" y="1438" type="line"/>
    </contour>
  </outline>
</glyph>
<glyph name="uni050F" format="2">
  <advance width="1339"/>
  <unicode hex="050F"/>
  <outline>
    <contour>
      <point x="568" y="349" type="curve"/>
      <point x="568" y="1000" type="line"/>
      <point x="912" y="1000" type="line"/>
      <point x="912" y="1040" type="line"/>
      <point x="180" y="1040" type="line"/>
      <point x="180" y="1000" type="line"/>
      <point x="524" y="1000" type="line"/>
      <point x="524" y="350" type="line"/>
      <point x="524" y="92"/>
      <point x="669" y="-10"/>
      <point x="841" y="-10" type="curve" smooth="yes"/>
      <point x="1013" y="-10"/>
      <point x="1159" y="92"/>
      <point x="1159" y="350" type="curve"/>
      <point x="1159" y="762" type="line"/>
      <point x="1114" y="762" type="line"/>
      <point x="1114" y="349" type="line" smooth="yes"/>
      <point x="1114" y="138"/>
      <point x="1003" y="30"/>
      <point x="841" y="30" type="curve" smooth="yes"/>
      <point x="679" y="30"/>
      <point x="568" y="138"/>
    </contour>
  </outline>
</glyph>
<glyph name="uni0512" format="2">
  <advance width="1284"/>
  <unicode hex="0512"/>
  <outline>
    <contour>
      <point x="417" y="1480" type="line"/>
      <point x="347" y="520" type="line" smooth="yes"/>
      <point x="325" y="221"/>
      <point x="265" y="35"/>
      <point x="120" y="35" type="curve"/>
      <point x="120" y="-10" type="line"/>
      <point x="272" y="-10"/>
      <point x="369" y="121"/>
      <point x="395" y="520" type="curve" smooth="yes"/>
      <point x="460" y="1438" type="line"/>
      <point x="1058" y="1438" type="line"/>
      <point x="1058" y="0" type="line" smooth="yes"/>
      <point x="1058" y="-155"/>
      <point x="948" y="-270"/>
      <point x="793" y="-270" type="curve" smooth="yes"/>
      <point x="789" y="-270"/>
      <point x="785" y="-270"/>
      <point x="781" y="-269" type="curve"/>
      <point x="781" y="-309" type="line"/>
      <point x="785" y="-310"/>
      <point x="789" y="-310"/>
      <point x="793" y="-310" type="curve" smooth="yes"/>
      <point x="971" y="-310"/>
      <point x="1104" y="-178"/>
      <point x="1104" y="0" type="curve" smooth="yes"/>
      <point x="1104" y="1480" type="line"/>
    </contour>
  </outline>
</glyph>
<glyph name="uni0513" format="2">
  <advance width="1084"/>
  <unicode hex="0513"/>
  <outline>
    <contour>
      <point x="376" y="1040" type="line"/>
      <point x="312" y="327" type="line" smooth="yes"/>
      <point x="295" y="137"/>
      <point x="243" y="29"/>
      <point x="120" y="29" type="curve"/>
      <point x="120" y="-10" type="line"/>
      <point x="234" y="-10"/>
      <point x="330" y="36"/>
      <point x="357" y="327" type="curve" smooth="yes"/>
      <point x="421" y="998" type="line"/>
      <point x="859" y="998" type="line"/>
      <point x="859" y="0" type="line" smooth="yes"/>
      <point x="859" y="-155"/>
      <point x="748" y="-270"/>
      <point x="593" y="-270" type="curve" smooth="yes"/>
      <point x="589" y="-270"/>
      <point x="585" y="-270"/>
      <point x="581" y="-269" type="curve"/>
      <point x="581" y="-309" type="line"/>
      <point x="585" y="-310"/>
      <point x="589" y="-310"/>
      <point x="593" y="-310" type="curve" smooth="yes"/>
      <point x="771" y="-310"/>
      <point x="904" y="-178"/>
      <point x="904" y="0" type="curve" smooth="yes"/>
      <point x="904" y="1040" type="line"/>
    </contour>
  </outline>
</glyph>
<glyph name="uni0514" format="2">
  <advance width="2192"/>
  <unicode hex="0514"/>
  <outline>
    <contour>
      <point x="1012" y="1438" type="line"/>
      <point x="380" y="1438" type="line"/>
      <point x="315" y="520" type="line" smooth="yes"/>
      <point x="289" y="121"/>
      <point x="192" y="-10"/>
      <point x="40" y="-10" type="curve"/>
      <point x="40" y="35" type="line"/>
      <point x="185" y="35"/>
      <point x="245" y="221"/>
      <point x="267" y="520" type="curve" smooth="yes"/>
      <point x="337" y="1480" type="line"/>
      <point x="387" y="1480" type="line"/>
      <point x="416" y="1480" type="line"/>
      <point x="1024" y="1480" type="line"/>
    </contour>
    <contour>
      <point x="1519" y="697" type="line"/>
      <point x="1024" y="0" type="line"/>
      <point x="970" y="0" type="line"/>
      <point x="1492" y="740" type="line"/>
      <point x="987" y="1456" type="line"/>
      <point x="1024" y="1480" type="line"/>
      <point x="1521" y="778" type="line"/>
      <point x="2018" y="1480" type="line"/>
      <point x="2072" y="1480" type="line"/>
      <point x="1550" y="740" type="line"/>
      <point x="2072" y="0" type="line"/>
      <point x="2018" y="0" type="line"/>
    </contour>
  </outline>
</glyph>
<glyph name="uni0515" format="2">
  <advance width="1730"/>
  <unicode hex="0515"/>
  <outline>
    <contour>
      <point x="1192" y="520" type="line"/>
      <point x="866" y="1019" type="line"/>
      <point x="904" y="1040" type="line"/>
      <point x="1231" y="550" type="line"/>
      <point x="1558" y="1040" type="line"/>
      <point x="1610" y="1040" type="line"/>
      <point x="1270" y="520" type="line"/>
      <point x="1610" y="0" type="line"/>
      <point x="1558" y="0" type="line"/>
      <point x="1231" y="490" type="line"/>
      <point x="904" y="0" type="line"/>
      <point x="852" y="0" type="line"/>
    </contour>
    <contour>
      <point x="889" y="998" type="line"/>
      <point x="421" y="998" type="line"/>
      <point x="357" y="327" type="line" smooth="yes"/>
      <point x="330" y="36"/>
      <point x="234" y="-10"/>
      <point x="120" y="-10" type="curve"/>
      <point x="120" y="30" type="line"/>
      <point x="243" y="30"/>
      <point x="295" y="137"/>
      <point x="312" y="327" type="curve" smooth="yes"/>
      <point x="376" y="1040" type="line"/>
      <point x="904" y="1040" type="line"/>
    </contour>
  </outline>
</glyph>
<glyph name="uni0520" format="2">
  <advance width="2182"/>
  <unicode hex="0520"/>
  <outline>
    <contour>
      <point x="1489" y="1008" type="curve" smooth="yes"/>
      <point x="1324" y="1008"/>
      <point x="1189" y="913"/>
      <point x="1086" y="722" type="curve"/>
      <point x="1077" y="800" type="line"/>
      <point x="1173" y="957"/>
      <point x="1299" y="1050"/>
      <point x="1489" y="1050" type="curve" smooth="yes"/>
      <point x="1837" y="1050"/>
      <point x="2042" y="739"/>
      <point x="2042" y="300" type="curve" smooth="yes"/>
      <point x="2042" y="-139"/>
      <point x="1837" y="-450"/>
      <point x="1489" y="-450" type="curve"/>
      <point x="1489" y="-408" type="line"/>
      <point x="1749" y="-408"/>
      <point x="1996" y="-175"/>
      <point x="1996" y="300" type="curve" smooth="yes"/>
      <point x="1996" y="775"/>
      <point x="1749" y="1008"/>
    </contour>
    <contour>
      <point x="120" y="35" type="line"/>
      <point x="265" y="35"/>
      <point x="325" y="221"/>
      <point x="347" y="520" type="curve" smooth="yes"/>
      <point x="417" y="1480" type="line"/>
      <point x="1104" y="1480" type="line"/>
      <point x="1104" y="0" type="line"/>
      <point x="1058" y="0" type="line"/>
      <point x="1058" y="1438" type="line"/>
      <point x="460" y="1438" type="line"/>
      <point x="395" y="520" type="line" smooth="yes"/>
      <point x="369" y="121"/>
      <point x="272" y="-10"/>
      <point x="120" y="-10" type="curve"/>
    </contour>
  </outline>
</glyph>
<glyph name="uni0521" format="2">
  <advance width="1746"/>
  <unicode hex="0521"/>
  <outline>
    <contour>
      <point x="1168" y="570" type="curve" smooth="yes"/>
      <point x="1077" y="570"/>
      <point x="970" y="526"/>
      <point x="890" y="431" type="curve"/>
      <point x="891" y="499" type="line"/>
      <point x="966" y="570"/>
      <point x="1062" y="610"/>
      <point x="1168" y="610" type="curve" smooth="yes"/>
      <point x="1415" y="610"/>
      <point x="1606" y="392"/>
      <point x="1606" y="80" type="curve" smooth="yes"/>
      <point x="1606" y="-232"/>
      <point x="1415" y="-450"/>
      <point x="1168" y="-450" type="curve"/>
      <point x="1168" y="-410" type="line"/>
      <point x="1336" y="-410"/>
      <point x="1561" y="-256"/>
      <point x="1561" y="80" type="curve" smooth="yes"/>
      <point x="1561" y="416"/>
      <point x="1336" y="570"/>
    </contour>
    <contour>
      <point x="904" y="1040" type="line"/>
      <point x="904" y="0" type="line"/>
      <point x="859" y="0" type="line"/>
      <point x="859" y="998" type="line"/>
      <point x="421" y="998" type="line"/>
      <point x="357" y="327" type="line" smooth="yes"/>
      <point x="330" y="36"/>
      <point x="234" y="-10"/>
      <point x="120" y="-10" type="curve"/>
      <point x="120" y="29" type="line"/>
      <point x="243" y="29"/>
      <point x="295" y="137"/>
      <point x="312" y="327" type="curve" smooth="yes"/>
      <point x="376" y="1040" type="line"/>
    </contour>
  </outline>
</glyph>
<glyph name="uni0529" format="2">
  <advance width="1230"/>
  <unicode hex="0529"/>
  <outline>
    <contour>
      <point x="1005" y="0" type="line"/>
      <point x="1005" y="500" type="line"/>
      <point x="322" y="500" type="line"/>
      <point x="322" y="0" type="line" smooth="yes"/>
      <point x="322" y="-178"/>
      <point x="190" y="-310"/>
      <point x="12" y="-310" type="curve" smooth="yes"/>
      <point x="8" y="-310"/>
      <point x="4" y="-310"/>
      <point x="0" y="-309" type="curve"/>
      <point x="0" y="-269" type="line"/>
      <point x="4" y="-270"/>
      <point x="8" y="-270"/>
      <point x="12" y="-270" type="curve" smooth="yes"/>
      <point x="167" y="-270"/>
      <point x="277" y="-155"/>
      <point x="277" y="0" type="curve" smooth="yes"/>
      <point x="277" y="1040" type="line"/>
      <point x="322" y="1040" type="line"/>
      <point x="322" y="540" type="line"/>
      <point x="1005" y="540" type="line"/>
      <point x="1005" y="1040" type="line"/>
      <point x="1050" y="1040" type="line"/>
      <point x="1050" y="0" type="line"/>
    </contour>
  </outline>
</glyph>
<glyph name="uni052A" format="2">
  <advance width="2581"/>
  <unicode hex="052A"/>
  <outline>
    <contour>
      <point x="120" y="-300" type="line"/>
      <point x="120" y="46" type="line"/>
      <point x="166" y="46" type="line"/>
      <point x="166" y="-300" type="line"/>
    </contour>
    <contour>
      <point x="1207" y="-300" type="line"/>
      <point x="1207" y="46" type="line"/>
      <point x="1253" y="46" type="line"/>
      <point x="1253" y="-300" type="line"/>
    </contour>
    <contour>
      <point x="154" y="46" type="line"/>
      <point x="1235" y="46" type="line"/>
      <point x="1235" y="0" type="line"/>
      <point x="154" y="0" type="line"/>
    </contour>
    <contour>
      <point x="1127" y="1480" type="line"/>
      <point x="1127" y="0" type="line"/>
      <point x="1081" y="0" type="line"/>
      <point x="1081" y="1438" type="line"/>
      <point x="483" y="1438" type="line"/>
      <point x="418" y="520" type="line" smooth="yes"/>
      <point x="392" y="121"/>
      <point x="295" y="0"/>
      <point x="143" y="0" type="curve"/>
      <point x="143" y="46" type="line"/>
      <point x="288" y="46"/>
      <point x="348" y="221"/>
      <point x="370" y="520" type="curve" smooth="yes"/>
      <point x="440" y="1480" type="line"/>
    </contour>
    <contour>
      <point x="1110" y="761" type="line"/>
      <point x="1470" y="761" type="line"/>
      <point x="1470" y="719" type="line"/>
      <point x="1110" y="719" type="line"/>
    </contour>
    <contour>
      <point x="1767" y="807" type="line"/>
      <point x="1797" y="841" type="line"/>
      <point x="2461" y="0" type="line"/>
      <point x="2407" y="0" type="line"/>
    </contour>
    <contour>
      <point x="1489" y="508" type="line"/>
      <point x="1489" y="0" type="line"/>
      <point x="1443" y="0" type="line"/>
      <point x="1443" y="1480" type="line"/>
      <point x="1489" y="1480" type="line"/>
      <point x="1489" y="568" type="line"/>
      <point x="2401" y="1480" type="line"/>
      <point x="2454" y="1480"/>
      <point x="2408" y="1480"/>
      <point x="2461" y="1480" type="curve"/>
    </contour>
  </outline>
</glyph>
<glyph name="uni052B" format="2">
  <advance width="2111"/>
  <unicode hex="052B"/>
  <outline>
    <contour>
      <point x="120" y="-300" type="line"/>
      <point x="120" y="40" type="line"/>
      <point x="165" y="40" type="line"/>
      <point x="165" y="-300" type="line"/>
    </contour>
    <contour>
      <point x="151" y="40" type="line"/>
      <point x="1036" y="40" type="line"/>
      <point x="1036" y="0" type="line"/>
      <point x="151" y="0" type="line"/>
    </contour>
    <contour>
      <point x="1016" y="-300" type="line"/>
      <point x="1016" y="40" type="line"/>
      <point x="1062" y="40" type="line"/>
      <point x="1062" y="-300" type="line"/>
    </contour>
    <contour>
      <point x="926" y="1040" type="line"/>
      <point x="926" y="0" type="line"/>
      <point x="881" y="0" type="line"/>
      <point x="881" y="998" type="line"/>
      <point x="443" y="998" type="line"/>
      <point x="379" y="327" type="line" smooth="yes"/>
      <point x="352" y="36"/>
      <point x="256" y="0"/>
      <point x="142" y="0" type="curve"/>
      <point x="142" y="40" type="line"/>
      <point x="265" y="40"/>
      <point x="317" y="137"/>
      <point x="334" y="327" type="curve" smooth="yes"/>
      <point x="398" y="1040" type="line"/>
    </contour>
    <contour>
      <point x="900" y="540" type="line"/>
      <point x="1260" y="540" type="line"/>
      <point x="1260" y="500" type="line"/>
      <point x="900" y="500" type="line"/>
    </contour>
    <contour>
      <point x="1513" y="601" type="line"/>
      <point x="1544" y="630" type="line"/>
      <point x="1991" y="0" type="line"/>
      <point x="1939" y="0" type="line"/>
    </contour>
    <contour>
      <point x="1287" y="340" type="line"/>
      <point x="1287" y="0" type="line"/>
      <point x="1242" y="0" type="line"/>
      <point x="1242" y="1040" type="line"/>
      <point x="1287" y="1040" type="line"/>
      <point x="1287" y="398" type="line"/>
      <point x="1929" y="1040" type="line"/>
      <point x="1982" y="1040"/>
      <point x="1934" y="1040"/>
      <point x="1987" y="1040" type="curve"/>
    </contour>
  </outline>
</glyph>
<glyph name="uni052C" format="2">
  <advance width="1373"/>
  <unicode hex="052C"/>
  <outline>
    <contour>
      <point x="120" y="-300" type="line"/>
      <point x="120" y="45" type="line"/>
      <point x="166" y="45" type="line"/>
      <point x="166" y="-300" type="line"/>
    </contour>
    <contour>
      <point x="1207" y="-300" type="line"/>
      <point x="1207" y="46" type="line"/>
      <point x="1253" y="46" type="line"/>
      <point x="1253" y="-300" type="line"/>
    </contour>
    <contour>
      <point x="1235" y="0" type="line"/>
      <point x="154" y="0" type="line"/>
      <point x="154" y="46" type="line"/>
      <point x="1235" y="46" type="line"/>
    </contour>
    <contour>
      <point x="1127" y="1480" type="line"/>
      <point x="1127" y="0" type="line"/>
      <point x="1081" y="0" type="line"/>
      <point x="1081" y="1438" type="line"/>
      <point x="603" y="1438" type="line"/>
      <point x="538" y="520" type="line" smooth="yes"/>
      <point x="512" y="121"/>
      <point x="415" y="0"/>
      <point x="263" y="0" type="curve"/>
      <point x="263" y="45" type="line"/>
      <point x="408" y="45"/>
      <point x="468" y="221"/>
      <point x="490" y="520" type="curve" smooth="yes"/>
      <point x="560" y="1480" type="line"/>
    </contour>
    <contour>
      <point x="698" y="590" type="curve" smooth="yes"/>
      <point x="450" y="590"/>
      <point x="243" y="758"/>
      <point x="243" y="1068" type="curve"/>
      <point x="243" y="1480" type="line"/>
      <point x="288" y="1480" type="line"/>
      <point x="288" y="1068" type="line" smooth="yes"/>
      <point x="288" y="849"/>
      <point x="428" y="630"/>
      <point x="698" y="630" type="curve" smooth="yes"/>
      <point x="913" y="630"/>
      <point x="1047" y="689"/>
      <point x="1104" y="726" type="curve"/>
      <point x="1117" y="682" type="line"/>
      <point x="1061" y="645"/>
      <point x="938" y="590"/>
    </contour>
  </outline>
</glyph>
<glyph name="uni052D" format="2">
  <advance width="1182"/>
  <unicode hex="052D"/>
  <outline>
    <contour>
      <point x="120" y="-300" type="line"/>
      <point x="120" y="40" type="line"/>
      <point x="165" y="40" type="line"/>
      <point x="165" y="-300" type="line"/>
    </contour>
    <contour>
      <point x="151" y="40" type="line"/>
      <point x="1036" y="40" type="line"/>
      <point x="1036" y="0" type="line"/>
      <point x="151" y="0" type="line"/>
    </contour>
    <contour>
      <point x="1016" y="-300" type="line"/>
      <point x="1016" y="40" type="line"/>
      <point x="1062" y="40" type="line"/>
      <point x="1062" y="-300" type="line"/>
    </contour>
    <contour>
      <point x="926" y="1040" type="line"/>
      <point x="926" y="0" type="line"/>
      <point x="881" y="0" type="line"/>
      <point x="881" y="998" type="line"/>
      <point x="523" y="998" type="line"/>
      <point x="459" y="327" type="line" smooth="yes"/>
      <point x="432" y="36"/>
      <point x="336" y="0"/>
      <point x="222" y="0" type="curve"/>
      <point x="222" y="40" type="line"/>
      <point x="345" y="40"/>
      <point x="397" y="137"/>
      <point x="414" y="327" type="curve" smooth="yes"/>
      <point x="478" y="1040" type="line"/>
    </contour>
    <contour>
      <point x="566" y="397" type="curve" smooth="yes"/>
      <point x="361" y="397"/>
      <point x="224" y="516"/>
      <point x="224" y="760" type="curve"/>
      <point x="224" y="1040" type="line"/>
      <point x="269" y="1040" type="line"/>
      <point x="269" y="763" type="line" smooth="yes"/>
      <point x="269" y="536"/>
      <point x="393" y="437"/>
      <point x="576" y="437" type="curve" smooth="yes"/>
      <point x="761" y="437"/>
      <point x="893" y="568"/>
      <point x="893" y="568" type="curve"/>
      <point x="917" y="525" type="line"/>
      <point x="917" y="525"/>
      <point x="771" y="397"/>
    </contour>
  </outline>
</glyph>
